<svg width="19" height="20" viewBox="0 0 19 20" fill="none" xmlns="http://www.w3.org/2000/svg">
<mask id="mask0_1_203" style="mask-type:luminance" maskUnits="userSpaceOnUse" x="0" y="0" width="19" height="20">
<path d="M0.489563 0.333344H18.4896V19.1719H0.489563V0.333344Z" fill="white"/>
</mask>
<g mask="url(#mask0_1_203)">
<path d="M18.0729 9.54688C18.1718 9.64063 18.3281 9.60938 18.4271 9.51563C18.4896 9.42188 18.4896 9.26563 18.3906 9.20313C16.5833 7.84897 14.0416 8.04167 12.4583 9.67188C11.0937 9.17188 9.50518 9.48438 8.23435 10.2083C8.86976 8.04167 9.72393 5.7448 11.7239 4.51563C12.4896 4.89584 13.375 5.05209 14.2031 5.33334C14.5833 5.46355 15.026 5.65105 15.4062 5.4948C15.7239 5.36459 15.9479 5.02084 15.8229 4.61459C15.8229 4.51563 15.7916 4.42188 15.7239 4.32813C16.2656 4.26563 16.5833 4.07813 16.6458 3.73438C16.7083 3.47917 16.6458 3.35417 16.2031 1.50001C16.1093 1.08855 15.9791 0.6823 15.5677 0.463549C15.2187 0.3073 14.8698 0.3698 14.5208 0.463549C11.7239 1.25001 12.1718 1.15626 11.4427 1.31251C10.8073 1.43751 10.1093 1.59376 9.69268 2.00522C8.45831 3.19793 7.24997 4.45313 6.04164 5.6823C4.23435 7.50522 2.3906 9.39063 1.09372 11.6563C0.807264 12.125 0.583306 12.6302 0.552055 13.1979C0.489556 13.7604 0.677054 14.3594 1.05726 14.7969C2.04164 15.9948 3.76039 16.0885 5.12497 16.3073C6.52081 16.526 7.91664 16.9688 9.31247 17.0313C10.6458 17.125 12.0416 16.875 13.0937 16.0573C13.25 16.526 13.6614 17.0313 13.8854 17.3125C14.4583 17.974 15.1875 18.4479 15.9791 18.7917C16.0729 18.8542 16.6146 18.9792 16.9948 19.0729C17.1562 19.1406 17.2187 19.1719 17.3125 19.1406C17.375 19.1406 17.3437 19.1406 17.3437 19.1042C17.5052 19.0104 17.4739 18.7604 17.3125 18.6979C17.1562 18.6354 17.026 18.5729 17.0573 18.6042C16.8698 18.4792 16.7396 18.4479 16.2968 18.224C14.9323 17.4427 13.8541 16.1823 13.2812 14.7344C13.25 14.6094 13.0937 14.5469 12.9635 14.6094C12.8385 14.6406 12.776 14.7969 12.8385 14.9271C12.901 15.0521 12.9323 15.1771 12.9948 15.3021C11.7604 16.3698 10.0104 16.401 9.05726 16.3073C7.53643 16.1823 6.04164 15.6458 4.1406 15.3646C3.47393 15.2708 2.86976 15.1771 2.29685 14.9271C1.72393 14.6719 1.05726 14.1094 1.02601 13.3229C0.994764 12.849 1.24997 12.3802 1.50518 11.9375C2.77601 9.73959 4.61456 7.84897 6.3906 6.0573C7.56768 4.86459 8.80726 3.57293 10.0104 2.38022C10.4271 1.96876 11.4739 1.87501 12.1093 1.68751L14.6458 0.963549C15.3437 0.776049 15.5677 0.838548 15.7604 1.65626C16.2343 3.54167 16.2343 3.54167 16.2031 3.66667C16.1406 3.85938 15.7916 3.92188 15.5989 3.92188C15.0573 3.95313 14.4583 3.98438 14.1718 3.51042C14.3906 3.47918 14.6146 3.44793 14.8385 3.35417C15.1875 3.22917 15.2812 2.97917 15.1562 2.63022C14.9948 2.19272 14.8385 1.96876 14.1093 1.71876C14.0104 1.68751 13.9166 1.71876 13.8541 1.78126C13.6927 1.93751 13.4739 2.06772 13.2812 2.13022C13.1562 2.16147 13.0937 2.28647 13.125 2.41147C13.1562 2.53647 13.2812 2.59897 13.4062 2.56772C13.6614 2.50522 13.8854 2.38022 14.0729 2.22397C14.5521 2.38022 14.5833 2.50522 14.7083 2.78647C14.7083 2.81772 14.7396 2.88542 14.7396 2.88542C14.7396 2.88542 14.7083 2.91667 14.6458 2.91667C14.4896 2.97917 14.2968 3.01042 14.1093 3.04167C14.2968 2.75522 13.8854 2.50522 13.7239 2.75522C13.4062 3.22917 13.6927 3.92188 14.2031 4.17188C14.4896 4.32813 14.776 4.35938 15.0937 4.39063C15.125 4.39063 15.125 4.42188 15.1562 4.42188C15.2812 4.48438 15.3437 4.64584 15.3125 4.77084C15.2812 4.89584 15.125 5.02084 14.9948 4.98959C14.8385 4.98959 14.6771 4.86459 14.4896 4.77084C14.0416 4.51563 13.5052 4.48438 12.9948 4.39063C12.0104 4.23438 11.9166 4.04688 11.5364 3.76563C11.3125 3.57292 11.1562 3.44793 11.1562 3.29167C11.1562 3.16667 11.0573 3.04167 10.9323 3.04167C10.8073 3.04167 10.7083 3.13542 10.6771 3.26042C10.6771 3.32293 10.6771 3.38542 10.7083 3.41667C10.7083 3.69793 10.9323 3.95313 11.125 4.14063C11.1562 4.17188 11.2187 4.20313 11.25 4.23438C9.09372 5.65105 8.29685 8.13542 7.59893 10.5521V10.6198C7.21872 10.9323 6.83851 11.3073 6.5833 11.8125C6.5208 11.9375 6.58331 12.0625 6.67705 12.125C6.80726 12.1875 6.93226 12.125 6.99476 12.0313C7.82289 10.4896 10.2343 9.57813 11.9479 10.0208C12.901 10.2396 13.6927 10.901 14.0104 11.7188C14.0416 11.8438 14.2031 11.9063 14.3281 11.8438C14.4583 11.8125 14.5208 11.6563 14.4583 11.5313C14.1718 10.8385 13.6302 10.2396 12.901 9.86459C14.3906 8.47917 16.5521 8.41667 18.0729 9.54688Z" fill="white"/>
</g>
</svg>
