<svg width="386" height="408" viewBox="0 0 386 408" fill="none" xmlns="http://www.w3.org/2000/svg">
<mask id="mask0_5_31" style="mask-type:luminance" maskUnits="userSpaceOnUse" x="0" y="0" width="386" height="408">
<path d="M0.463623 0.333313H385.464V407.484H0.463623V0.333313Z" fill="white"/>
</mask>
<g mask="url(#mask0_5_31)">
<path d="M376.641 199.63C378.677 201.667 382.073 200.99 384.11 198.953C385.464 196.917 385.464 193.521 383.427 192.161C344.724 162.964 290.406 167.036 256.453 202.349C227.255 191.484 193.307 198.271 166.146 213.891C179.724 167.036 198.057 117.469 240.839 90.9844C257.13 99.1354 276.146 102.531 293.797 108.641C301.948 111.354 311.453 115.432 319.599 112.036C326.391 109.318 331.146 101.849 328.427 93.0208C328.427 90.9844 327.75 88.9479 326.391 86.9115C337.932 85.5521 344.724 81.4792 346.083 74.0104C347.443 68.5781 346.083 65.8594 336.578 25.7969C334.542 16.9688 331.823 8.14064 322.995 3.39064C315.526 -0.00519629 308.057 1.35418 300.589 3.39064C240.839 20.3646 250.344 18.3281 234.724 21.724C221.146 24.4375 206.208 27.8333 197.38 36.6615C170.896 62.4636 145.094 89.625 119.292 116.109C80.5887 155.495 41.2085 196.234 13.3647 245.125C7.25534 255.313 2.50534 266.177 1.82305 278.401C0.463677 290.625 4.5418 303.526 12.6876 313.031C33.7397 338.833 70.4064 340.87 99.5991 345.625C129.479 350.38 159.354 359.885 189.229 361.245C217.75 363.281 247.625 357.849 270.031 340.193C273.427 350.38 282.255 361.245 287.011 367.354C299.229 381.615 314.849 391.802 331.823 399.271C333.86 400.625 345.406 403.344 353.552 405.38C356.948 406.74 358.307 407.417 360.344 406.74C361.698 406.74 361.021 406.74 361.021 406.057C364.417 404.021 363.74 398.589 360.344 397.234C356.948 395.875 354.229 394.516 354.912 395.193C350.839 392.479 348.12 391.802 338.615 387.047C309.417 370.073 286.328 342.906 274.11 311.672C273.427 308.958 270.031 307.599 267.318 308.958C264.599 309.635 263.245 313.031 264.599 315.745C265.958 318.464 266.641 321.177 267.995 323.896C241.516 346.984 204.172 347.661 183.797 345.625C151.208 342.906 119.292 331.365 78.5522 325.255C64.2918 323.219 51.3908 321.177 39.172 315.745C26.9481 310.313 12.6876 298.094 12.0106 281.115C11.3283 270.932 16.7606 260.745 22.1928 251.24C49.3543 203.703 88.7397 162.964 126.761 124.26C151.886 98.4531 178.365 70.6146 204.172 44.8125C212.995 35.9844 235.406 33.9479 248.985 29.8698L303.307 14.2552C318.245 10.1771 322.995 11.5365 327.073 29.1927C337.255 69.9323 337.255 69.9323 336.578 72.6511C335.219 76.724 327.75 78.0833 323.677 78.0833C312.13 78.7604 299.229 79.4427 293.12 69.2552C297.875 68.5781 302.625 67.8958 307.38 65.8594C314.849 63.1458 316.886 57.7136 314.172 50.2448C310.776 40.7344 307.38 35.9844 291.761 30.5521C289.724 29.8698 287.688 30.5521 286.328 31.9063C282.932 35.3021 278.182 38.0208 274.11 39.3802C271.391 40.0573 270.031 42.7708 270.714 45.4896C271.391 48.2031 274.11 49.5625 276.823 48.8854C282.255 47.5261 287.011 44.8125 291.083 41.4167C301.266 44.8125 301.948 47.5261 304.662 53.6354C304.662 54.3177 305.344 55.6771 305.344 55.6771C305.344 55.6771 304.662 56.3542 303.307 56.3542C299.912 57.7136 295.839 58.3906 291.761 59.0677C295.839 52.9583 287.011 47.5261 283.615 52.9583C276.823 63.1458 282.932 78.0833 293.797 83.5156C299.912 86.9115 306.021 87.5886 312.813 88.2708C313.49 88.2708 313.49 88.9479 314.172 88.9479C316.886 90.3073 318.245 93.7031 317.563 96.4167C316.886 99.1354 313.49 101.849 310.776 101.172C307.38 101.172 303.985 98.4531 299.912 96.4167C290.406 90.9844 278.86 90.3073 267.995 88.2708C246.948 84.875 244.912 80.7969 236.761 74.6875C232.011 70.6146 228.615 67.8958 228.615 64.5C228.615 61.7865 226.578 59.0677 223.86 59.0677C221.146 59.0677 219.11 61.1094 218.427 63.8229C218.427 65.1823 218.427 66.5417 219.11 67.2188C219.11 73.3281 223.86 78.7604 227.932 82.8386C228.615 83.5156 229.974 84.1927 230.651 84.875C184.479 115.432 167.505 169.073 152.563 221.359V222.719C144.417 229.51 136.266 237.656 130.839 248.521C129.479 251.24 130.839 253.953 132.875 255.313C135.589 256.672 138.307 255.313 139.662 253.276C157.318 220 208.922 200.313 245.589 209.818C265.958 214.568 282.932 228.828 289.724 246.484C290.406 249.203 293.797 250.557 296.516 249.203C299.229 248.521 300.589 245.125 299.229 242.411C293.12 227.474 281.578 214.568 265.958 206.422C297.875 176.542 344.047 175.188 376.641 199.63Z" fill="white"/>
</g>
</svg>
