<svg width="415" height="433" viewBox="0 0 415 433" fill="none" xmlns="http://www.w3.org/2000/svg">
<path d="M234.234 91.4375C234.234 76.8594 222.411 65.0469 207.823 65.0469C193.234 65.0469 181.38 76.8594 181.38 91.4375C181.38 106.021 193.234 117.833 207.823 117.833C222.411 117.833 234.234 106.021 234.234 91.4375Z" fill="white"/>
<mask id="mask0_5_52" style="mask-type:luminance" maskUnits="userSpaceOnUse" x="0" y="0" width="415" height="433">
<path d="M0.333252 0.484375H415V432.484H0.333252V0.484375Z" fill="white"/>
</mask>
<g mask="url(#mask0_5_52)">
<path d="M411.505 419.188H385.703C384.052 419.188 382.765 417.87 382.765 416.25V8.24479C382.765 3.95833 379.286 0.484375 375 0.484375H351.828C347.573 0.484375 344.099 3.95833 344.099 8.24479V27.2135H71.5155V8.24479C71.5155 3.95833 68.0728 0.484375 63.7811 0.484375H40.6144C36.3228 0.484375 32.88 3.95833 32.88 8.24479V416.25C32.88 417.87 31.5259 419.188 29.9061 419.188H4.104C2.48421 419.188 1.1665 420.5 1.1665 422.12V429.547C1.1665 431.167 2.48421 432.484 4.104 432.484H80.5311C82.1561 432.484 83.4686 431.167 83.4686 429.547V422.12C83.4686 420.5 82.1561 419.188 80.5311 419.188H74.453C72.8332 419.188 71.5155 417.87 71.5155 416.25V38.6198H344.099V416.25C344.099 417.87 342.781 419.188 341.156 419.188H335.078C333.458 419.188 332.14 420.5 332.14 422.12V429.547C332.14 431.167 333.458 432.484 335.078 432.484H411.505C413.13 432.484 414.448 431.167 414.448 429.547V422.12C414.448 420.5 413.13 419.188 411.505 419.188Z" fill="white"/>
</g>
<path d="M137.406 14.9271C132.375 15.1302 129.031 18.7396 127.344 23.1614H148.448C146.729 18.776 143.115 15.5364 137.406 14.9271Z" fill="white"/>
<path d="M278.208 14.9271C272.463 14.2552 268.005 18.0677 266.349 23.1614H288.271C286.583 18.7396 283.24 15.1302 278.208 14.9271Z" fill="white"/>
<path d="M263.448 81.1094C263.344 83.1719 262.635 85.1302 261.385 86.75L234.333 121.677H181.276L154.224 86.75C152.974 85.1302 152.266 83.1719 152.167 81.1094L150.677 42.6354H126.328L127.917 83.2031C128.151 89.5469 130.38 95.6563 134.302 100.688L174.255 152.359C174.589 152.797 175.099 152.964 175.469 153.339L179.083 217.359L158.682 343.047C157.333 351.313 162.974 359.146 171.281 360.458C172.057 360.594 172.901 360.661 173.714 360.661C181.005 360.661 187.49 355.365 188.708 347.87L206.505 238.219H209.104L226.906 347.87C228.12 355.365 234.573 360.661 241.901 360.661C242.708 360.661 243.521 360.594 244.333 360.458C252.672 359.146 258.281 351.313 256.927 343.047L236.531 217.359L240.146 153.339C240.516 152.964 241.021 152.797 241.359 152.359L281.349 100.688C285.229 95.6563 287.458 89.5469 287.698 83.2031L289.318 42.6354H264.932L263.448 81.1094Z" fill="white"/>
</svg>
