<svg width="490" height="433" viewBox="0 0 490 433" fill="none" xmlns="http://www.w3.org/2000/svg">
<mask id="mask0_5_53" style="mask-type:luminance" maskUnits="userSpaceOnUse" x="104" y="216" width="244" height="217">
<path d="M104 216H348V432.484H104V216Z" fill="white"/>
</mask>
<g mask="url(#mask0_5_53)">
<path d="M311.063 242.526L265.057 221.271C237.094 208.344 201.734 222.026 176.198 252.359L136.047 230.401C127.135 226.255 114.589 233.844 108.63 246.703C107.188 249.682 106.208 252.807 105.698 256.078C105.182 259.344 105.161 262.62 105.63 265.896C105.75 267.146 106.021 268.365 106.438 269.547C106.854 270.729 107.406 271.844 108.094 272.896C108.776 273.948 109.578 274.901 110.495 275.755C111.411 276.615 112.417 277.349 113.51 277.964L150.688 298.339C135.302 344.781 146.849 391.229 179.63 406.339L225.625 427.583C232.922 430.938 240.589 432.599 248.62 432.563C255.234 432.412 261.708 431.385 268.047 429.479C274.38 427.578 280.354 424.87 285.958 421.359C291.255 418.026 296.276 414.318 301.021 410.234C305.76 406.156 310.177 401.745 314.266 397.005C318.349 392.266 322.063 387.25 325.401 381.958C328.74 376.661 331.672 371.151 334.188 365.422C357.74 314.469 347.365 259.276 311.063 242.526ZM121.089 264.745C120.896 264.297 120.76 263.833 120.688 263.349C120.297 259.781 120.896 256.38 122.49 253.161C123.208 251.313 124.229 249.646 125.557 248.172C126.885 246.698 128.432 245.505 130.198 244.604L166.922 264.708C162.974 270.672 159.5 276.901 156.495 283.391C156.411 283.583 156.339 283.781 156.25 283.974L121.089 264.745ZM170.365 289.844C190.38 246.469 229.974 221.953 258.661 235.177L269.932 240.396C263.177 242.37 256.776 245.161 250.729 248.76C245.432 252.094 240.411 255.797 235.667 259.88C230.927 263.958 226.51 268.37 222.422 273.104C218.339 277.844 214.625 282.859 211.286 288.151C207.948 293.448 205.016 298.958 202.5 304.688C199.776 310.323 197.479 316.125 195.62 322.104C193.76 328.078 192.349 334.161 191.396 340.349C190.438 346.531 189.948 352.755 189.917 359.016C189.885 365.276 190.318 371.505 191.219 377.698C192.411 384.635 194.448 391.318 197.328 397.74L186.125 392.542C157.38 379.255 150.344 333.182 170.365 289.844ZM320.328 359.125C318.13 364.156 315.573 368.995 312.656 373.646C309.74 378.297 306.495 382.703 302.927 386.875C299.354 391.042 295.495 394.922 291.344 398.516C287.198 402.109 282.802 405.375 278.172 408.318C276.516 409.469 274.797 410.521 273.01 411.464C271.224 412.412 269.391 413.24 267.505 413.958C265.615 414.677 263.693 415.276 261.734 415.755C259.771 416.24 257.792 416.599 255.786 416.833C253.781 417.073 251.771 417.188 249.75 417.177C247.734 417.167 245.724 417.031 243.719 416.771C241.719 416.516 239.74 416.135 237.781 415.635C235.828 415.135 233.911 414.516 232.031 413.776C230.25 412.823 228.536 411.76 226.885 410.594C225.24 409.427 223.667 408.167 222.172 406.807C220.677 405.448 219.271 404 217.958 402.469C216.641 400.938 215.422 399.328 214.302 397.646C213.188 395.964 212.172 394.224 211.271 392.417C210.365 390.609 209.573 388.755 208.896 386.849C208.219 384.948 207.661 383.005 207.224 381.036C206.786 379.063 206.469 377.073 206.276 375.057C205.51 369.625 205.146 364.161 205.188 358.667C205.229 353.177 205.677 347.719 206.531 342.297C207.385 336.875 208.635 331.542 210.286 326.307C211.932 321.068 213.958 315.979 216.359 311.042C218.557 306.01 221.109 301.172 224.026 296.521C226.943 291.87 230.188 287.458 233.76 283.292C237.333 279.125 241.193 275.245 245.339 271.651C249.49 268.057 253.88 264.792 258.516 261.854C262.948 259.057 267.667 256.891 272.677 255.365C277.688 253.833 282.813 252.99 288.047 252.839C293.833 252.802 299.354 253.984 304.615 256.38C333.313 269.635 340.349 315.708 320.328 359.125Z" fill="white"/>
</g>
<path d="M127.307 333.703C124.344 335.234 121.245 336.422 118.021 337.276C114.792 338.125 111.51 338.62 108.177 338.755C104.844 338.885 101.536 338.662 98.25 338.073C94.9636 337.484 91.7813 336.547 88.7031 335.26C72.125 327.599 62.0365 308.01 61.7188 282.844C61.7136 282.344 61.6563 281.854 61.5521 281.365C61.4531 280.88 61.3021 280.406 61.1094 279.948C60.9115 279.49 60.6771 279.057 60.3958 278.646C60.1146 278.234 59.8021 277.854 59.4479 277.505C59.0938 277.156 58.7083 276.844 58.2917 276.568C57.8802 276.297 57.4427 276.063 56.9792 275.875C56.5208 275.688 56.0469 275.542 55.5573 275.448C55.0729 275.349 54.5781 275.302 54.0833 275.302H53.9792C53.4792 275.307 52.9844 275.365 52.4896 275.469C52 275.573 51.5261 275.724 51.0625 275.922C50.6042 276.12 50.1667 276.365 49.7552 276.646C49.3386 276.932 48.9583 277.25 48.6094 277.615C48.2604 277.974 47.9479 278.359 47.6719 278.781C47.4011 279.203 47.1719 279.646 46.9844 280.115C46.8021 280.578 46.6615 281.057 46.5729 281.552C46.4792 282.047 46.4375 282.542 46.4427 283.047C46.4583 289.281 47.1094 295.453 48.4011 301.552C49.6875 307.656 51.5886 313.557 54.099 319.266L42.6979 314.01C40.9167 313.052 39.2031 311.995 37.5521 310.828C35.9011 309.662 34.3333 308.396 32.8386 307.037C31.3438 305.677 29.9375 304.234 28.6198 302.703C27.3021 301.167 26.0886 299.563 24.9688 297.88C23.849 296.198 22.8333 294.453 21.9323 292.646C21.0261 290.839 20.2344 288.984 19.5573 287.083C18.8802 285.177 18.3229 283.24 17.8854 281.266C17.4427 279.297 17.125 277.302 16.9323 275.292C16.1667 269.854 15.8021 264.391 15.849 258.901C15.8906 253.412 16.3438 247.953 17.1979 242.531C18.0521 237.104 19.3021 231.776 20.9479 226.537C22.599 221.302 24.6198 216.214 27.0261 211.276C29.224 206.245 31.7761 201.406 34.6927 196.755C37.6094 192.104 40.8542 187.693 44.4271 183.526C48 179.359 51.8594 175.479 56.0104 171.885C60.1563 168.292 64.5469 165.026 69.1823 162.083C70.8386 160.932 72.5573 159.885 74.3438 158.943C76.1302 158 77.9636 157.167 79.849 156.453C81.7344 155.734 83.6563 155.135 85.6198 154.656C87.5781 154.172 89.5573 153.813 91.5625 153.578C93.5677 153.339 95.5781 153.224 97.5938 153.234C99.6146 153.245 101.625 153.375 103.625 153.63C105.625 153.885 107.604 154.266 109.563 154.766C111.516 155.266 113.432 155.88 115.313 156.615C115.464 156.693 115.62 156.76 115.781 156.818L126.849 161.911C123.078 163.255 119.385 164.792 115.776 166.521C112.161 168.25 108.651 170.167 105.24 172.26C101.823 174.354 98.5313 176.625 95.3542 179.063C92.1771 181.5 89.1354 184.099 86.2292 186.854C83.3229 189.609 80.5677 192.51 77.9636 195.552C75.3594 198.594 72.9219 201.766 70.6458 205.063C68.375 208.359 66.2761 211.766 64.3594 215.281C62.4375 218.797 60.7083 222.406 59.1615 226.099C54.6979 235.714 51.3646 245.708 49.1615 256.078C49.0573 256.568 49.0052 257.063 49 257.563C48.9896 258.068 49.0365 258.563 49.125 259.057C49.2188 259.552 49.3542 260.031 49.5417 260.495C49.7292 260.958 49.9583 261.406 50.2292 261.823C50.5052 262.245 50.8177 262.635 51.1667 262.995C51.5156 263.354 51.8958 263.672 52.3125 263.958C52.724 264.24 53.1615 264.484 53.6198 264.682C54.0833 264.88 54.5573 265.031 55.0469 265.135C55.5781 265.245 56.1094 265.297 56.6458 265.297C57.5208 265.297 58.3698 265.151 59.1927 264.854C60.0208 264.563 60.7708 264.141 61.4479 263.589C62.125 263.037 62.6927 262.385 63.1511 261.641C63.6042 260.891 63.9219 260.089 64.099 259.234C66.0729 249.99 69.0469 241.083 73.0208 232.51C93.0417 189.146 132.646 164.573 161.318 177.859C163.177 178.865 164.964 179.984 166.677 181.219C168.396 182.448 170.026 183.787 171.573 185.224C173.12 186.667 174.568 188.198 175.917 189.818C177.271 191.443 178.516 193.146 179.656 194.927C180.792 196.708 181.813 198.552 182.714 200.464C183.62 202.375 184.401 204.333 185.052 206.339C185.708 208.349 186.234 210.391 186.635 212.469C187.031 214.542 187.297 216.635 187.427 218.745C187.5 219.24 187.62 219.724 187.786 220.198C187.953 220.672 188.167 221.125 188.422 221.557C188.677 221.99 188.974 222.391 189.307 222.766C189.646 223.135 190.01 223.474 190.411 223.776C190.818 224.073 191.245 224.333 191.693 224.552C192.146 224.766 192.615 224.938 193.104 225.063C193.589 225.188 194.083 225.26 194.583 225.287C195.083 225.313 195.583 225.292 196.078 225.219C196.578 225.146 197.063 225.031 197.531 224.859C198.005 224.693 198.458 224.484 198.891 224.229C199.323 223.969 199.724 223.677 200.099 223.339C200.469 223.005 200.807 222.635 201.104 222.234C201.406 221.833 201.667 221.406 201.88 220.953C202.099 220.5 202.271 220.031 202.391 219.542C202.516 219.057 202.594 218.563 202.62 218.063C202.646 217.563 202.62 217.063 202.552 216.563C202.323 213.828 201.922 211.115 201.354 208.432C200.786 205.745 200.052 203.104 199.151 200.51C198.25 197.917 197.193 195.391 195.974 192.932C194.755 190.469 193.391 188.094 191.875 185.807C190.359 183.516 188.708 181.333 186.917 179.25C185.125 177.172 183.214 175.208 181.177 173.37C179.141 171.531 176.995 169.823 174.745 168.25C172.495 166.682 170.156 165.255 167.724 163.979L121.74 142.719C121.573 142.635 121.401 142.568 121.229 142.505C118.802 141.531 116.328 140.708 113.802 140.036C111.276 139.365 108.719 138.854 106.13 138.495C103.542 138.135 100.943 137.938 98.3281 137.901C95.7136 137.859 93.1094 137.979 90.5104 138.255C87.9115 138.536 85.3438 138.974 82.7969 139.563C80.25 140.156 77.75 140.906 75.2969 141.802C72.8438 142.703 70.4531 143.745 68.1302 144.938C65.8021 146.13 63.5573 147.458 61.3906 148.922C56.099 152.255 51.0781 155.958 46.3333 160.042C41.5938 164.12 37.1771 168.531 33.0938 173.271C29.0052 178.01 25.2917 183.026 21.9531 188.318C18.6146 193.609 15.6823 199.12 13.1667 204.849C-10.3906 255.943 -0.0208206 311.115 36.2917 327.896L82.2969 349.141C89.5729 352.464 97.2031 354.099 105.198 354.052C115.104 353.938 124.552 351.807 133.552 347.662C134.01 347.458 134.443 347.208 134.849 346.917C135.26 346.63 135.635 346.302 135.984 345.938C136.328 345.573 136.63 345.177 136.901 344.75C137.167 344.328 137.391 343.88 137.568 343.412C137.745 342.943 137.88 342.458 137.964 341.964C138.047 341.469 138.083 340.969 138.068 340.469C138.052 339.969 137.99 339.469 137.88 338.979C137.766 338.49 137.609 338.021 137.406 337.563C137.198 337.104 136.953 336.667 136.661 336.26C136.37 335.849 136.042 335.474 135.677 335.125C135.313 334.781 134.922 334.474 134.495 334.208C134.068 333.943 133.625 333.719 133.156 333.542C132.688 333.359 132.203 333.229 131.708 333.146C131.214 333.063 130.719 333.026 130.214 333.042C129.714 333.052 129.219 333.115 128.729 333.229C128.24 333.339 127.766 333.5 127.307 333.703Z" fill="white"/>
<mask id="mask1_5_53" style="mask-type:luminance" maskUnits="userSpaceOnUse" x="228" y="0" width="262" height="350">
<path d="M228 0.484375H489.333V349.333H228V0.484375Z" fill="white"/>
</mask>
<g mask="url(#mask1_5_53)">
<path d="M476.271 38.2709C474.432 35.375 472.417 32.6042 470.224 29.9636C468.036 27.3177 465.687 24.823 463.182 22.474C460.677 20.1302 458.036 17.948 455.26 15.9323C452.479 13.9167 449.583 12.0886 446.573 10.4375C443.562 8.7865 440.463 7.33337 437.271 6.07816C434.078 4.81774 430.818 3.76566 427.495 2.9167C424.167 2.07295 420.802 1.43754 417.396 1.01045C413.99 0.588579 410.573 0.385452 407.141 0.390662H310.656C308.943 0.390662 307.229 0.447955 305.521 0.55212C303.812 0.661496 302.104 0.822954 300.406 1.03649C298.703 1.25004 297.016 1.51566 295.333 1.83858C293.646 2.1615 291.974 2.53129 290.318 2.95837C288.656 3.38024 287.01 3.85941 285.38 4.38545C283.75 4.9167 282.141 5.49483 280.547 6.12504C278.953 6.75525 277.38 7.43233 275.828 8.1615C274.281 8.89066 272.75 9.6667 271.25 10.4896C269.745 11.3125 268.271 12.1823 266.823 13.099C265.375 14.0157 263.958 14.974 262.568 15.9792C261.182 16.9844 259.828 18.0313 258.505 19.1198C257.182 20.2136 255.896 21.3438 254.646 22.5157C253.391 23.6823 252.177 24.8907 251.005 26.1407C249.828 27.3855 248.693 28.6667 247.594 29.9844C246.5 31.3021 245.448 32.6563 244.437 34.0417C243.427 35.4219 242.458 36.8386 241.536 38.2813C240.615 39.7292 239.74 41.198 238.906 42.698C238.078 44.198 237.297 45.724 236.557 47.2709C235.823 48.8177 235.141 50.3907 234.505 51.9792C233.865 53.573 233.281 55.1823 232.745 56.8125C232.208 58.4375 231.724 60.0834 231.292 61.7396C230.859 63.4011 230.479 65.073 230.151 66.7552C229.823 68.4375 229.547 70.125 229.328 71.8282C229.104 73.5261 228.932 75.2292 228.818 76.9427C228.703 78.6511 228.641 80.3646 228.635 82.0782C228.625 83.7917 228.672 85.5053 228.771 87.2188C228.87 88.9271 229.021 90.6355 229.229 92.3386C229.432 94.0365 229.693 95.7292 230.005 97.4167C230.318 99.1042 230.682 100.776 231.099 102.438C231.516 104.104 231.984 105.75 232.505 107.385C233.021 109.016 233.594 110.63 234.213 112.229C234.838 113.828 235.505 115.406 236.224 116.958L261.979 172.578C256.104 180.641 251.297 189.297 247.573 198.552C247.396 199.016 247.266 199.49 247.187 199.979C247.104 200.469 247.068 200.958 247.083 201.453C247.094 201.948 247.156 202.438 247.266 202.922C247.375 203.401 247.526 203.87 247.724 204.323C247.927 204.776 248.167 205.208 248.448 205.615C248.734 206.021 249.052 206.396 249.406 206.74C249.76 207.083 250.146 207.391 250.562 207.662C250.979 207.927 251.417 208.156 251.875 208.339C252.333 208.526 252.807 208.662 253.292 208.755C253.781 208.849 254.271 208.891 254.766 208.885C255.26 208.885 255.75 208.833 256.234 208.734C256.719 208.635 257.187 208.495 257.646 208.302C258.104 208.115 258.536 207.88 258.948 207.604C259.365 207.333 259.745 207.021 260.094 206.672C260.448 206.323 260.76 205.943 261.036 205.537C261.318 205.125 261.552 204.693 261.745 204.234C265.432 195.063 270.312 186.578 276.391 178.787C276.474 178.688 276.552 178.583 276.625 178.479C283.422 169.802 291.406 162.401 300.573 156.276C300.635 156.276 300.667 156.198 300.724 156.177C302.172 155.224 303.641 154.302 305.135 153.422C306.625 152.542 308.141 151.698 309.672 150.896C311.208 150.089 312.76 149.323 314.333 148.594C315.906 147.865 317.495 147.177 319.104 146.531C320.708 145.88 322.333 145.271 323.969 144.703C325.604 144.135 327.255 143.609 328.917 143.125C330.583 142.641 332.255 142.198 333.943 141.792C335.625 141.391 337.323 141.031 339.026 140.714C340.729 140.396 342.437 140.125 344.156 139.891C345.875 139.662 347.594 139.469 349.323 139.323C351.047 139.177 352.776 139.073 354.51 139.016C356.24 138.953 357.974 138.938 359.703 138.964C361.437 138.995 363.167 139.063 364.896 139.177C366.625 139.287 368.349 139.443 370.073 139.641C371.792 139.844 373.505 140.083 375.219 140.37C376.927 140.651 378.625 140.979 380.318 141.349C382.01 141.719 383.693 142.13 385.365 142.583C387.036 143.037 388.698 143.531 390.349 144.068C391.995 144.604 393.625 145.182 395.245 145.797C396.865 146.417 398.469 147.073 400.052 147.771C401.641 148.469 403.208 149.208 404.755 149.984C406.307 150.76 407.833 151.573 409.344 152.427C410.854 153.276 412.338 154.167 413.802 155.094C415.271 156.021 416.708 156.979 418.125 157.979C419.542 158.979 420.932 160.01 422.297 161.078C423.661 162.146 425 163.245 426.312 164.38C427.62 165.516 428.901 166.682 430.156 167.88C431.406 169.078 432.625 170.307 433.818 171.568C435.01 172.828 436.167 174.115 437.292 175.432C438.422 176.75 439.516 178.094 440.573 179.464C441.635 180.833 442.656 182.234 443.646 183.656C444.635 185.078 445.594 186.526 446.51 187.995C447.427 189.464 448.307 190.958 449.151 192.474C449.995 193.984 450.802 195.521 451.568 197.073C452.333 198.63 453.062 200.203 453.75 201.792C454.437 203.385 455.088 204.99 455.698 206.615C456.307 208.234 456.875 209.875 457.401 211.526C457.927 213.177 458.411 214.839 458.854 216.516C459.302 218.193 459.703 219.875 460.062 221.573C460.422 223.271 460.74 224.974 461.016 226.682C461.292 228.396 461.521 230.115 461.713 231.833C461.901 233.557 462.047 235.287 462.151 237.016C462.255 238.745 462.318 240.479 462.333 242.214C462.349 243.948 462.323 245.677 462.255 247.412C462.187 249.141 462.073 250.87 461.917 252.599C461.76 254.323 461.562 256.047 461.323 257.766C461.083 259.479 460.797 261.188 460.474 262.891C460.146 264.594 459.776 266.287 459.365 267.974C458.953 269.656 458.5 271.328 458.01 272.99C457.516 274.651 456.979 276.302 456.401 277.938C455.828 279.568 455.208 281.188 454.552 282.792C453.896 284.396 453.198 285.984 452.463 287.552C451.729 289.125 450.953 290.672 450.141 292.203C449.323 293.734 448.474 295.245 447.583 296.729C446.698 298.219 445.771 299.688 444.812 301.125C443.849 302.568 442.854 303.984 441.818 305.38C440.786 306.771 439.719 308.135 438.62 309.474C437.521 310.813 436.385 312.125 435.224 313.406C434.057 314.693 432.859 315.943 431.63 317.167C430.401 318.391 429.146 319.578 427.859 320.74C426.573 321.901 425.255 323.026 423.911 324.125C422.568 325.219 421.198 326.276 419.802 327.302C418.406 328.328 416.984 329.318 415.536 330.276C414.094 331.229 412.625 332.151 411.13 333.031H358.87C358.37 333.031 357.875 333.078 357.38 333.177C356.891 333.276 356.411 333.422 355.948 333.615C355.484 333.807 355.047 334.042 354.63 334.318C354.213 334.599 353.828 334.917 353.469 335.271C353.115 335.625 352.802 336.01 352.521 336.427C352.245 336.844 352.005 337.287 351.818 337.75C351.625 338.214 351.479 338.688 351.38 339.182C351.281 339.672 351.234 340.172 351.234 340.672C351.234 341.172 351.281 341.672 351.38 342.161C351.479 342.656 351.625 343.135 351.818 343.599C352.005 344.063 352.245 344.5 352.521 344.917C352.802 345.333 353.115 345.719 353.469 346.078C353.828 346.432 354.213 346.75 354.63 347.026C355.047 347.307 355.484 347.542 355.948 347.734C356.411 347.927 356.891 348.068 357.38 348.167C357.875 348.266 358.37 348.313 358.87 348.313H413.135C414.474 348.302 415.719 347.964 416.875 347.297C418.703 346.276 420.5 345.203 422.271 344.089C424.047 342.974 425.786 341.813 427.495 340.604C429.208 339.396 430.885 338.141 432.526 336.844C434.172 335.552 435.781 334.208 437.354 332.828C438.927 331.448 440.463 330.026 441.963 328.563C443.463 327.104 444.922 325.599 446.338 324.063C447.76 322.521 449.141 320.948 450.474 319.333C451.812 317.724 453.104 316.078 454.354 314.396C455.604 312.714 456.812 311.005 457.969 309.26C459.13 307.516 460.245 305.745 461.307 303.943C462.375 302.141 463.396 300.307 464.365 298.453C465.333 296.599 466.255 294.719 467.125 292.813C467.995 290.906 468.818 288.979 469.583 287.031C470.354 285.083 471.073 283.12 471.74 281.13C472.406 279.146 473.016 277.146 473.578 275.125C474.141 273.109 474.646 271.078 475.099 269.031C475.552 266.984 475.953 264.932 476.297 262.865C476.641 260.797 476.932 258.724 477.167 256.646C477.401 254.563 477.583 252.479 477.708 250.385C477.833 248.297 477.906 246.203 477.922 244.109C477.937 242.016 477.896 239.922 477.802 237.828C477.708 235.734 477.557 233.646 477.354 231.563C477.151 229.479 476.891 227.401 476.578 225.328C476.26 223.26 475.896 221.198 475.469 219.146C475.047 217.094 474.573 215.057 474.042 213.031C473.51 211.005 472.927 208.995 472.292 206.995C471.656 205 470.969 203.026 470.229 201.063C469.49 199.104 468.698 197.167 467.854 195.25C467.01 193.333 466.12 191.438 465.177 189.568C464.234 187.698 463.245 185.854 462.203 184.037C461.167 182.219 460.078 180.427 458.943 178.667C457.812 176.906 456.63 175.177 455.406 173.474L481.578 116.948C483.026 113.839 484.276 110.646 485.323 107.38C486.37 104.109 487.208 100.787 487.838 97.4115C488.463 94.0365 488.88 90.6355 489.078 87.2084C489.281 83.7813 489.266 80.3542 489.036 76.9271C488.802 73.5052 488.359 70.1042 487.698 66.7344C487.042 63.3698 486.172 60.0521 485.099 56.7917C484.021 53.5313 482.745 50.3542 481.266 47.2552C479.792 44.1563 478.125 41.1615 476.271 38.2709ZM467.719 110.531L444.604 160.453C439.995 155.672 435.026 151.302 429.693 147.344L450.437 102.51C450.859 101.609 451.245 100.693 451.609 99.7605C451.969 98.8334 452.302 97.8907 452.604 96.9428C452.906 95.9948 453.182 95.0365 453.422 94.0678C453.667 93.099 453.875 92.125 454.057 91.1459C454.24 90.1667 454.391 89.1823 454.51 88.1928C454.63 87.2032 454.719 86.2084 454.776 85.2136C454.833 84.2188 454.859 83.2188 454.854 82.224C454.854 81.2292 454.818 80.2292 454.75 79.2344C454.682 78.2396 454.583 77.25 454.453 76.2605C454.323 75.2709 454.167 74.2865 453.974 73.3073C453.781 72.3334 453.562 71.3594 453.312 70.3959C453.057 69.4323 452.776 68.474 452.463 67.5261C452.151 66.5782 451.812 65.6459 451.443 64.7188C451.073 63.7917 450.672 62.8802 450.245 61.9792C449.818 61.0782 449.365 60.1927 448.88 59.3177C448.396 58.448 447.885 57.5886 447.349 56.75C446.812 55.9115 446.25 55.0886 445.661 54.2813C445.073 53.4792 444.463 52.6927 443.823 51.9271C443.187 51.1615 442.526 50.4115 441.844 49.6875C441.156 48.9636 440.453 48.2605 439.724 47.5782C438.995 46.9011 438.245 46.2396 437.479 45.6094C436.708 44.974 435.922 44.3646 435.115 43.7813C434.307 43.198 433.479 42.6407 432.635 42.1042C431.797 41.573 430.937 41.0677 430.062 40.5886C429.187 40.1094 428.302 39.6615 427.396 39.2344C426.495 38.8125 425.578 38.4167 424.651 38.0521C423.724 37.6875 422.786 37.349 421.838 37.0417C420.891 36.7396 419.937 36.4584 418.969 36.2136C418.005 35.9688 417.031 35.75 416.052 35.5625C415.073 35.3802 414.088 35.224 413.099 35.099C412.115 34.974 411.12 34.8802 410.125 34.8177C409.13 34.7552 408.135 34.7292 407.141 34.7292H397.568C397.068 34.7292 396.568 34.7761 396.078 34.875C395.583 34.974 395.109 35.1146 394.646 35.3073C394.182 35.5 393.74 35.7344 393.323 36.0157C392.906 36.2917 392.521 36.6094 392.167 36.9636C391.812 37.3177 391.495 37.7084 391.219 38.125C390.937 38.5417 390.703 38.9792 390.51 39.4427C390.318 39.9063 390.177 40.3855 390.078 40.8802C389.979 41.3698 389.932 41.8646 389.932 42.3698C389.932 42.8698 389.979 43.3698 390.078 43.8594C390.177 44.349 390.318 44.8282 390.51 45.2917C390.703 45.7552 390.937 46.198 391.219 46.6146C391.495 47.0313 391.812 47.4167 392.167 47.7709C392.521 48.125 392.906 48.4427 393.323 48.724C393.74 49 394.182 49.2344 394.646 49.4271C395.109 49.6198 395.583 49.7657 396.078 49.8646C396.568 49.9636 397.068 50.0105 397.568 50.0105H407.109C407.786 50.0105 408.463 50.0313 409.141 50.073C409.818 50.1146 410.49 50.1771 411.161 50.2605C411.838 50.3438 412.505 50.4532 413.172 50.5782C413.838 50.7032 414.5 50.849 415.156 51.0157C415.812 51.1875 416.463 51.375 417.109 51.5834C417.75 51.7917 418.391 52.0209 419.021 52.2657C419.651 52.5157 420.276 52.7865 420.885 53.073C421.5 53.3594 422.104 53.6667 422.698 53.9896C423.297 54.3177 423.88 54.6615 424.453 55.0209C425.026 55.3855 425.583 55.7657 426.135 56.1615C426.682 56.5573 427.219 56.974 427.745 57.4063C428.266 57.8334 428.776 58.2813 429.271 58.7448C429.766 59.2084 430.245 59.6875 430.713 60.1771C431.177 60.6719 431.625 61.1823 432.057 61.7032C432.495 62.224 432.911 62.7552 433.312 63.3021C433.708 63.849 434.094 64.4115 434.458 64.9844C434.823 65.5521 435.167 66.1355 435.5 66.7292C435.828 67.323 436.135 67.9271 436.427 68.5365C436.719 69.1511 436.99 69.7709 437.24 70.4011C437.49 71.0313 437.724 71.6667 437.937 72.3125C438.146 72.9532 438.338 73.6042 438.51 74.2605C438.682 74.9167 438.833 75.5782 438.958 76.2448C439.088 76.9115 439.198 77.5782 439.286 78.25C439.375 78.9219 439.443 79.599 439.484 80.2761C439.531 80.9532 439.557 81.6302 439.557 82.3073C439.562 82.9844 439.542 83.6615 439.505 84.3386C439.463 85.0157 439.406 85.6928 439.323 86.3646C439.24 87.0365 439.141 87.7084 439.016 88.375C438.891 89.0417 438.745 89.7032 438.583 90.3594C438.417 91.0209 438.229 91.6719 438.026 92.3178C437.818 92.9636 437.594 93.599 437.344 94.2344C437.099 94.8646 436.833 95.4896 436.547 96.1042L416.792 138.844C412.391 136.37 407.844 134.182 403.161 132.287C398.479 130.385 393.698 128.792 388.812 127.5C383.927 126.214 378.979 125.234 373.969 124.573C368.958 123.912 363.932 123.568 358.88 123.547C353.828 123.526 348.792 123.823 343.776 124.438C338.766 125.057 333.807 125.984 328.911 127.234C324.016 128.479 319.219 130.031 314.516 131.885C309.818 133.745 305.255 135.891 300.828 138.328L281.276 96.1042C280.99 95.4896 280.724 94.8646 280.479 94.2344C280.234 93.6042 280.005 92.9636 279.802 92.3178C279.594 91.6719 279.411 91.0209 279.245 90.3646C279.078 89.7032 278.932 89.0417 278.812 88.375C278.687 87.7084 278.583 87.0417 278.5 86.3646C278.422 85.6928 278.359 85.0209 278.323 84.3438C278.281 83.6667 278.26 82.9896 278.266 82.3073C278.271 81.6302 278.292 80.9532 278.338 80.2761C278.385 79.599 278.448 78.9271 278.536 78.2552C278.625 77.5834 278.734 76.9115 278.865 76.25C278.995 75.5834 279.146 74.9219 279.312 74.2657C279.484 73.6094 279.677 72.9584 279.891 72.3177C280.099 71.6719 280.333 71.0365 280.583 70.4063C280.833 69.7761 281.104 69.1563 281.396 68.5417C281.687 67.9271 281.995 67.3282 282.323 66.7344C282.651 66.1407 283 65.5573 283.365 64.9844C283.729 64.4167 284.109 63.8542 284.51 63.3073C284.911 62.7605 285.328 62.2292 285.76 61.7032C286.193 61.1823 286.646 60.6771 287.109 60.1823C287.573 59.6927 288.052 59.2136 288.547 58.75C289.047 58.2865 289.552 57.8386 290.078 57.4115C290.599 56.9792 291.135 56.5625 291.682 56.1667C292.234 55.7709 292.797 55.3907 293.37 55.0261C293.943 54.6667 294.526 54.323 295.12 53.9948C295.713 53.6719 296.318 53.3646 296.932 53.073C297.542 52.7865 298.167 52.5209 298.797 52.2709C299.427 52.0209 300.062 51.7917 300.708 51.5834C301.354 51.375 302.005 51.1875 302.661 51.0209C303.318 50.8542 303.979 50.7032 304.646 50.5782C305.312 50.4532 305.979 50.349 306.651 50.2605C307.323 50.1771 308 50.1146 308.677 50.073C309.349 50.0313 310.026 50.0105 310.703 50.0105H374.766C375.271 50.0105 375.766 49.9636 376.255 49.8646C376.75 49.7657 377.229 49.6198 377.693 49.4271C378.151 49.2344 378.594 49 379.01 48.724C379.427 48.4427 379.812 48.125 380.167 47.7709C380.521 47.4167 380.838 47.0313 381.12 46.6146C381.396 46.198 381.63 45.7552 381.823 45.2917C382.016 44.8282 382.161 44.349 382.26 43.8594C382.354 43.3698 382.406 42.8698 382.406 42.3698C382.406 41.8646 382.354 41.3698 382.26 40.8802C382.161 40.3855 382.016 39.9063 381.823 39.4427C381.63 38.9792 381.396 38.5417 381.12 38.125C380.838 37.7084 380.521 37.3177 380.167 36.9636C379.812 36.6094 379.427 36.2917 379.01 36.0157C378.594 35.7344 378.151 35.5 377.693 35.3073C377.229 35.1146 376.75 34.974 376.255 34.875C375.766 34.7761 375.271 34.7292 374.766 34.7292H310.656C309.656 34.7292 308.661 34.7605 307.667 34.823C306.672 34.8855 305.682 34.9792 304.693 35.1042C303.703 35.2292 302.719 35.3855 301.74 35.5677C300.76 35.7552 299.792 35.974 298.823 36.2188C297.859 36.4688 296.901 36.7448 295.953 37.0521C295.005 37.3594 294.068 37.698 293.141 38.0625C292.213 38.4271 291.302 38.823 290.401 39.25C289.495 39.6719 288.609 40.125 287.734 40.6042C286.859 41.0834 286.005 41.5886 285.161 42.1198C284.318 42.6511 283.495 43.2136 282.687 43.7969C281.88 44.3802 281.094 44.9896 280.323 45.625C279.552 46.2605 278.807 46.9167 278.078 47.599C277.349 48.2761 276.641 48.9792 275.958 49.7084C275.276 50.4323 274.615 51.1771 273.979 51.9427C273.338 52.7084 272.729 53.4948 272.141 54.3021C271.552 55.1094 270.99 55.9271 270.453 56.7709C269.917 57.6094 269.406 58.4688 268.922 59.3386C268.443 60.2084 267.984 61.099 267.557 62C267.13 62.9011 266.734 63.8125 266.365 64.7396C265.995 65.6615 265.651 66.599 265.338 67.5469C265.031 68.4948 264.75 69.448 264.495 70.4167C264.245 71.3802 264.021 72.349 263.833 73.3282C263.641 74.3073 263.479 75.2917 263.354 76.2813C263.224 77.2709 263.125 78.2605 263.057 79.2552C262.99 80.25 262.953 81.2448 262.948 82.2448C262.943 83.2396 262.974 84.2396 263.031 85.2344C263.088 86.2292 263.177 87.2188 263.297 88.2084C263.417 89.198 263.568 90.1875 263.745 91.1667C263.927 92.1459 264.141 93.1198 264.385 94.0886C264.625 95.0521 264.896 96.0105 265.203 96.9636C265.505 97.9115 265.833 98.8542 266.198 99.7813C266.557 100.708 266.948 101.63 267.365 102.531L287.792 146.641C282.443 150.557 277.458 154.896 272.833 159.651L250.094 110.521C249.51 109.255 248.963 107.974 248.458 106.672C247.948 105.37 247.484 104.057 247.062 102.729C246.635 101.401 246.255 100.057 245.917 98.7032C245.578 97.349 245.281 95.9896 245.026 94.6198C244.771 93.2448 244.557 91.8646 244.391 90.4844C244.224 89.099 244.099 87.7084 244.016 86.3178C243.937 84.9219 243.896 83.5261 243.906 82.1355C243.911 80.7396 243.958 79.3438 244.052 77.9532C244.146 76.5625 244.286 75.1719 244.463 73.7865C244.646 72.4063 244.87 71.0313 245.135 69.6615C245.401 68.2917 245.713 66.9323 246.062 65.5782C246.417 64.2292 246.807 62.8907 247.245 61.5677C247.682 60.2396 248.156 58.9323 248.677 57.6355C249.193 56.3386 249.75 55.0625 250.349 53.8021C250.948 52.5417 251.583 51.3021 252.26 50.0782C252.932 48.8594 253.646 47.6615 254.396 46.4844C255.146 45.3125 255.932 44.1615 256.755 43.0313C257.578 41.9063 258.437 40.8073 259.328 39.7344C260.219 38.6615 261.146 37.6146 262.104 36.6042C263.057 35.5886 264.047 34.6042 265.068 33.6511C266.083 32.698 267.13 31.7761 268.208 30.8907C269.281 30.0052 270.385 29.1511 271.516 28.3334C272.646 27.5157 273.802 26.7344 274.979 25.9896C276.156 25.2448 277.359 24.5365 278.583 23.8646C279.802 23.1927 281.047 22.5625 282.307 21.9688C283.573 21.3802 284.854 20.8282 286.151 20.3125C287.448 19.8021 288.76 19.3334 290.083 18.9011C291.411 18.4688 292.75 18.0834 294.099 17.7396C295.453 17.3907 296.812 17.0886 298.182 16.8282C299.552 16.5677 300.927 16.349 302.312 16.1771C303.698 16 305.083 15.8698 306.474 15.7865C307.865 15.698 309.26 15.6511 310.656 15.6563H407.141C408.536 15.6511 409.927 15.698 411.318 15.7865C412.708 15.8698 414.099 16 415.479 16.1771C416.865 16.349 418.24 16.5677 419.609 16.8282C420.979 17.0886 422.344 17.3907 423.693 17.7396C425.042 18.0834 426.38 18.4688 427.708 18.9011C429.036 19.3282 430.349 19.8021 431.646 20.3125C432.943 20.823 434.219 21.375 435.484 21.9688C436.745 22.5625 437.99 23.1927 439.213 23.8646C440.432 24.5313 441.635 25.2396 442.812 25.9844C443.995 26.7292 445.146 27.5105 446.276 28.3282C447.406 29.1459 448.51 30 449.588 30.8855C450.661 31.7761 451.708 32.6927 452.729 33.6459C453.745 34.599 454.734 35.5834 455.693 36.599C456.651 37.6146 457.573 38.6563 458.463 39.7292C459.359 40.8021 460.213 41.9011 461.036 43.0261C461.859 44.1511 462.646 45.3021 463.396 46.4792C464.151 47.6563 464.865 48.8542 465.536 50.073C466.213 51.2917 466.849 52.5365 467.448 53.7917C468.047 55.0521 468.604 56.3334 469.125 57.625C469.641 58.9219 470.12 60.2344 470.552 61.5573C470.99 62.8855 471.385 64.2188 471.734 65.573C472.088 66.9219 472.396 68.2813 472.667 69.6511C472.932 71.0209 473.156 72.3959 473.338 73.7761C473.516 75.1615 473.656 76.5521 473.75 77.9427C473.844 79.3334 473.896 80.7292 473.901 82.1198C473.906 83.5157 473.87 84.9115 473.786 86.3021C473.708 87.698 473.583 89.0834 473.417 90.4688C473.25 91.8542 473.036 93.2344 472.786 94.6042C472.531 95.9792 472.234 97.3386 471.896 98.6928C471.552 100.047 471.172 101.385 470.75 102.719C470.328 104.047 469.865 105.359 469.354 106.662C468.849 107.964 468.307 109.245 467.719 110.51V110.531Z" fill="white"/>
</g>
</svg>
