<svg width="45" height="21" viewBox="0 0 45 21" fill="none" xmlns="http://www.w3.org/2000/svg">
<mask id="mask0_1_182" style="mask-type:luminance" maskUnits="userSpaceOnUse" x="0" y="0" width="45" height="21">
<path d="M0.46875 0.171875H44.4688V20.1719H0.46875V0.171875Z" fill="white"/>
</mask>
<g mask="url(#mask0_1_182)">
<path d="M43.75 6.59896H42.3281V4.45833C42.3281 4.0625 42.0104 3.74479 41.6198 3.74479H38.0729V0.885417C38.0729 0.489585 37.7552 0.171875 37.3646 0.171875H31.6927C31.2969 0.171875 30.9792 0.489585 30.9792 0.885417V7.3125H13.9583V0.885417C13.9583 0.489585 13.6406 0.171875 13.25 0.171875H7.57813C7.1875 0.171875 6.86979 0.489585 6.86979 0.885417V3.74479H3.32292C2.93229 3.74479 2.61458 4.0625 2.61458 4.45833V6.77604H1.19271C0.802083 6.77604 0.484375 7.09896 0.484375 7.49479V13.026C0.484375 13.4219 0.802083 13.7448 1.19271 13.7448H2.61458V15.8854C2.61458 16.2813 2.93229 16.599 3.32292 16.599H6.86979V19.4583C6.86979 19.8542 7.1875 20.1719 7.57813 20.1719H13.25C13.6406 20.1719 13.9583 19.8542 13.9583 19.4583V13.026H30.9792V19.4583C30.9792 19.8542 31.2969 20.1719 31.6927 20.1719H37.3646C37.7552 20.1719 38.0729 19.8542 38.0729 19.4583V16.599H41.6198C42.0104 16.599 42.3281 16.2813 42.3281 15.8854V13.5625H43.75C44.1406 13.5625 44.4583 13.2448 44.4583 12.849V7.3125C44.4583 6.92187 44.1406 6.59896 43.75 6.59896ZM2.61458 12.3125H1.90104V8.20833H2.61458V12.3125ZM6.86979 15.1719H4.03125V5.17188H6.86979V15.1719ZM12.5417 18.7448H8.28646V1.59896H12.5417V18.7448ZM30.9792 11.599H13.9583V8.74479H30.9792V11.599ZM36.6563 18.7448H32.401V1.59896H36.6563V18.7448ZM40.9115 15.1719H38.0729V5.17188H40.9115V15.1719ZM43.0365 12.1354H42.3281V8.02604H43.0365V12.1354Z" fill="white"/>
</g>
</svg>
