<svg width="434" height="411" viewBox="0 0 434 411" fill="none" xmlns="http://www.w3.org/2000/svg">
<path d="M389.797 52.0416C389.354 51.3645 388.979 50.6562 388.682 49.9062C388.385 49.1562 388.167 48.3854 388.026 47.5937C387.885 46.7968 387.828 46 387.849 45.1927C387.875 44.3854 387.979 43.5937 388.167 42.8073C388.354 42.0208 388.62 41.2656 388.964 40.5364C389.302 39.8073 389.719 39.1198 390.203 38.4739C390.682 37.8281 391.229 37.2395 391.833 36.7083C392.438 36.1718 393.089 35.7083 393.792 35.3073C399.807 32.1354 405.208 29.5208 407.297 31.3541C412.193 35.8698 416.453 40.927 420.073 46.526C423.693 52.1198 426.557 58.0833 428.672 64.401C429.531 66.9531 425.365 71.4896 420.521 76.5C420 77.052 419.422 77.5364 418.787 77.9583C418.151 78.375 417.479 78.7187 416.771 78.9843C416.057 79.25 415.323 79.427 414.568 79.526C413.818 79.6198 413.063 79.6302 412.307 79.5521C411.552 79.4739 410.813 79.3125 410.094 79.0625C409.38 78.8177 408.698 78.4896 408.052 78.0833C407.412 77.6823 406.823 77.2083 406.287 76.6718C405.755 76.1302 405.287 75.5364 404.891 74.8906L389.797 52.0416ZM30.7084 341.203C30.4948 340.865 30.2656 340.542 30.0104 340.229C29.7604 339.917 29.4896 339.625 29.2031 339.344C28.9167 339.068 28.6146 338.807 28.2917 338.568C27.974 338.323 27.6459 338.104 27.2969 337.901C26.9531 337.698 26.599 337.516 26.2292 337.359C25.8646 337.198 25.4896 337.062 25.1042 336.948C24.7188 336.833 24.3334 336.745 23.9375 336.677C23.5417 336.609 23.1459 336.568 22.7448 336.547C22.3438 336.531 21.9479 336.536 21.5469 336.562C21.1511 336.594 20.7552 336.646 20.3594 336.724C19.9688 336.797 19.5834 336.901 19.2031 337.021C18.8177 337.146 18.4479 337.292 18.0834 337.458C17.724 337.625 17.3698 337.818 17.0313 338.026C16.6875 338.24 16.3646 338.469 16.0521 338.719C15.7396 338.969 15.4427 339.234 15.1615 339.521C14.8802 339.802 14.6198 340.104 14.375 340.422C10.3646 345.375 7.16148 349.802 8.12502 352.292C10.5938 358.432 13.7396 364.208 17.5469 369.62C21.3542 375.031 25.7344 379.937 30.6771 384.339C32.2396 385.766 36.8646 383.26 42.0313 380.172C42.6927 379.75 43.3021 379.266 43.8646 378.719C44.4271 378.177 44.9323 377.583 45.3802 376.937C45.8229 376.297 46.2032 375.615 46.5104 374.896C46.8229 374.177 47.0573 373.432 47.2188 372.667C47.3854 371.901 47.4688 371.13 47.4792 370.344C47.4896 369.562 47.4219 368.786 47.2761 368.016C47.1302 367.25 46.9115 366.5 46.6198 365.776C46.3282 365.047 45.9636 364.359 45.5365 363.703L30.7084 341.203ZM88.0729 308.906C77.2813 292.547 66.4844 276.198 55.6771 259.849C37.4948 232.281 37.4948 232.281 12.5469 252.151C-2.03643 263.755 -3.25518 270.974 7.08336 286.708C28.0573 318.641 49.6667 350.099 70.0573 382.453C94.4427 421.146 96.1875 414.568 127.37 390.63C134.995 384.766 135.24 379.687 129.714 371.714C115.495 351.073 101.906 329.885 88.0729 308.922V308.906ZM425.604 122.547C404.875 90.9427 383.547 59.7916 363.302 27.8281C339.375 -9.95316 337.51 -4.77608 305.734 20.1145C305.349 20.3177 304.979 20.5416 304.62 20.7916C304.26 21.0416 303.917 21.3073 303.589 21.5937C303.26 21.8854 302.953 22.1927 302.661 22.5156C302.375 22.8437 302.104 23.1823 301.854 23.5416C301.604 23.901 301.375 24.2708 301.167 24.6562C300.964 25.0416 300.781 25.4375 300.62 25.8437C300.464 26.25 300.328 26.6614 300.219 27.0833C300.109 27.5052 300.026 27.9323 299.964 28.3645C299.906 28.7968 299.875 29.2343 299.865 29.6718C299.859 30.1041 299.88 30.5416 299.922 30.9739C299.969 31.4114 300.036 31.8385 300.135 32.2656C300.229 32.6927 300.349 33.1093 300.495 33.5208C300.641 33.9323 300.807 34.3333 301 34.7239C301.193 35.1145 301.411 35.4948 301.651 35.8593C301.885 36.2239 302.146 36.5781 302.427 36.9114C302.703 37.2448 303.005 37.5625 303.323 37.8645C318.172 59.4114 332.333 81.4791 346.766 103.349L378.412 151.292C395.995 177.911 395.995 177.911 420.615 158.422C435.823 146.417 436.859 139.703 425.604 122.547ZM149.823 265.396C132.63 239.344 115.432 213.312 98.2396 187.297C76.75 154.75 76.75 154.75 46.5834 178.297C29.349 191.755 28.4792 197.052 40.9531 215.979C76.6719 270.167 112.427 324.339 148.219 378.49C171.516 413.74 171.969 413.776 204.292 387.187C217.464 376.359 218.516 369.661 208.813 354.859C189.234 324.979 169.573 295.156 149.823 265.396ZM336.932 108.818C319.74 82.7656 302.547 56.7395 285.354 30.7343C264.307 -1.1042 264.297 -1.1042 234.766 21.927C216.51 36.1823 215.906 40.2135 229.349 60.5833C265.099 114.766 300.859 168.911 336.646 223.021C359.24 257.214 359.229 257.219 390.344 232.542C405.537 220.49 406.609 214.521 395.932 198.245C376.344 168.375 356.677 138.568 336.932 108.818ZM269.286 146.526C268.849 145.818 268.344 145.161 267.771 144.562C267.198 143.964 266.568 143.427 265.88 142.958C265.193 142.49 264.464 142.099 263.693 141.786C262.922 141.469 262.13 141.24 261.313 141.089C260.495 140.943 259.672 140.88 258.839 140.906C258.01 140.937 257.188 141.047 256.38 141.245C255.573 141.448 254.797 141.724 254.047 142.089C253.302 142.453 252.599 142.891 251.943 143.401L151.906 220.927C151.234 221.479 150.62 222.083 150.057 222.75C149.5 223.411 149.005 224.12 148.573 224.875C148.146 225.63 147.786 226.417 147.5 227.234C147.214 228.057 147.005 228.896 146.875 229.755C146.745 230.615 146.693 231.474 146.719 232.344C146.745 233.214 146.849 234.068 147.036 234.917C147.219 235.766 147.479 236.594 147.813 237.391C148.151 238.193 148.557 238.958 149.031 239.682L161.307 258.286C161.745 258.995 162.25 259.646 162.823 260.25C163.401 260.849 164.031 261.385 164.714 261.854C165.401 262.323 166.13 262.714 166.901 263.031C167.672 263.344 168.464 263.578 169.281 263.724C170.099 263.87 170.927 263.932 171.755 263.906C172.589 263.88 173.406 263.766 174.214 263.568C175.021 263.365 175.797 263.083 176.547 262.724C177.297 262.359 177.995 261.922 178.651 261.411L278.688 183.88C279.359 183.333 279.974 182.724 280.536 182.062C281.094 181.401 281.589 180.687 282.021 179.937C282.453 179.182 282.807 178.396 283.094 177.573C283.38 176.755 283.589 175.917 283.719 175.057C283.854 174.198 283.906 173.333 283.88 172.469C283.849 171.599 283.745 170.74 283.563 169.891C283.375 169.042 283.115 168.219 282.781 167.417C282.443 166.615 282.042 165.854 281.563 165.125L269.286 146.526Z" fill="white"/>
</svg>
