<svg width="433" height="432" viewBox="0 0 433 432" fill="none" xmlns="http://www.w3.org/2000/svg">
<mask id="mask0_5_10" style="mask-type:luminance" maskUnits="userSpaceOnUse" x="0" y="0" width="433" height="432">
<path d="M0.302002 0H432.302V432H0.302002V0Z" fill="white"/>
</mask>
<g mask="url(#mask0_5_10)">
<path d="M216.302 0C97.0103 0 0.302002 96.7083 0.302002 216C0.302002 335.292 97.0103 432 216.302 432C335.599 432 432.302 335.292 432.302 216C432.302 96.7083 335.599 0 216.302 0ZM341.906 222.104C335.75 228.26 326.661 229.693 319.135 226.411V308.339C319.135 325.375 305.323 339.188 288.286 339.188H144.323C127.281 339.188 113.474 325.375 113.474 308.339V226.411C105.948 229.693 96.8593 228.26 90.703 222.104C82.6718 214.073 82.6718 201.052 90.703 193.021L201.76 81.9635C209.792 73.9271 222.812 73.9271 230.844 81.9635L341.901 193.021C349.937 201.052 349.937 214.073 341.906 222.104Z" fill="white"/>
</g>
</svg>
