<svg width="357" height="433" viewBox="0 0 357 433" fill="none" xmlns="http://www.w3.org/2000/svg">
<path d="M85.1876 210.74C85.1876 212.146 84.0417 213.297 82.6355 213.297H60.4063C58.9949 213.297 57.849 212.146 57.849 210.74V188.526C57.849 187.115 58.9949 185.969 60.4063 185.969H82.6355C84.0417 185.969 85.1876 187.115 85.1876 188.526V210.74ZM82.6355 176.635H60.4063C53.8438 176.635 48.5105 181.969 48.5105 188.526V210.74C48.5105 217.297 53.8438 222.63 60.4063 222.63H82.6355C89.1928 222.63 94.5261 217.297 94.5261 210.74V188.526C94.5261 181.969 89.1928 176.635 82.6355 176.635Z" fill="#D9D9D9"/>
<path d="M116.651 194.964C114.078 194.964 111.984 197.052 111.984 199.63C111.984 202.208 114.078 204.297 116.651 204.297H271.109C273.693 204.297 275.781 202.208 275.781 199.63C275.781 197.052 273.693 194.964 271.109 194.964H116.651Z" fill="#D9D9D9"/>
<path d="M85.1876 281.24C85.1876 282.651 84.0417 283.797 82.6355 283.797H60.4063C58.9949 283.797 57.849 282.651 57.849 281.24V259.026C57.849 257.615 58.9949 256.469 60.4063 256.469H82.6355C84.0417 256.469 85.1876 257.615 85.1876 259.026V281.24ZM82.6355 247.135H60.4063C53.8438 247.135 48.5105 252.469 48.5105 259.026V281.24C48.5105 287.797 53.8438 293.13 60.4063 293.13H82.6355C89.1928 293.13 94.5261 287.797 94.5261 281.24V259.026C94.5261 252.469 89.1928 247.135 82.6355 247.135Z" fill="#D9D9D9"/>
<path d="M271.109 265.464H116.651C114.078 265.464 111.984 267.552 111.984 270.13C111.984 272.708 114.078 274.797 116.651 274.797H271.109C273.693 274.797 275.781 272.708 275.781 270.13C275.781 267.552 273.693 265.464 271.109 265.464Z" fill="#D9D9D9"/>
<path d="M85.1876 351.74C85.1876 353.151 84.0417 354.302 82.6355 354.302H60.4063C58.9949 354.302 57.849 353.151 57.849 351.74V329.526C57.849 328.115 58.9949 326.969 60.4063 326.969H82.6355C84.0417 326.969 85.1876 328.115 85.1876 329.526V351.74ZM82.6355 317.635H60.4063C53.8438 317.635 48.5105 322.969 48.5105 329.526V351.74C48.5105 358.302 53.8438 363.635 60.4063 363.635H82.6355C89.1928 363.635 94.5261 358.302 94.5261 351.74V329.526C94.5261 322.969 89.1928 317.635 82.6355 317.635Z" fill="#D9D9D9"/>
<path d="M271.109 335.964H116.651C114.078 335.964 111.984 338.052 111.984 340.63C111.984 343.208 114.078 345.297 116.651 345.297H271.109C273.693 345.297 275.781 343.208 275.781 340.63C275.781 338.052 273.693 335.964 271.109 335.964Z" fill="#D9D9D9"/>
<mask id="mask0_7_108" style="mask-type:luminance" maskUnits="userSpaceOnUse" x="0" y="0" width="357" height="433">
<path d="M0.140625 0.875H356.141V432.667H0.140625V0.875Z" fill="white"/>
</mask>
<g mask="url(#mask0_7_108)">
<path d="M281.146 136.76C278.484 140.724 274.255 143.365 269.526 144.021C268.76 144.13 267.995 144.182 267.224 144.182C263.271 144.182 259.417 142.786 256.37 140.198L212.75 103.172C205.687 97.1823 204.828 86.6094 210.812 79.5521C216.812 72.5104 227.385 71.6302 234.448 77.625L263.76 102.505L303 44.0417C308.151 36.3542 318.562 34.3021 326.26 39.4583C333.943 44.6146 335.995 55.0208 330.839 62.7031L281.146 136.76ZM305.469 383.599C305.469 400.359 291.828 413.99 275.073 413.99H49.2343C32.4687 413.99 18.8333 400.359 18.8333 383.599V159.484L22.6979 155.62H66.8281C88.7812 155.62 106.573 137.833 106.573 115.891V71.776L110.443 67.9115H188.068C186.786 73.776 186.062 79.849 186.062 86.099C186.062 133.057 224.141 171.115 271.109 171.115C283.349 171.115 294.953 168.484 305.469 163.839V383.599ZM356.161 86.099C356.161 39.151 318.089 1.08853 271.109 1.08853C237.375 1.08853 208.307 20.776 194.568 49.2396H106.573C104.094 49.2396 101.724 50.2239 99.9739 51.9739L2.89058 149.021C1.13538 150.766 0.151001 153.146 0.151001 155.62V383.599C0.151001 410.651 22.1718 432.661 49.2343 432.661H275.073C302.13 432.661 324.141 410.651 324.141 383.599V152.505C343.635 136.927 356.161 112.995 356.161 86.099Z" fill="#D9D9D9"/>
</g>
</svg>
