<svg width="606" height="432" viewBox="0 0 606 432" fill="none" xmlns="http://www.w3.org/2000/svg">
<mask id="mask0_5_16" style="mask-type:luminance" maskUnits="userSpaceOnUse" x="0" y="0" width="606" height="432">
<path d="M0.671875 0H605.672V432H0.671875V0Z" fill="white"/>
</mask>
<g mask="url(#mask0_5_16)">
<path d="M533.474 0H72.8645C70.5103 0 68.1562 0.119792 65.8124 0.354167C63.4687 0.583333 61.1405 0.932292 58.828 1.39583C56.5208 1.85417 54.2343 2.42708 51.9791 3.11458C49.7239 3.80208 47.5103 4.59375 45.3333 5.5C43.1562 6.40104 41.0312 7.41146 38.953 8.52083C36.8749 9.63542 34.8541 10.8437 32.8958 12.1563C30.9374 13.4635 29.0468 14.8698 27.2239 16.3646C25.4062 17.8594 23.6614 19.4427 21.9947 21.1094C20.328 22.776 18.7447 24.5208 17.2499 26.3438C15.7551 28.1615 14.3541 30.0573 13.0468 32.0156C11.7343 33.974 10.526 35.9948 9.41138 38.0729C8.302 40.151 7.29159 42.2813 6.39054 44.4583C5.4895 46.6354 4.69263 48.849 4.01034 51.1094C3.32284 53.3646 2.74992 55.6458 2.28638 57.9583C1.82804 60.2708 1.47909 62.599 1.24992 64.9427C1.01554 67.2917 0.895752 69.6406 0.895752 72V360C0.895752 362.359 1.01554 364.708 1.24992 367.057C1.47909 369.401 1.82804 371.729 2.28638 374.042C2.74992 376.354 3.32284 378.635 4.01034 380.891C4.69263 383.151 5.4895 385.365 6.39054 387.542C7.29159 389.719 8.302 391.849 9.41138 393.927C10.526 396.005 11.7343 398.026 13.0468 399.984C14.3541 401.943 15.7551 403.839 17.2499 405.656C18.7447 407.479 20.328 409.224 21.9947 410.891C23.6614 412.557 25.4062 414.141 27.2239 415.635C29.0468 417.13 30.9374 418.536 32.8958 419.844C34.8541 421.156 36.8749 422.365 38.953 423.479C41.0312 424.589 43.1562 425.599 45.3333 426.5C47.5103 427.406 49.7239 428.198 51.9791 428.885C54.2343 429.573 56.5208 430.146 58.828 430.604C61.1405 431.068 63.4687 431.417 65.8124 431.646C68.1562 431.88 70.5103 432 72.8645 432H533.474C535.833 432 538.182 431.88 540.526 431.646C542.87 431.417 545.198 431.068 547.51 430.604C549.823 430.146 552.104 429.573 554.359 428.885C556.615 428.198 558.828 427.406 561.005 426.5C563.182 425.599 565.312 424.589 567.391 423.479C569.469 422.365 571.484 421.156 573.443 419.844C575.401 418.536 577.292 417.13 579.115 415.635C580.937 414.141 582.682 412.557 584.344 410.891C586.01 409.224 587.594 407.479 589.088 405.656C590.583 403.839 591.984 401.943 593.297 399.984C594.604 398.026 595.818 396.005 596.927 393.927C598.042 391.849 599.047 389.719 599.948 387.542C600.854 385.365 601.646 383.151 602.333 380.891C603.016 378.635 603.588 376.354 604.052 374.042C604.51 371.729 604.859 369.401 605.094 367.057C605.328 364.708 605.443 362.359 605.443 360V72C605.443 69.6406 605.328 67.2917 605.094 64.9427C604.859 62.599 604.51 60.2708 604.052 57.9583C603.588 55.6458 603.016 53.3646 602.333 51.1094C601.646 48.849 600.854 46.6354 599.948 44.4583C599.047 42.2813 598.042 40.151 596.927 38.0729C595.818 35.9948 594.604 33.974 593.297 32.0156C591.984 30.0573 590.583 28.1615 589.088 26.3438C587.594 24.5208 586.01 22.776 584.344 21.1094C582.682 19.4427 580.937 17.8594 579.115 16.3646C577.292 14.8698 575.401 13.4635 573.443 12.1563C571.484 10.8437 569.469 9.63542 567.391 8.52083C565.312 7.41146 563.182 6.40104 561.005 5.5C558.828 4.59375 556.615 3.80208 554.359 3.11458C552.104 2.42708 549.823 1.85417 547.51 1.39583C545.198 0.932292 542.87 0.583333 540.526 0.354167C538.182 0.119792 535.833 0 533.474 0ZM576.656 360C576.656 361.417 576.583 362.823 576.443 364.234C576.307 365.641 576.099 367.036 575.818 368.427C575.542 369.813 575.198 371.182 574.786 372.536C574.375 373.891 573.901 375.219 573.359 376.526C572.818 377.833 572.213 379.109 571.547 380.354C570.875 381.604 570.151 382.813 569.365 383.99C568.578 385.167 567.74 386.302 566.838 387.391C565.943 388.484 564.995 389.531 563.995 390.531C562.995 391.531 561.948 392.484 560.859 393.38C559.766 394.276 558.63 395.12 557.453 395.906C556.281 396.693 555.068 397.417 553.823 398.083C552.573 398.75 551.297 399.359 549.995 399.901C548.687 400.443 547.359 400.917 546.005 401.328C544.651 401.74 543.281 402.083 541.896 402.365C540.51 402.641 539.115 402.849 537.708 402.99C536.297 403.13 534.891 403.198 533.474 403.198H72.8645C71.453 403.198 70.0416 403.13 68.6353 402.99C67.2291 402.849 65.828 402.641 64.4426 402.365C63.0572 402.083 61.6874 401.74 60.3333 401.328C58.9843 400.917 57.651 400.443 56.3489 399.901C55.0416 399.359 53.7655 398.75 52.5208 398.083C51.2708 397.417 50.0624 396.693 48.8853 395.906C47.7083 395.12 46.578 394.276 45.4843 393.38C44.3905 392.484 43.3437 391.531 42.3437 390.531C41.3437 389.531 40.3958 388.484 39.4999 387.391C38.6041 386.302 37.7603 385.167 36.9739 383.99C36.1874 382.813 35.4635 381.604 34.7968 380.354C34.1301 379.109 33.526 377.833 32.9843 376.526C32.4426 375.219 31.9635 373.891 31.552 372.536C31.1405 371.182 30.7968 369.813 30.5208 368.427C30.2447 367.036 30.0364 365.641 29.8958 364.234C29.7551 362.823 29.6822 361.417 29.6822 360V72C29.6822 70.5833 29.7551 69.1771 29.8958 67.7656C30.0364 66.3594 30.2447 64.9635 30.5208 63.5729C30.7968 62.1875 31.1405 60.8177 31.552 59.4635C31.9635 58.1094 32.4426 56.7813 32.9843 55.474C33.526 54.1667 34.1301 52.8906 34.7968 51.6458C35.4635 50.3958 36.1874 49.1875 36.9739 48.0104C37.7603 46.8333 38.6041 45.6979 39.4999 44.6094C40.3958 43.5156 41.3437 42.4688 42.3437 41.4688C43.3437 40.4688 44.3905 39.5156 45.4843 38.6198C46.578 37.724 47.7083 36.8802 48.8853 36.0938C50.0624 35.3073 51.2708 34.5833 52.5208 33.9167C53.7655 33.25 55.0416 32.6406 56.3489 32.099C57.651 31.5573 58.9843 31.0833 60.3333 30.6719C61.6874 30.2604 63.0572 29.9167 64.4426 29.6354C65.828 29.3594 67.2291 29.151 68.6353 29.0104C70.0416 28.8698 71.453 28.8021 72.8645 28.8021H533.474C534.891 28.8021 536.297 28.8698 537.708 29.0104C539.115 29.151 540.51 29.3594 541.896 29.6354C543.281 29.9167 544.651 30.2604 546.005 30.6719C547.359 31.0833 548.687 31.5573 549.995 32.099C551.297 32.6406 552.573 33.25 553.823 33.9167C555.068 34.5833 556.281 35.3073 557.453 36.0938C558.63 36.8802 559.766 37.724 560.859 38.6198C561.948 39.5156 562.995 40.4688 563.995 41.4688C564.995 42.4688 565.943 43.5156 566.838 44.6094C567.74 45.6979 568.578 46.8333 569.365 48.0104C570.151 49.1875 570.875 50.3958 571.547 51.6458C572.213 52.8906 572.818 54.1667 573.359 55.474C573.901 56.7813 574.375 58.1094 574.786 59.4635C575.198 60.8177 575.542 62.1875 575.818 63.5729C576.099 64.9635 576.307 66.3594 576.443 67.7656C576.583 69.1771 576.656 70.5833 576.656 72V360ZM188.016 230.401C190.375 230.401 192.724 230.286 195.073 230.052C197.417 229.823 199.745 229.474 202.057 229.016C204.37 228.557 206.656 227.984 208.911 227.302C211.167 226.615 213.38 225.823 215.557 224.917C217.74 224.016 219.865 223.01 221.943 221.896C224.021 220.786 226.042 219.578 228 218.266C229.963 216.953 231.854 215.552 233.677 214.057C235.495 212.563 237.24 210.979 238.906 209.313C240.573 207.646 242.156 205.901 243.651 204.078C245.146 202.255 246.547 200.359 247.859 198.401C249.167 196.443 250.38 194.422 251.49 192.339C252.599 190.26 253.609 188.13 254.51 185.953C255.411 183.776 256.203 181.557 256.891 179.302C257.573 177.042 258.146 174.76 258.604 172.448C259.062 170.135 259.411 167.802 259.641 165.458C259.875 163.109 259.99 160.76 259.99 158.401C259.99 156.042 259.875 153.688 259.641 151.344C259.411 148.995 259.062 146.667 258.604 144.354C258.146 142.042 257.573 139.755 256.891 137.5C256.203 135.245 255.411 133.026 254.51 130.849C253.609 128.667 252.599 126.536 251.49 124.458C250.38 122.38 249.167 120.359 247.859 118.401C246.547 116.438 245.146 114.547 243.651 112.724C242.156 110.901 240.573 109.156 238.906 107.49C237.24 105.823 235.495 104.24 233.677 102.745C231.854 101.245 229.963 99.8438 228 98.5365C226.042 97.224 224.021 96.0156 221.943 94.901C219.865 93.7917 217.74 92.7813 215.557 91.8802C213.38 90.9792 211.167 90.1823 208.911 89.5C206.656 88.8177 204.37 88.2448 202.057 87.7813C199.745 87.3229 197.417 86.9792 195.073 86.7448C192.724 86.5156 190.375 86.401 188.016 86.401C185.661 86.401 183.307 86.5156 180.963 86.7448C178.62 86.9792 176.286 87.3229 173.979 87.7813C171.667 88.2448 169.38 88.8177 167.125 89.5C164.87 90.1823 162.656 90.9792 160.474 91.8802C158.297 92.7813 156.172 93.7917 154.094 94.901C152.01 96.0156 149.995 97.224 148.031 98.5365C146.073 99.8438 144.182 101.245 142.359 102.745C140.536 104.24 138.792 105.823 137.125 107.49C135.458 109.156 133.88 110.901 132.385 112.724C130.891 114.547 129.484 116.438 128.177 118.401C126.865 120.359 125.656 122.38 124.547 124.458C123.432 126.536 122.427 128.667 121.526 130.849C120.625 133.026 119.833 135.245 119.146 137.5C118.463 139.755 117.891 142.042 117.432 144.354C116.969 146.667 116.625 148.995 116.396 151.344C116.161 153.688 116.047 156.042 116.047 158.401C116.052 160.755 116.167 163.109 116.401 165.453C116.635 167.802 116.979 170.13 117.443 172.443C117.901 174.755 118.474 177.036 119.161 179.292C119.849 181.547 120.641 183.766 121.542 185.943C122.448 188.12 123.453 190.25 124.568 192.328C125.677 194.406 126.885 196.427 128.198 198.385C129.505 200.344 130.911 202.234 132.406 204.057C133.901 205.88 135.479 207.625 137.146 209.292C138.812 210.958 140.557 212.542 142.38 214.036C144.198 215.531 146.088 216.938 148.047 218.245C150.01 219.557 152.026 220.766 154.104 221.88C156.182 222.99 158.307 224 160.484 224.901C162.661 225.807 164.88 226.599 167.135 227.286C169.385 227.969 171.672 228.542 173.979 229.005C176.292 229.469 178.62 229.813 180.963 230.047C183.312 230.281 185.661 230.396 188.016 230.401ZM188.016 115.198C189.432 115.198 190.844 115.271 192.25 115.406C193.656 115.547 195.057 115.755 196.443 116.031C197.828 116.307 199.198 116.651 200.552 117.063C201.906 117.469 203.234 117.948 204.542 118.49C205.849 119.031 207.125 119.635 208.375 120.302C209.62 120.969 210.833 121.693 212.01 122.479C213.182 123.266 214.318 124.109 215.411 125.005C216.505 125.901 217.552 126.854 218.552 127.854C219.552 128.854 220.5 129.901 221.396 130.995C222.297 132.089 223.135 133.224 223.922 134.401C224.708 135.578 225.432 136.786 226.099 138.036C226.766 139.281 227.37 140.563 227.911 141.87C228.453 143.177 228.932 144.505 229.338 145.859C229.75 147.214 230.094 148.583 230.37 149.974C230.646 151.359 230.854 152.755 230.99 154.167C231.13 155.573 231.198 156.984 231.198 158.401C231.198 159.813 231.13 161.224 230.99 162.635C230.854 164.042 230.646 165.443 230.37 166.828C230.094 168.214 229.75 169.589 229.338 170.943C228.932 172.292 228.453 173.625 227.911 174.932C227.37 176.24 226.766 177.516 226.099 178.766C225.432 180.01 224.708 181.224 223.922 182.401C223.135 183.578 222.297 184.714 221.396 185.807C220.5 186.901 219.552 187.948 218.552 188.948C217.552 189.948 216.505 190.896 215.411 191.792C214.318 192.693 213.182 193.531 212.01 194.318C210.833 195.104 209.62 195.833 208.375 196.5C207.125 197.167 205.849 197.771 204.542 198.313C203.234 198.854 201.906 199.328 200.552 199.74C199.198 200.151 197.828 200.495 196.443 200.771C195.057 201.047 193.656 201.255 192.25 201.391C190.844 201.531 189.432 201.599 188.016 201.599C186.604 201.599 185.193 201.531 183.786 201.391C182.38 201.255 180.979 201.047 179.594 200.771C178.208 200.495 176.838 200.151 175.484 199.74C174.13 199.328 172.797 198.854 171.495 198.313C170.187 197.771 168.911 197.167 167.661 196.5C166.417 195.833 165.203 195.104 164.026 194.318C162.849 193.531 161.719 192.693 160.625 191.792C159.531 190.896 158.484 189.948 157.484 188.948C156.484 187.948 155.536 186.901 154.635 185.807C153.74 184.714 152.901 183.578 152.115 182.401C151.328 181.224 150.599 180.01 149.932 178.766C149.266 177.516 148.661 176.24 148.125 174.932C147.583 173.625 147.104 172.292 146.693 170.943C146.286 169.589 145.943 168.214 145.667 166.828C145.391 165.443 145.182 164.042 145.042 162.635C144.906 161.224 144.833 159.813 144.833 158.401C144.838 156.984 144.906 155.573 145.047 154.167C145.187 152.76 145.396 151.365 145.672 149.974C145.948 148.589 146.297 147.219 146.703 145.865C147.115 144.51 147.594 143.182 148.135 141.875C148.677 140.568 149.281 139.292 149.948 138.047C150.615 136.797 151.344 135.589 152.13 134.411C152.911 133.234 153.755 132.099 154.651 131.005C155.547 129.911 156.5 128.865 157.495 127.865C158.495 126.865 159.542 125.917 160.635 125.021C161.729 124.125 162.865 123.281 164.036 122.495C165.213 121.708 166.427 120.984 167.672 120.313C168.917 119.646 170.193 119.042 171.5 118.5C172.807 117.958 174.135 117.484 175.49 117.073C176.838 116.661 178.208 116.313 179.599 116.036C180.984 115.76 182.38 115.552 183.786 115.411C185.193 115.271 186.604 115.203 188.016 115.198ZM288.776 331.198C288.776 332.146 288.682 333.083 288.5 334.01C288.318 334.938 288.042 335.839 287.682 336.708C287.318 337.583 286.875 338.411 286.349 339.198C285.823 339.984 285.229 340.714 284.562 341.38C283.891 342.052 283.167 342.646 282.38 343.172C281.594 343.698 280.766 344.141 279.891 344.505C279.016 344.865 278.115 345.141 277.193 345.323C276.266 345.505 275.328 345.599 274.38 345.599C273.437 345.599 272.5 345.505 271.573 345.323C270.646 345.141 269.745 344.865 268.875 344.505C268 344.141 267.172 343.698 266.385 343.172C265.599 342.646 264.87 342.052 264.203 341.38C263.536 340.714 262.937 339.984 262.411 339.198C261.891 338.411 261.448 337.583 261.083 336.708C260.724 335.839 260.448 334.938 260.266 334.01C260.078 333.083 259.99 332.146 259.99 331.198C259.984 329.786 259.917 328.375 259.776 326.969C259.635 325.557 259.427 324.161 259.151 322.776C258.875 321.391 258.531 320.016 258.12 318.667C257.708 317.313 257.229 315.984 256.687 314.677C256.146 313.37 255.542 312.094 254.875 310.844C254.208 309.599 253.484 308.385 252.698 307.208C251.911 306.036 251.068 304.901 250.172 303.807C249.276 302.714 248.328 301.667 247.328 300.667C246.328 299.667 245.281 298.719 244.187 297.823C243.094 296.922 241.958 296.083 240.786 295.297C239.609 294.51 238.401 293.781 237.151 293.115C235.906 292.448 234.63 291.844 233.323 291.302C232.016 290.76 230.687 290.281 229.333 289.87C227.984 289.458 226.615 289.115 225.229 288.839C223.838 288.563 222.443 288.354 221.036 288.214C219.63 288.073 218.219 288 216.807 288H159.229C157.818 288 156.406 288.073 155 288.214C153.594 288.354 152.193 288.563 150.807 288.839C149.422 289.115 148.052 289.458 146.698 289.87C145.349 290.281 144.016 290.76 142.713 291.302C141.406 291.844 140.13 292.448 138.885 293.115C137.635 293.781 136.427 294.51 135.25 295.297C134.073 296.083 132.943 296.922 131.849 297.823C130.755 298.719 129.708 299.667 128.708 300.667C127.708 301.667 126.76 302.714 125.865 303.807C124.969 304.901 124.125 306.036 123.338 307.208C122.552 308.385 121.828 309.599 121.161 310.844C120.495 312.094 119.891 313.37 119.349 314.677C118.807 315.984 118.328 317.313 117.917 318.667C117.505 320.016 117.161 321.391 116.885 322.776C116.609 324.161 116.401 325.557 116.26 326.969C116.12 328.375 116.047 329.786 116.047 331.198C116.047 332.146 115.953 333.083 115.771 334.01C115.588 334.938 115.312 335.839 114.953 336.708C114.588 337.583 114.146 338.411 113.62 339.198C113.099 339.984 112.5 340.714 111.833 341.38C111.161 342.052 110.437 342.646 109.651 343.172C108.865 343.698 108.036 344.141 107.161 344.505C106.286 344.865 105.391 345.141 104.463 345.323C103.536 345.505 102.599 345.599 101.651 345.599C100.708 345.599 99.7708 345.505 98.8437 345.323C97.9166 345.141 97.0208 344.865 96.1458 344.505C95.2708 344.141 94.4426 343.698 93.6562 343.172C92.8697 342.646 92.1458 342.052 91.4739 341.38C90.8072 340.714 90.2083 339.984 89.6874 339.198C89.1614 338.411 88.7187 337.583 88.3541 336.708C87.9947 335.839 87.7187 334.938 87.5364 334.01C87.3541 333.083 87.2603 332.146 87.2603 331.198C87.2603 328.844 87.3801 326.49 87.6145 324.146C87.8437 321.797 88.1926 319.469 88.651 317.156C89.1145 314.844 89.6874 312.563 90.3749 310.307C91.0572 308.052 91.8541 305.833 92.7551 303.656C93.6562 301.479 94.6666 299.349 95.776 297.271C96.8905 295.193 98.0989 293.177 99.4114 291.214C100.719 289.255 102.12 287.365 103.615 285.542C105.109 283.719 106.693 281.974 108.359 280.307C110.026 278.641 111.771 277.057 113.588 275.563C115.411 274.068 117.302 272.667 119.26 271.354C121.219 270.047 123.24 268.833 125.318 267.719C127.396 266.609 129.521 265.604 131.698 264.698C133.875 263.797 136.088 263 138.344 262.318C140.599 261.63 142.88 261.057 145.193 260.594C147.505 260.135 149.833 259.786 152.177 259.552C154.521 259.318 156.875 259.203 159.229 259.198H216.807C219.161 259.203 221.516 259.318 223.859 259.552C226.203 259.786 228.531 260.135 230.844 260.594C233.151 261.057 235.437 261.63 237.693 262.318C239.943 263 242.161 263.797 244.338 264.698C246.516 265.604 248.641 266.609 250.719 267.719C252.797 268.833 254.818 270.047 256.776 271.354C258.734 272.667 260.625 274.068 262.448 275.563C264.266 277.057 266.01 278.641 267.677 280.307C269.344 281.974 270.922 283.719 272.422 285.542C273.917 287.365 275.318 289.255 276.625 291.214C277.937 293.177 279.146 295.193 280.26 297.271C281.37 299.349 282.375 301.479 283.281 303.656C284.182 305.833 284.979 308.052 285.661 310.307C286.349 312.563 286.922 314.844 287.38 317.156C287.844 319.469 288.193 321.797 288.422 324.146C288.656 326.49 288.776 328.844 288.776 331.198ZM519.083 172.802C519.083 173.745 518.99 174.682 518.807 175.609C518.62 176.536 518.349 177.438 517.99 178.313C517.625 179.188 517.182 180.016 516.656 180.802C516.13 181.589 515.536 182.318 514.87 182.984C514.198 183.651 513.474 184.25 512.687 184.776C511.901 185.302 511.068 185.745 510.198 186.104C509.323 186.469 508.422 186.74 507.495 186.927C506.568 187.109 505.63 187.203 504.687 187.198H389.536C388.588 187.198 387.651 187.109 386.724 186.922C385.797 186.74 384.901 186.464 384.026 186.104C383.151 185.74 382.323 185.297 381.536 184.771C380.75 184.25 380.026 183.651 379.354 182.984C378.687 182.313 378.094 181.589 377.568 180.802C377.042 180.016 376.599 179.182 376.234 178.313C375.875 177.438 375.599 176.536 375.417 175.609C375.234 174.682 375.141 173.745 375.141 172.802C375.141 171.854 375.234 170.917 375.417 169.99C375.599 169.063 375.875 168.161 376.234 167.292C376.599 166.417 377.042 165.583 377.568 164.802C378.094 164.016 378.687 163.286 379.354 162.62C380.026 161.948 380.75 161.354 381.536 160.828C382.323 160.302 383.151 159.859 384.026 159.495C384.901 159.135 385.797 158.859 386.724 158.677C387.651 158.495 388.588 158.401 389.536 158.401H504.687C505.63 158.401 506.568 158.49 507.495 158.677C508.422 158.859 509.323 159.13 510.198 159.495C511.068 159.854 511.901 160.297 512.687 160.823C513.474 161.349 514.198 161.948 514.87 162.615C515.536 163.286 516.13 164.01 516.656 164.797C517.182 165.583 517.625 166.417 517.99 167.286C518.349 168.161 518.62 169.063 518.807 169.99C518.99 170.917 519.083 171.854 519.083 172.802ZM461.505 259.198C461.505 260.146 461.411 261.083 461.229 262.01C461.047 262.938 460.771 263.839 460.411 264.714C460.052 265.583 459.604 266.417 459.083 267.203C458.557 267.99 457.958 268.714 457.292 269.385C456.625 270.052 455.896 270.651 455.109 271.177C454.323 271.703 453.495 272.146 452.62 272.505C451.745 272.87 450.849 273.141 449.922 273.323C448.995 273.51 448.057 273.599 447.109 273.599H389.536C388.588 273.599 387.651 273.505 386.724 273.323C385.797 273.141 384.901 272.865 384.026 272.505C383.151 272.141 382.323 271.698 381.536 271.172C380.75 270.646 380.026 270.052 379.354 269.38C378.687 268.714 378.094 267.984 377.568 267.198C377.042 266.411 376.599 265.583 376.234 264.708C375.875 263.839 375.599 262.938 375.417 262.01C375.234 261.083 375.141 260.146 375.141 259.198C375.141 258.255 375.234 257.318 375.417 256.391C375.599 255.464 375.875 254.563 376.234 253.688C376.599 252.818 377.042 251.984 377.568 251.198C378.094 250.411 378.687 249.688 379.354 249.016C380.026 248.349 380.75 247.75 381.536 247.229C382.323 246.703 383.151 246.26 384.026 245.896C384.901 245.536 385.797 245.26 386.724 245.078C387.651 244.891 388.588 244.802 389.536 244.802H447.109C448.057 244.797 448.995 244.891 449.922 245.073C450.849 245.26 451.745 245.531 452.62 245.896C453.495 246.255 454.323 246.698 455.109 247.224C455.896 247.75 456.625 248.349 457.292 249.016C457.958 249.682 458.557 250.411 459.083 251.198C459.604 251.984 460.052 252.813 460.411 253.688C460.771 254.563 461.047 255.464 461.229 256.391C461.411 257.318 461.505 258.255 461.505 259.198Z" fill="white"/>
</g>
</svg>
