<svg width="21" height="21" viewBox="0 0 21 21" fill="none" xmlns="http://www.w3.org/2000/svg">
<mask id="mask0_1_198" style="mask-type:luminance" maskUnits="userSpaceOnUse" x="0" y="0" width="21" height="21">
<path d="M0.78125 0.171875H20.7813V20.1719H0.78125V0.171875Z" fill="white"/>
</mask>
<g mask="url(#mask0_1_198)">
<path d="M10.7813 0.171875C10.125 0.171875 9.47396 0.234374 8.83333 0.364583C8.1875 0.489583 7.5625 0.682292 6.95313 0.932292C6.34896 1.18229 5.77083 1.48958 5.22396 1.85417C4.68229 2.21875 4.17708 2.63542 3.70833 3.09896C3.24479 3.5625 2.83333 4.06771 2.46875 4.61458C2.10417 5.16146 1.79687 5.73958 1.54167 6.34375C1.29167 6.95313 1.10417 7.57813 0.973958 8.21875C0.843749 8.86458 0.78125 9.51563 0.78125 10.1719C0.78125 10.8281 0.843749 11.4792 0.973958 12.1198C1.10417 12.7656 1.29167 13.3906 1.54167 14C1.79687 14.6042 2.10417 15.1823 2.46875 15.7292C2.83333 16.2708 3.24479 16.776 3.70833 17.2448C4.17708 17.7083 4.68229 18.1198 5.22396 18.4844C5.77083 18.849 6.34896 19.1563 6.95313 19.4115C7.5625 19.6615 8.1875 19.849 8.83333 19.9792C9.47396 20.1094 10.125 20.1719 10.7813 20.1719C11.4375 20.1719 12.0885 20.1094 12.7344 19.9792C13.375 19.849 14 19.6615 14.6094 19.4115C15.2135 19.1563 15.7917 18.849 16.3385 18.4844C16.8854 18.1198 17.3906 17.7083 17.8542 17.2448C18.3177 16.776 18.7344 16.2708 19.099 15.7292C19.4635 15.1823 19.7708 14.6042 20.0208 14C20.2708 13.3906 20.4635 12.7656 20.5885 12.1198C20.7188 11.4792 20.7813 10.8281 20.7813 10.1719C20.7813 9.51563 20.7188 8.86458 20.5885 8.21875C20.4635 7.57813 20.2708 6.95313 20.0208 6.34375C19.7708 5.73958 19.4635 5.16146 19.0938 4.61458C18.7292 4.06771 18.3177 3.5625 17.8542 3.09896C17.3906 2.63542 16.8854 2.22396 16.3385 1.85938C15.7917 1.48958 15.2135 1.18229 14.6094 0.932292C14 0.682292 13.375 0.489583 12.7344 0.364583C12.0885 0.234374 11.4375 0.171875 10.7813 0.171875ZM10.7813 3.92188C11.0208 3.92188 11.2552 3.94792 11.4844 4.00521C11.7187 4.05729 11.9375 4.13542 12.151 4.24479C12.3646 4.34896 12.5625 4.47917 12.7448 4.63021C12.9271 4.78125 13.0885 4.95313 13.2344 5.14063C13.375 5.33333 13.4948 5.53646 13.5938 5.75521C13.6875 5.96875 13.7552 6.19792 13.8021 6.43229C13.8438 6.66667 13.8594 6.90104 13.849 7.13542C13.8333 7.375 13.7969 7.60937 13.7292 7.83333C13.6667 8.0625 13.5729 8.28125 13.4583 8.48958C13.3437 8.69792 13.2031 8.88542 13.0417 9.0625C12.8802 9.23958 12.7031 9.39063 12.5052 9.52604C12.3125 9.66146 12.099 9.76563 11.8802 9.85417C11.6563 9.9375 11.4271 9.99479 11.1927 10.026C10.9583 10.0573 10.724 10.0625 10.4844 10.0417C10.25 10.0156 10.0156 9.96875 9.79167 9.89063C9.56771 9.8125 9.35417 9.71354 9.15625 9.58854C6.57812 7.95313 7.69271 3.95313 10.7813 3.92188ZM14.3802 16.4219H7.1875C6.88542 16.4219 6.59375 16.3646 6.31771 16.2448C6.04167 16.1302 5.79687 15.9688 5.58333 15.7552C5.36979 15.5417 5.20833 15.2969 5.09375 15.0208C4.97917 14.7396 4.92188 14.4531 4.92188 14.151C4.92188 12.2292 6.33333 10.5729 8.36458 9.82292C8.70312 10.1094 9.07813 10.3281 9.49479 10.4792C9.91146 10.6354 10.3385 10.7083 10.7813 10.7083C11.224 10.7083 11.651 10.6354 12.0677 10.4792C12.4844 10.3281 12.8594 10.1094 13.1979 9.82292C15.2292 10.5729 16.6458 12.2292 16.6458 14.151C16.6458 14.4531 16.5885 14.7396 16.474 15.0208C16.3594 15.2969 16.1927 15.5417 15.9792 15.7552C15.7708 15.9688 15.5208 16.1302 15.2448 16.2448C14.9687 16.3646 14.6771 16.4219 14.3802 16.4219Z" fill="white"/>
</g>
</svg>
