<svg width="30" height="25" viewBox="0 0 30 25" fill="none" xmlns="http://www.w3.org/2000/svg">
<mask id="mask0_4_512" style="mask-type:luminance" maskUnits="userSpaceOnUse" x="0" y="0" width="30" height="25">
<path d="M0.552063 0.333374H29.5521V24.3334H0.552063V0.333374Z" fill="white"/>
</mask>
<g mask="url(#mask0_4_512)">
<path d="M0.822885 13.6875C1.05205 14.198 1.59372 14.6146 2.09372 14.474C2.18226 15.4063 2.31768 16.3802 2.81768 17.1719C3.31768 17.9584 4.35934 18.5157 5.21872 18.1459C5.17184 18.5625 5.40101 18.9792 5.67184 19.2605C6.3958 19.9115 7.98434 20 8.61976 19.1198C8.79684 18.8855 8.84372 18.6094 8.89059 18.2865C8.97913 18.0052 9.02601 17.7292 8.97914 17.4948C8.93226 16.0105 8.79684 14.5209 8.61976 13.0834C8.89059 12.8959 9.07289 13.0365 10.6093 12.8073C10.7031 14.4323 11.2448 15.7292 11.7916 17.2136C12.4218 18.9792 12.651 20.8855 12.875 22.7396C12.9218 23.1615 12.9687 23.625 13.0573 24.0417C13.1041 24.2292 13.2396 24.3177 13.375 24.3177H13.4218C13.6041 24.2761 13.7396 24.1355 13.6927 23.948C13.6458 23.5313 13.5573 23.1146 13.5104 22.6511C13.2864 20.7448 13.0104 18.7969 12.3802 16.9844C11.8802 15.5469 11.2916 14.198 11.2448 12.7136C11.6979 12.6198 12.151 12.573 12.6041 12.4792C13.2396 13.3646 14.5989 13.2709 15.0521 12.25C15.8698 12.5261 16.8177 11.8282 16.8646 10.9948C17.4531 11.0417 17.9531 10.5782 18.1354 10.0209C18.2239 10.1094 18.2708 10.2032 18.2239 10.3907C18.1771 10.4844 18.1354 10.5313 18.0885 10.5782C17.9062 10.6667 17.8593 10.8542 17.9062 11.0417C18.1354 11.5052 18.8593 11.0886 18.901 10.3907C19.2187 10.4375 19.4948 10.3907 19.6718 10.2969C19.8541 10.2032 19.901 10.0209 19.8073 9.83337C19.7187 9.64587 19.5364 9.599 19.3541 9.69274C19.2187 9.73962 18.901 9.73962 18.7656 9.64587C18.7239 9.64587 18.7239 9.64587 18.6771 9.59899C18.4948 9.36983 18.3593 9.32295 18.2239 9.18233C17.9948 8.95316 17.8593 8.53129 17.9531 8.20837C17.9948 8.11462 18.0885 7.97399 18.2239 7.97399C18.4062 7.92712 18.5885 8.02087 18.8125 8.06774C19.2656 8.20837 19.7187 8.39587 20.1718 8.57816C21.1666 9.00004 20.8541 9.13545 20.625 11.3177C20.4427 12.4792 20.3073 13.1771 18.901 13.9636C18.2239 14.3386 17.5 14.7084 17.1823 15.5C16.9114 16.1459 17.1354 16.8438 17.3646 17.448C17.8593 18.8386 18.4479 20.1875 18.9948 21.5365C19.0416 21.6719 19.1771 21.7188 19.3125 21.7188C19.3541 21.7188 19.401 21.7188 19.4479 21.6719C19.6302 21.5782 19.7187 21.3959 19.6302 21.2084C19.0833 19.9115 18.4948 18.5625 17.9948 17.1719C17.8177 16.7032 17.6823 16.1459 17.8177 15.6823C18.1771 14.7084 20.1718 14.5209 20.9427 12.849C21.1666 12.3855 21.2135 11.875 21.3073 11.4115C21.7135 11.3646 22.1198 11.3177 22.526 11.224C22.526 11.224 22.526 11.224 22.526 11.1823C22.8021 12.3855 23.0729 13.6407 23.4323 14.9427C23.4791 15.2657 23.75 15.823 23.7968 15.8698C24.2031 16.6146 25.3854 16.7969 26.1093 16.5209C26.9687 16.1459 27.5573 15.125 27.375 14.198C28.1458 13.9167 28.6458 13.0834 28.7812 12.25C28.9166 11.4115 28.7812 10.5782 28.6458 9.73962C29.0104 9.69274 29.3698 9.4167 29.4635 9.0417C29.4635 9.00004 29.4635 8.95316 29.4635 8.90629C29.5521 8.71879 29.5521 8.53129 29.5521 8.34899L29.5052 7.23441C29.4166 6.67712 28.9166 6.26045 28.375 6.349L28.0104 6.39587C27.875 5.60941 27.7396 4.77087 27.2864 4.07816C26.8802 3.47399 26.0625 2.9167 25.2448 3.09899C25.2448 3.00524 25.2031 2.96358 25.2031 2.86983C25.0208 1.93754 24.1614 1.2917 23.2083 1.42712H23.0729C22.1198 1.6615 21.4843 2.58858 21.6198 3.52087C21.6198 4.86462 21.7604 6.26045 21.9375 7.74483L20.625 8.02087C20.401 7.92712 19.9896 7.74483 19.7656 7.65108C19.8073 7.4167 19.8073 7.18754 19.7187 6.95316C19.5364 6.44274 18.7656 5.65629 17.9948 5.46879C17.5 5.37504 16.8646 5.56254 16.5937 6.07295C15.8698 5.28129 14.5521 5.46879 14.1458 6.5365C13.4635 6.30212 12.6979 6.58337 12.3802 7.32816C11.8333 7.14066 11.1562 7.36983 10.8385 7.88545C10.5677 8.39587 10.5677 9.0417 10.7448 9.69274C10.4739 9.73962 9.56768 9.92712 8.2083 10.1563C7.93747 8.71879 7.57289 7.32816 7.11976 5.9792C6.94268 5.05212 6.07809 4.40108 5.13018 4.5417H4.99476C4.08851 4.67712 3.45309 5.60941 3.58851 6.5365V6.95316C2.72914 7.00004 2.09372 7.7917 1.91143 8.48441C1.68226 9.32295 1.82289 10.1563 1.91143 10.9948C1.77601 11.0417 1.22913 10.9011 0.86976 11.4584C0.687468 11.6927 0.640593 11.9219 0.640593 12.2032C0.552051 12.7136 0.640593 13.2709 0.822885 13.6875ZM28.6927 7.14066C28.8698 7.28129 28.7812 7.4167 28.9635 8.48441C29.0104 8.67191 28.8698 8.81254 28.7343 8.85941L28.4635 8.90629C28.375 8.30212 28.2396 7.7917 28.1041 7.14066C28.375 7.09379 28.5573 7.00004 28.6927 7.14066ZM26.6979 4.49483C27.0573 5.05212 27.151 5.74483 27.2864 6.349C27.6041 8.20837 28.1458 9.97399 28.0104 11.7813C27.9635 12.2032 27.9218 12.5261 27.7864 12.7605C27.651 12.9896 27.1979 13.2709 26.9687 13.3177C26.651 9.599 26.151 6.48962 25.3854 3.79691C25.8802 3.70316 26.4271 4.03129 26.6979 4.49483ZM23.1614 2.21879H23.2968C23.8437 2.12504 24.3854 2.49483 24.5208 3.09899C24.6146 3.56254 25.8385 6.67712 26.4271 14.5209C26.5156 15.125 26.151 15.6823 25.5625 15.7761C25.4739 15.7761 25.0677 15.9636 24.6146 15.6355C24.3854 15.4532 24.25 15.2188 24.1614 14.8959C22.1198 7.6042 22.3906 3.89066 22.3021 3.47399C22.2135 2.86983 22.5729 2.31254 23.1614 2.21879ZM22.3489 10.2032L21.4843 10.3907C21.5781 9.69274 21.7604 9.13545 21.3958 8.57816L22.0729 8.44274C22.1198 9.00004 22.2552 9.59899 22.3489 10.2032ZM17.8593 6.1667C18.1771 6.21358 18.4479 6.44274 18.8125 6.81774C18.9948 7.00004 19.1302 7.18754 19.1302 7.4167C18.8125 7.32816 18.4948 7.23441 18.1771 7.28129C17.3177 7.4167 17.0885 8.39587 17.4531 9.18233V9.32295C17.5 9.51045 17.3646 9.92712 17.2291 10.0209C17.0885 10.1563 16.9114 10.2032 16.7291 10.1094H16.6823C16.5937 9.08858 16.276 7.7917 16.9114 6.90629C16.9531 6.81774 17.0885 6.02608 17.8593 6.1667ZM15.2343 6.30212C15.5521 6.21358 15.9114 6.30212 16.1406 6.58337C16.1823 6.63024 16.2291 6.67712 16.276 6.67712C15.2343 8.48441 16.6823 10.948 15.7291 11.4115C15.6406 11.4584 15.276 11.3646 15.2343 11.2709C15.2343 11.224 15.1875 11.224 15.1406 11.1823C15.0052 9.88024 14.4635 8.39587 14.6875 7.14066C14.6875 7.09379 14.6875 7.04691 14.6875 7.04691C14.6875 6.724 14.9166 6.39587 15.2343 6.30212ZM12.9218 7.88545C12.875 7.6042 13.0573 7.32816 13.2864 7.23441C13.5104 7.14066 13.7812 7.14066 13.9635 7.23441C13.6927 9.00004 14.7343 11.3646 14.3698 11.9688C14.2343 12.1563 13.9166 12.2032 13.6927 12.1094C13.4635 11.9688 13.2864 11.6927 13.2396 11.3646C13.2396 11.2709 13.1927 11.224 13.151 11.1355C13.1927 10.8073 13.151 10.5782 13.0573 10.25C12.8333 9.0417 12.875 8.25524 12.875 8.11462C12.9218 7.97399 12.9218 7.92712 12.9218 7.88545ZM11.3385 8.20837C11.5156 7.92712 11.9687 7.88545 12.1979 7.97399V8.06774C12.151 9.83337 12.5156 10.5313 12.4687 10.948C12.4687 11.0886 12.3802 11.224 12.2864 11.2709C12.1979 11.3177 12.0625 11.2709 11.9687 11.1823C11.8333 11.0886 11.7916 10.9011 11.6979 10.6667C11.1093 9.13545 11.1979 8.48441 11.3385 8.20837ZM10.8854 10.3438C11.0625 10.948 11.2448 11.5521 11.6979 11.8282C10.8854 11.9688 9.74997 12.1094 8.52601 12.3386C8.43747 11.8282 8.39059 11.3177 8.25518 10.8542C9.66143 10.625 10.5677 10.4375 10.8854 10.3438ZM5.0833 5.28129H5.21872C5.85414 5.18754 6.35414 5.65629 6.44268 6.1667C6.48955 6.48962 8.11976 10.7136 8.34372 17.5886C8.43747 18.1927 8.07289 18.75 7.48434 18.8386H7.26039C6.66664 18.9323 6.17184 18.5625 6.03643 17.9584C5.98955 17.6355 4.17705 12.6667 4.17705 6.58337V6.5365C4.13018 5.93233 4.49476 5.37504 5.0833 5.28129ZM2.49997 8.76566C2.63538 8.25524 3.04163 7.7917 3.54163 7.69795C3.63538 10.7605 4.17705 13.9636 5.13018 17.1719C5.0833 17.1719 5.03643 17.1719 4.94789 17.2136C4.81247 17.3073 4.08851 17.1719 3.85934 16.9844C3.63538 16.7969 3.49476 16.474 3.35934 16.099C2.72914 14.4323 2.72913 12.573 2.45309 10.7136C2.41143 10.1094 2.31768 9.4167 2.49997 8.76566ZM1.54684 11.7813L1.91143 11.7344C1.99997 12.3855 1.99997 12.8959 2.09372 13.5L1.82288 13.5469C1.64059 13.5938 1.50518 13.4532 1.4583 13.2709L1.27601 12.1563C1.27601 11.9688 1.41143 11.8282 1.54684 11.7813Z" fill="white"/>
</g>
</svg>
