<svg width="81" height="81" viewBox="0 0 81 81" fill="none" xmlns="http://www.w3.org/2000/svg">
<mask id="mask0_21_312" style="mask-type:luminance" maskUnits="userSpaceOnUse" x="0" y="0" width="81" height="81">
<path d="M0.020874 0.770996H80.0209V80.771H0.020874V0.770996Z" fill="white"/>
</mask>
<g mask="url(#mask0_21_312)">
<path d="M80.0209 40.771C80.0209 42.0783 79.9584 43.3856 79.8282 44.6877C79.7032 45.995 79.5105 47.2866 79.2553 48.5731C79 49.8595 78.6823 51.1252 78.3021 52.3804C77.9219 53.6356 77.4792 54.8647 76.9792 56.0783C76.4792 57.2866 75.9167 58.4689 75.3021 59.6252C74.6823 60.7814 74.0105 61.9012 73.2813 62.9897C72.5521 64.0783 71.7761 65.1304 70.9428 66.146C70.1146 67.1564 69.2344 68.1252 68.3073 69.0522C67.3803 69.9793 66.4115 70.8595 65.4011 71.6877C64.3855 72.521 63.3334 73.297 62.2448 74.0262C61.1563 74.7554 60.0365 75.4272 58.8803 76.047C57.724 76.6616 56.5417 77.2241 55.3282 77.7241C54.1198 78.2241 52.8855 78.6668 51.6355 79.047C50.3803 79.4272 49.1094 79.745 47.8282 80.0002C46.5417 80.2554 45.25 80.4481 43.9428 80.5783C42.6407 80.7033 41.3334 80.771 40.0209 80.771C38.7136 80.771 37.4063 80.7033 36.1042 80.5783C34.7969 80.4481 33.5053 80.2554 32.2188 80.0002C30.9323 79.745 29.6667 79.4272 28.4115 79.047C27.1563 78.6668 25.9271 78.2241 24.7136 77.7241C23.5052 77.2241 22.323 76.6616 21.1667 76.047C20.0105 75.4272 18.8907 74.7554 17.8021 74.0262C16.7084 73.297 15.6615 72.521 14.6459 71.6877C13.6355 70.8595 12.6667 69.9793 11.7396 69.0522C10.8125 68.1252 9.93233 67.1564 9.10421 66.146C8.27087 65.1304 7.48962 64.0783 6.76567 62.9897C6.0365 61.9012 5.36462 60.7814 4.74483 59.6252C4.13025 58.4689 3.56775 57.2866 3.06775 56.0783C2.56775 54.8647 2.12504 53.6356 1.74483 52.3804C1.36462 51.1252 1.04692 49.8595 0.791707 48.5731C0.536499 47.2866 0.34379 45.995 0.213582 44.6877C0.0885824 43.3856 0.020874 42.0783 0.020874 40.771C0.020874 39.4585 0.0885824 38.1512 0.213582 36.8491C0.34379 35.5418 0.536499 34.2502 0.791707 32.9637C1.04692 31.6825 1.36462 30.4116 1.74483 29.1564C2.12504 27.9012 2.56775 26.672 3.06775 25.4637C3.56775 24.2502 4.13025 23.0679 4.74483 21.9116C5.36462 20.7554 6.0365 19.6356 6.76567 18.547C7.48962 17.4585 8.27087 16.4064 9.10421 15.3908C9.93233 14.3804 10.8125 13.4116 11.7396 12.4845C12.6667 11.5575 13.6355 10.6772 14.6459 9.84912C15.6615 9.01579 16.7084 8.23975 17.8021 7.51058C18.8907 6.78141 20.0105 6.10954 21.1667 5.48975C22.323 4.87516 23.5052 4.31266 24.7136 3.81266C25.9271 3.31266 27.1563 2.86995 28.4115 2.48975C29.6667 2.10954 30.9323 1.79183 32.2188 1.53662C33.5053 1.28141 34.7969 1.0887 36.1042 0.963704C37.4063 0.833496 38.7136 0.770996 40.0209 0.770996C41.3334 0.770996 42.6407 0.833496 43.9428 0.963704C45.25 1.0887 46.5417 1.28141 47.8282 1.53662C49.1094 1.79183 50.3803 2.10954 51.6355 2.48975C52.8855 2.86995 54.1198 3.31266 55.3282 3.81266C56.5417 4.31266 57.724 4.87516 58.8803 5.48975C60.0365 6.10954 61.1563 6.78141 62.2448 7.51058C63.3334 8.23975 64.3855 9.01579 65.4011 9.84912C66.4115 10.6772 67.3803 11.5575 68.3073 12.4845C69.2344 13.4116 70.1146 14.3804 70.9428 15.3908C71.7761 16.4064 72.5521 17.4585 73.2813 18.547C74.0105 19.6356 74.6823 20.7554 75.3021 21.9116C75.9167 23.0679 76.4792 24.2502 76.9792 25.4637C77.4792 26.672 77.9219 27.9012 78.3021 29.1564C78.6823 30.4116 79 31.6825 79.2553 32.9637C79.5105 34.2502 79.7032 35.5418 79.8282 36.8491C79.9584 38.1512 80.0209 39.4585 80.0209 40.771Z" fill="#003333"/>
</g>
<path d="M77.3542 40.7708C77.3542 41.9896 77.2917 43.2083 77.1719 44.4271C77.0521 45.6458 76.875 46.8542 76.6355 48.0521C76.3959 49.25 76.099 50.4323 75.7448 51.6042C75.3907 52.776 74.9792 53.9219 74.5105 55.0521C74.0417 56.1823 73.5209 57.2865 72.9428 58.3646C72.3698 59.4427 71.7396 60.4896 71.0625 61.5052C70.3803 62.526 69.6563 63.5052 68.8803 64.4479C68.1042 65.3958 67.2813 66.3021 66.4167 67.1667C65.5521 68.0313 64.6511 68.849 63.7032 69.625C62.7605 70.401 61.7761 71.125 60.7605 71.8073C59.7448 72.4844 58.698 73.1146 57.6198 73.6875C56.5417 74.2656 55.4375 74.7865 54.3073 75.2552C53.1771 75.724 52.0313 76.1354 50.8594 76.4896C49.6875 76.8438 48.5052 77.1406 47.3073 77.3802C46.1042 77.6198 44.9011 77.7969 43.6823 77.9167C42.4636 78.0365 41.2448 78.099 40.0209 78.099C38.8021 78.099 37.5834 78.0365 36.3646 77.9167C35.1459 77.7969 33.9375 77.6198 32.7396 77.3802C31.5417 77.1406 30.3594 76.8438 29.1875 76.4896C28.0157 76.1354 26.8646 75.724 25.7396 75.2552C24.6094 74.7865 23.5052 74.2656 22.4271 73.6875C21.349 73.1146 20.3021 72.4844 19.2865 71.8073C18.2657 71.125 17.2865 70.401 16.3438 69.625C15.3959 68.849 14.4896 68.0313 13.625 67.1667C12.7605 66.3021 11.9427 65.3958 11.1667 64.4479C10.3907 63.5052 9.6615 62.526 8.98442 61.5052C8.30733 60.4896 7.67712 59.4427 7.099 58.3646C6.52608 57.2865 6.00525 56.1823 5.5365 55.0521C5.06775 53.9219 4.65629 52.776 4.30212 51.6042C3.94796 50.4323 3.65108 49.25 3.4115 48.0521C3.17192 46.8542 2.99483 45.6458 2.87504 44.4271C2.75525 43.2083 2.69275 41.9896 2.69275 40.7708C2.69275 39.5469 2.75525 38.3281 2.87504 37.1094C2.99483 35.8906 3.17192 34.6823 3.4115 33.4844C3.65108 32.2865 3.94796 31.1042 4.30212 29.9323C4.65629 28.7604 5.06775 27.6146 5.5365 26.4844C6.00525 25.3542 6.52608 24.25 7.099 23.1719C7.67712 22.0938 8.30733 21.0469 8.98442 20.0313C9.6615 19.0104 10.3907 18.0313 11.1667 17.0885C11.9427 16.1406 12.7605 15.2396 13.625 14.375C14.4896 13.5104 15.3959 12.6875 16.3438 11.9115C17.2865 11.1354 18.2657 10.4115 19.2865 9.72917C20.3021 9.05208 21.349 8.42187 22.4271 7.84896C23.5052 7.27083 24.6094 6.75 25.7396 6.28125C26.8646 5.8125 28.0157 5.40104 29.1875 5.04688C30.3594 4.69271 31.5417 4.39583 32.7396 4.15625C33.9375 3.91667 35.1459 3.73958 36.3646 3.61979C37.5834 3.5 38.8021 3.4375 40.0209 3.4375C41.2448 3.4375 42.4636 3.5 43.6823 3.61979C44.9011 3.73958 46.1042 3.91667 47.3073 4.15625C48.5052 4.39583 49.6875 4.69271 50.8594 5.04688C52.0313 5.40104 53.1771 5.8125 54.3073 6.28125C55.4375 6.75 56.5417 7.27083 57.6198 7.84896C58.698 8.42187 59.7448 9.05208 60.7605 9.72917C61.7761 10.4115 62.7605 11.1354 63.7032 11.9115C64.6511 12.6875 65.5521 13.5104 66.4167 14.375C67.2813 15.2396 68.1042 16.1406 68.8803 17.0885C69.6563 18.0313 70.3803 19.0104 71.0625 20.0313C71.7396 21.0469 72.3698 22.0938 72.9428 23.1719C73.5209 24.25 74.0417 25.3542 74.5105 26.4844C74.9792 27.6146 75.3907 28.7604 75.7448 29.9323C76.099 31.1042 76.3959 32.2865 76.6355 33.4844C76.875 34.6823 77.0521 35.8906 77.1719 37.1094C77.2917 38.3281 77.3542 39.5469 77.3542 40.7708Z" fill="white"/>
<path fill-rule="evenodd" clip-rule="evenodd" d="M49.8959 43.0469H30.1511C29.7917 43.0469 29.4896 42.75 29.4896 42.3594V39.2083C29.4896 38.8177 29.7917 38.5156 30.1511 38.5156H49.8959C50.2552 38.5156 50.5834 38.8177 50.5834 39.2083V42.3594C50.5834 42.75 50.2552 43.0469 49.8959 43.0469ZM30.8386 41.6667H49.2032V39.8958H30.8386V41.6667Z" fill="#7DD63E"/>
<path fill-rule="evenodd" clip-rule="evenodd" d="M57.4271 50.9115C55.6563 50.9115 54.2188 49.4687 54.2188 47.6979V33.8385C54.2188 32.0937 55.6563 30.6562 57.4271 30.6562C59.1979 30.6562 60.6094 32.0937 60.6094 33.8385V47.6979C60.6094 49.4687 59.1979 50.9115 57.4271 50.9115ZM57.4271 32.0365C56.4063 32.0365 55.599 32.849 55.599 33.8385V47.6979C55.599 48.7187 56.4063 49.5313 57.4271 49.5313C58.4167 49.5313 59.2552 48.7187 59.2552 47.6979V33.8385C59.2552 32.849 58.4167 32.0365 57.4271 32.0365Z" fill="#003333"/>
<path fill-rule="evenodd" clip-rule="evenodd" d="M62.4375 48.479C60.6667 48.479 59.2552 47.0415 59.2552 45.3019V36.2655C59.2552 34.4946 60.6667 33.0571 62.4375 33.0571C64.2084 33.0571 65.6511 34.4946 65.6511 36.2655V45.3019C65.6511 47.0415 64.2084 48.479 62.4375 48.479ZM62.4375 34.4373C61.448 34.4373 60.6094 35.2446 60.6094 36.2655V45.3019C60.6094 46.2915 61.448 47.13 62.4375 47.13C63.4584 47.13 64.2709 46.2915 64.2709 45.3019V36.2655C64.2709 35.2446 63.4584 34.4373 62.4375 34.4373Z" fill="#003333"/>
<path fill-rule="evenodd" clip-rule="evenodd" d="M22.651 50.8802C20.8802 50.8802 19.4375 49.4687 19.4375 47.6979V33.8646C19.4375 32.0937 20.8802 30.6562 22.651 30.6562C24.3906 30.6562 25.8281 32.0937 25.8281 33.8646V47.6979C25.8281 49.4687 24.3906 50.8802 22.651 50.8802ZM22.651 32.0365C21.6302 32.0365 20.8177 32.849 20.8177 33.8646V47.6979C20.8177 48.7187 21.6302 49.5313 22.651 49.5313C23.6406 49.5313 24.4479 48.7187 24.4479 47.6979V33.8646C24.4479 32.849 23.6406 32.0365 22.651 32.0365Z" fill="#003333"/>
<path fill-rule="evenodd" clip-rule="evenodd" d="M17.6094 48.479C15.8646 48.479 14.4271 47.0415 14.4271 45.3019V36.2655C14.4271 34.4946 15.8646 33.0884 17.6094 33.0884C19.3802 33.0884 20.8177 34.4946 20.8177 36.2655V45.3019C20.8177 47.0415 19.3802 48.479 17.6094 48.479ZM17.6094 34.4373C16.6146 34.4373 15.8073 35.2446 15.8073 36.2655V45.3019C15.8073 46.2915 16.6146 47.0988 17.6094 47.0988C18.6302 47.0988 19.4375 46.2915 19.4375 45.3019V36.2655C19.4375 35.2446 18.6302 34.4373 17.6094 34.4373Z" fill="#003333"/>
<path fill-rule="evenodd" clip-rule="evenodd" d="M52.4167 54.1509C50.6458 54.1509 49.2031 52.7134 49.2031 50.9425V30.5936C49.2031 28.854 50.6458 27.4165 52.4167 27.4165C54.1563 27.4165 55.599 28.854 55.599 30.5936V50.9425C55.599 52.7134 54.1563 54.1509 52.4167 54.1509ZM52.4167 28.7967C51.3958 28.7967 50.5833 29.604 50.5833 30.5936V50.9425C50.5833 51.9634 51.3958 52.7707 52.4167 52.7707C53.4063 52.7707 54.2188 51.9634 54.2188 50.9425V30.5936C54.2188 29.604 53.4063 28.7967 52.4167 28.7967Z" fill="#7DD63E"/>
<path fill-rule="evenodd" clip-rule="evenodd" d="M27.6614 54.1196C25.8906 54.1196 24.4479 52.7134 24.4479 50.9425V30.6248C24.4479 28.854 25.8906 27.4165 27.6614 27.4165C29.4323 27.4165 30.8385 28.854 30.8385 30.6248V50.9425C30.8385 52.7134 29.4323 54.1196 27.6614 54.1196ZM27.6614 28.7967C26.6406 28.7967 25.8281 29.604 25.8281 30.6248V50.9425C25.8281 51.9634 26.6406 52.7707 27.6614 52.7707C28.651 52.7707 29.4895 51.9634 29.4895 50.9425V30.6248C29.4895 29.604 28.651 28.7967 27.6614 28.7967Z" fill="#7DD63E"/>
</svg>
