<svg width="315" height="433" viewBox="0 0 315 433" fill="none" xmlns="http://www.w3.org/2000/svg">
<path d="M264.135 161.245C264.135 161.167 264.13 161.089 264.125 161.005C264.13 161.083 264.135 161.167 264.135 161.245Z" fill="#E2C4AF"/>
<path d="M265.5 122.401C265.719 122.542 265.943 122.687 266.177 122.844C267.307 120.015 273.823 113.693 270.896 102.047C268.135 91.0467 263.823 83.6665 251.844 76.7707C250.807 76.1769 249.651 75.7915 248.406 75.5728C266.828 88.6457 264.693 100.724 265.307 107.495C265.594 110.604 263.135 112.469 260.307 113.792C255.016 116.271 247.87 115.661 244.703 114.646C247.687 116.208 250.24 117.292 251.875 117.552C261.047 119.005 258.266 117.698 265.5 122.401Z" fill="#D6AB8C"/>
<path d="M228.391 49.2134C230.26 53.9477 230.76 59.6821 225.271 63.6717C218.161 68.8436 204.349 67.729 194.151 60.3331C193.734 60.9842 193.271 61.5675 192.771 62.0519C194.641 66.4477 197.349 70.7967 199.901 74.3956C200.276 74.9321 200.656 75.4529 201.026 75.9581L200.974 75.8331L204.818 80.7134C204.495 80.2602 204.161 79.8123 203.797 79.3644L209.005 82.7238H211.635C211.589 83.2498 211.542 83.7811 211.495 84.3227L213.177 85.4113C213.177 85.4113 213.193 85.4373 213.219 85.4894C217.062 81.8748 223.677 76.2186 230.026 73.4529C235.521 71.0623 241.984 71.2186 246.958 74.5675L246.979 74.5831C244.089 69.104 238.849 59.7602 233.953 54.1092C233.036 53.0519 232.135 52.1248 231.26 51.3748C224.49 45.5727 208.448 38.2238 193.255 42.0311C206.599 38.7029 220.594 43.9477 228.391 49.2134Z" fill="#D9B297"/>
<path d="M196.031 55.5367C195.781 57.0992 195.089 58.87 194.151 60.3336C204.349 67.7294 218.161 68.844 225.271 63.6721C230.76 59.6825 230.26 53.9481 228.391 49.2138C220.594 43.9481 206.599 38.7034 193.255 42.0575V45.4534C193.661 45.2659 194.115 45.1461 194.646 45.1461C197.875 45.1461 196.724 51.1513 196.031 55.5367Z" fill="#E2C4AF"/>
<path d="M246.958 74.5677C241.984 71.2188 235.521 71.0625 230.026 73.4531C223.677 76.2187 217.063 81.875 213.219 85.4896C213.646 86.2813 217.354 93.0156 223.505 100.443L223.542 100.469C224.495 101.271 225.26 101.906 225.703 102.255C230.979 106.432 237.958 111.135 243.646 114.219C243.917 114.365 244.271 114.51 244.703 114.646C247.87 115.661 255.016 116.271 260.307 113.792C263.135 112.469 265.594 110.604 265.307 107.495C264.693 100.724 266.828 88.6458 248.406 75.5729C249.651 75.7917 250.807 76.1771 251.844 76.7708C263.823 83.6667 268.135 91.0469 270.896 102.047C273.823 113.693 267.307 120.016 266.177 122.844C265.943 122.688 265.719 122.542 265.5 122.401C265.078 124.052 264.729 125.479 264.469 126.594C261.708 138.625 262.807 142.656 263.62 152.13C262.922 143.979 262.01 139.849 263.531 131.198C263.917 144.078 267.177 159.073 267.177 159.073C267.177 159.073 268.505 187.328 266.844 194.307C265.182 201.292 255.719 199.396 255.719 199.396L245.172 200.531L244.24 200.63C241.385 200.63 238.057 201.13 236.99 203.776L234.854 208.516L230.927 217.245L231.391 220.417L232.922 230.875C232.922 230.875 236.245 232.87 240.568 232.536C244.896 232.203 245.891 223.229 245.891 223.229C245.891 223.229 251.88 212.26 264.182 212.26C270.5 212.26 274.495 212.26 274.495 212.26C274.495 212.26 274.573 212.229 274.714 212.177C275.839 211.729 280.995 209.234 282.474 200.958L282.391 200.911C283.307 197.026 286.625 183.01 289.188 172.307C292.193 159.766 296.938 137.432 296.172 130.292C295.359 122.677 294.583 105.521 292.911 101.901C290.339 97.1563 286.448 95.026 281.958 91.9688C278.271 87.25 272.063 79.651 265.182 72.651C257.542 64.875 255.203 64.0052 245.229 59.3542C240.099 56.9635 236.474 55.276 233.953 54.1094C238.849 59.7604 244.089 69.1042 246.979 74.5833L246.958 74.5677Z" fill="#E2C4AF"/>
<path d="M111.745 73.8906C84.6614 86.6406 78.7812 109.458 77.7864 114.516C77.8646 114.401 77.9375 114.286 78.0156 114.172C79.8541 108.401 88.3958 85.651 111.745 73.8906Z" fill="#D6AB8C"/>
<path d="M134.151 66.9946C131.74 67.4165 129.432 67.9061 127.224 68.453C128.609 68.1509 130.031 67.8853 131.49 67.6613L134.151 66.9946Z" fill="#D6AB8C"/>
<path d="M105.505 100.245C107.432 99.4271 109.422 98.7604 111.458 98.2396L110.714 97.5781C110.714 97.5781 144.62 90.8854 147.948 91.5938C149.635 91.9583 151.24 92.6458 152.708 93.5104C145.984 84.3438 139.161 69.75 137.672 61.875C137.599 61.7969 137.526 61.7187 137.453 61.6406L134.151 66.9948C131.922 70.6979 128.495 77.6354 125.167 82.2865C119.526 90.1875 111.937 96.1458 105.505 100.245Z" fill="#D6AB8C"/>
<path d="M78.0156 114.172C82.3854 107.745 89.875 102.479 102.224 101.713C84.5937 103.229 80.3906 121.713 81.1823 129.87C81.2292 130.385 81.4115 147.12 89.5833 151.432C101.557 157.745 124.516 123.729 119.516 112.203C118.828 110.625 117.969 109.286 117 108.146C119.49 110.068 121.911 112.542 123.938 115.734C127.557 121.463 127.839 127.833 126.495 134.229C126.125 137.849 126.021 144.448 129.828 146.109C134.031 147.948 143.729 147.786 151.87 145.088C152.844 144.432 153.755 143.672 154.573 142.802C154.776 142.588 154.974 142.37 155.167 142.146C155.167 142.146 159.214 135.219 159.214 131.484V106.479C159.214 103.349 157.557 100.453 154.87 98.8644L151.427 96.8332C148.953 95.3748 146.13 94.5988 143.255 94.5988L118.177 97.0571C115.906 97.2811 113.656 97.6769 111.458 98.2394C109.422 98.7603 107.432 99.4269 105.505 100.245C111.938 96.1457 119.526 90.1873 125.167 82.2863C128.495 77.6353 131.922 70.6978 134.151 66.9946L131.49 67.6613C130.031 67.8853 128.609 68.1509 127.224 68.453C121.453 69.703 116.313 71.5884 111.745 73.8905C88.3958 85.6509 79.8542 108.401 78.0156 114.172Z" fill="#E2C4AF"/>
<path d="M145.349 296.156H144.307V297.266C144.651 296.885 144.995 296.516 145.349 296.156Z" fill="#BDBDBE"/>
<path d="M161.609 365.037H161.526C155.005 365.037 149.021 361.88 144.307 356.615V386.136H171.677V364.969C171.214 365.011 170.745 365.031 170.271 365.037H161.609Z" fill="#BDBDBE"/>
<path d="M79.8073 386.135V406.667H236.182V386.135H79.8073Z" fill="#A6A6A8"/>
<path d="M79.8073 386.135H60.4739V406.667H79.8073V386.135Z" fill="#4C4C4E"/>
<path d="M255.516 406.667V386.135H236.182V406.667H255.516Z" fill="#4C4C4E"/>
<path d="M157.885 254.516L149.995 255.516L126.708 258.927C127.849 261.625 129.115 264.516 130.557 267.615C130.859 268.266 131.172 268.927 131.49 269.599L131.542 269.719H207.641C211.865 269.719 215.333 272.927 215.75 277.036C215.776 276.766 215.786 276.495 215.786 276.214V262.849L165.771 255.516L157.885 254.516Z" fill="#78787A"/>
<path d="M106.427 289.432C104.583 287.089 102.437 284.313 100.198 281.344V288.016C100.198 290.349 101.182 292.443 102.755 293.932C104.276 292.714 105.885 291.693 107.573 290.896C107.187 290.401 106.807 289.917 106.427 289.432Z" fill="#4C4C4E"/>
<path d="M207.641 269.719H131.542C131.844 270.344 132.135 270.969 132.422 271.573C138.474 284.375 141.833 292.193 143.464 296.156H145.349C149.885 291.563 155.479 288.844 161.526 288.844L161.589 288.849L170.198 288.844C175.958 288.844 181.281 291.563 185.604 296.156H207.641C212.141 296.156 215.786 292.51 215.786 288.016V277.859C215.786 277.583 215.776 277.307 215.75 277.036C215.333 272.927 211.865 269.719 207.641 269.719Z" fill="#4C4C4E"/>
<path d="M160.922 153.724C160.922 153.724 161.432 158.511 167.552 158.427C172.99 158.349 186.62 159.438 192.047 155.026C195.328 149.281 194.125 145.604 192.828 143.698C192.432 143.583 192.016 143.474 191.589 143.375C187.099 143.99 179.292 144.776 172.063 144.115C163.448 143.333 161.75 138.13 161.75 138.13L160.922 120.818V153.865V153.724Z" fill="#E2C4AF"/>
<path d="M188.578 175.276C187.188 176.276 185.729 176.583 185.729 176.583C185.729 176.583 175.323 178.838 166.974 179.099C161.411 179.276 160.922 183.338 160.922 183.338V187.146L163.375 189.219C163.484 189.307 163.604 189.385 163.719 189.463C169.635 189 179.161 188.01 188.068 186.031C189.5 181.401 190.042 177.318 188.578 175.276Z" fill="#E2C4AF"/>
<path d="M166.76 161.698C164.76 161.885 162.875 162.854 161.693 164.479C161.37 164.917 161.115 165.396 160.964 165.896L160.969 166.484C161.01 166.724 161.016 166.974 160.969 167.234V166.484C160.953 166.417 160.938 166.349 160.922 166.281V173.37L160.964 173.453C162.026 175.438 164.208 176.5 166.568 176.245L180.375 174.75C190.328 173.828 191.016 171.203 191.063 170.771C191.047 171.167 190.995 171.536 190.922 171.88C193.745 166.224 190.609 160.776 189.63 159.297C188.859 159.76 187.948 160.146 186.859 160.406C182.594 161.411 171.427 161.255 166.76 161.698Z" fill="#E2C4AF"/>
<path d="M205.542 175.531C205.526 175.427 205.51 175.323 205.495 175.219C205.505 175.266 205.51 175.323 205.521 175.37C205.526 175.422 205.536 175.479 205.542 175.531Z" fill="#E2C4AF"/>
<path d="M160.594 113.984L160.599 115.964H160.688L160.594 113.984Z" fill="#E2C4AF"/>
<path d="M211.635 82.7241H209.005L211.495 84.3231C211.542 83.7814 211.589 83.2502 211.635 82.7241Z" fill="#E2C4AF"/>
<path d="M159.724 100.406C159.807 100.552 159.885 100.703 159.964 100.844L159.932 100.287C159.854 100.333 159.786 100.37 159.724 100.406Z" fill="#E2C4AF"/>
<path d="M190.531 63.3335C189.328 73.6616 186.859 83.12 186.859 83.12C194.135 80.5783 198.214 76.4533 199.896 74.396C197.349 70.797 194.641 66.4481 192.771 62.0522C192.073 62.7241 191.312 63.1929 190.531 63.3335Z" fill="#E2C4AF"/>
<path d="M152.708 93.5106C151.24 92.646 149.635 91.9585 147.948 91.5939C144.62 90.8856 110.714 97.5783 110.714 97.5783L111.458 98.2397C113.656 97.6772 115.906 97.2814 118.177 97.0575L143.255 94.5991C146.13 94.5991 148.953 95.3752 151.427 96.8335L154.87 98.8647C157.557 100.453 159.214 103.349 159.214 106.479V129.495L160.641 126.141L160.599 115.964L160.594 113.985L160.562 106.479V102.813C160.562 102.297 160.349 101.62 159.964 100.844C159.885 100.703 159.807 100.552 159.724 100.406C159.786 100.37 159.854 100.333 159.932 100.287C163.13 98.4429 180.443 87.8335 185.896 70.7085L185.969 70.422C183.526 77.021 179.422 82.9168 174.016 87.5106C173.359 88.0731 172.526 88.3804 171.661 88.3804H159.495C158.469 88.3804 157.464 88.0783 156.604 87.5106C148.198 81.9793 142.63 73.0627 141.344 63.0887L139.901 51.8752L140.464 50.1616C140.125 49.62 139.901 49.3022 139.901 49.3022C139.901 49.3022 139.411 46.4064 137.359 45.4533C136.964 45.2658 136.505 45.146 135.979 45.146C132.74 45.146 133.896 51.1512 134.589 55.5366C134.917 57.6095 136.016 60.0366 137.453 61.6408C137.526 61.7189 137.599 61.797 137.672 61.8752C139.161 69.7502 145.984 84.3439 152.708 93.5106Z" fill="#C69575"/>
<path d="M160.922 187.146L158.464 189.219C158.177 189.448 157.87 189.641 157.552 189.818C157.766 189.828 157.885 189.833 157.885 189.833C157.885 189.833 160.141 189.745 163.719 189.464C163.604 189.386 163.484 189.307 163.375 189.219L160.922 187.146Z" fill="#B37B55"/>
<path d="M167.552 158.427C161.432 158.511 160.922 153.724 160.922 153.724V153.865L160.964 165.896C161.115 165.396 161.37 164.917 161.693 164.479C162.875 162.854 164.76 161.886 166.76 161.698C171.427 161.255 182.594 161.412 186.859 160.406C187.948 160.146 188.859 159.761 189.63 159.297C189.458 159.047 189.354 158.912 189.354 158.912C190.479 157.521 191.359 156.229 192.047 155.026C186.62 159.438 172.99 158.349 167.552 158.427Z" fill="#C69575"/>
<path d="M180.375 174.75L166.568 176.245C164.208 176.5 162.026 175.438 160.964 173.453L160.922 173.37V183.339C160.922 183.339 161.411 179.276 166.974 179.099C175.323 178.839 185.729 176.583 185.729 176.583C185.729 176.583 187.188 176.276 188.578 175.276L188.526 175.198C189.594 174.099 190.37 172.99 190.922 171.88C190.995 171.537 191.047 171.167 191.063 170.771C191.016 171.203 190.328 173.828 180.375 174.75Z" fill="#C69575"/>
<path d="M205.542 175.531C205.536 175.479 205.526 175.422 205.521 175.37C205.51 175.323 205.505 175.265 205.495 175.219C205.422 174.739 205.349 174.255 205.281 173.765L205.276 173.729C205.193 173.193 205.115 172.656 205.036 172.114L205.031 172.083C204.953 171.536 204.87 170.995 204.792 170.448L204.786 170.422C204.708 169.87 204.625 169.312 204.547 168.76C204.385 167.646 204.229 166.536 204.068 165.443C204.031 165.14 203.984 164.844 203.948 164.547L203.927 164.411C203.896 164.172 203.859 163.932 203.828 163.693C203.812 163.599 203.802 163.51 203.786 163.417C203.76 163.213 203.734 163.015 203.708 162.818C203.693 162.729 203.682 162.635 203.667 162.547C203.641 162.349 203.615 162.156 203.589 161.969C203.578 161.88 203.562 161.786 203.552 161.698C203.526 161.495 203.495 161.297 203.469 161.099C203.458 161.015 203.448 160.937 203.437 160.859C203.411 160.656 203.385 160.453 203.359 160.255C203.349 160.182 203.339 160.104 203.328 160.031C203.297 159.776 203.26 159.521 203.229 159.271C203.151 158.703 203.083 158.167 203.021 157.651L203.005 157.562C202.979 157.338 202.953 157.12 202.927 156.901C202.917 156.844 202.911 156.792 202.906 156.739C202.88 156.552 202.859 156.37 202.839 156.187C202.828 156.114 202.818 156.042 202.807 155.974C202.792 155.812 202.771 155.651 202.75 155.495C202.745 155.422 202.734 155.344 202.724 155.271C202.708 155.114 202.687 154.958 202.672 154.802C202.667 154.734 202.656 154.667 202.651 154.599C202.63 154.448 202.615 154.297 202.599 154.146C202.589 154.088 202.583 154.021 202.578 153.963C202.557 153.797 202.542 153.635 202.521 153.474L202.51 153.354C202.49 153.151 202.469 152.958 202.448 152.771C202.38 152.073 202.323 151.453 202.281 150.917C202.281 150.917 200.391 145.927 192.828 143.698C194.125 145.604 195.328 149.281 192.047 155.026C191.359 156.229 190.479 157.521 189.354 158.911C189.354 158.911 189.458 159.047 189.63 159.297C190.609 160.776 193.745 166.224 190.922 171.88C190.37 172.989 189.594 174.099 188.526 175.198L188.578 175.276C190.042 177.318 189.5 181.401 188.068 186.031C188.901 185.849 189.724 185.651 190.542 185.453C198.557 177.088 204.026 172.364 204.172 173.385C204.49 175.698 204.812 177.864 205.109 179.823C205.453 179.599 205.776 179.375 206.089 179.14C206.057 178.927 206.026 178.719 205.99 178.505C205.844 177.542 205.693 176.547 205.542 175.531Z" fill="#D6AB8C"/>
<path d="M202.281 150.917C201.542 140.969 208.474 131.016 209.312 116.042C209.344 115.453 209.375 114.88 209.406 114.302L208.526 114.912C208.5 115.261 208.469 115.615 208.443 115.974C207.547 127.235 199.411 137.703 193.771 139.63C192.927 139.917 192.005 140.188 191.026 140.438C190.505 141.276 189.948 142.115 189.354 142.953C190.146 143.068 190.885 143.208 191.589 143.375C192.016 143.474 192.432 143.583 192.828 143.698C200.391 145.927 202.281 150.917 202.281 150.917Z" fill="#C69575"/>
<path d="M141.464 176.86H155.276C157.63 176.86 159.812 175.563 160.875 173.458L160.922 173.37V166.281C160.281 163.958 155.932 162.896 155.932 162.896C155.932 162.896 141.24 163.802 135.755 164.026C133.807 164.104 132.396 163.771 131.375 163.24C130.708 164.328 127.417 170.307 132.026 175.464C133.333 176.214 136.005 176.943 141.464 176.86Z" fill="#D6AB8C"/>
<path d="M145.458 149.432C142.771 150.328 135.792 151.224 128.917 151.938C128.156 153.786 127.953 156.401 129.583 159.859C134.047 162.656 148.911 160.328 154.437 159.406C160.422 158.411 160.922 153.422 160.922 153.422V120.818L161.75 138.13C161.75 138.13 163.448 143.333 172.062 144.115C179.292 144.776 187.099 143.99 191.589 143.375C190.885 143.208 190.146 143.068 189.354 142.953C189.948 142.115 190.505 141.276 191.026 140.438C183.01 142.5 171.089 143.151 167.469 138.74L167.141 138.365C164.604 135.458 163.203 131.729 163.203 127.87V104.229C163.203 101.063 166.406 95.9167 174.057 92.2604L192.797 86.8177C197.943 85.3229 203.156 80.8073 201.026 75.9583C200.656 75.4531 200.276 74.9323 199.896 74.3958C198.214 76.4531 194.135 80.5781 186.859 83.1198C186.859 83.1198 189.328 73.6615 190.531 63.3333C189.734 63.4792 188.927 63.2865 188.141 62.625L187.396 65.724C187.01 67.3229 186.536 68.8906 185.969 70.4219L185.896 70.7083C180.443 87.8333 163.13 98.4427 159.932 100.286L159.964 100.844C160.349 101.62 160.562 102.297 160.562 102.813V106.479L160.594 113.984L160.687 115.964H160.599L160.641 126.141L160.698 126C160.698 126 160.698 142.542 160.698 146.943C160.698 142.427 156.604 142.495 154.573 142.802C153.755 143.672 152.844 144.432 151.87 145.089C152.172 144.99 152.474 144.885 152.771 144.781C152.771 144.781 151.443 147.438 145.458 149.432Z" fill="#D6AB8C"/>
<path d="M158.464 189.219L160.922 187.146V183.339C160.922 183.339 160.427 179.328 154.87 179.755C146.516 180.401 136.109 179.276 136.109 179.276C136.109 179.276 134.62 179.12 133.214 178.25C132.187 179.526 130.937 182.281 132.979 187.083C144.427 189.135 155.536 189.724 157.552 189.818C157.87 189.641 158.177 189.448 158.464 189.219Z" fill="#D6AB8C"/>
<path d="M160.698 146.943C160.698 142.542 160.698 126 160.698 126L160.641 126.141L159.214 129.495V131.484C159.214 135.219 155.167 142.146 155.167 142.146C154.974 142.37 154.776 142.589 154.573 142.802C156.604 142.495 160.698 142.427 160.698 146.943Z" fill="#B37B55"/>
<path d="M133.214 178.25C132 177.495 130.854 176.213 130.781 174.036C130.802 174.229 130.953 174.849 132.026 175.463C127.417 170.307 130.708 164.328 131.375 163.239C128.651 161.833 128.693 159.047 128.693 159.047C128.906 159.359 129.214 159.625 129.583 159.859C127.953 156.401 128.156 153.786 128.917 151.937C135.792 151.224 142.771 150.328 145.458 149.432C151.443 147.437 152.771 144.781 152.771 144.781C152.474 144.885 152.172 144.989 151.87 145.088C143.729 147.786 134.031 147.948 129.828 146.109C126.021 144.448 126.125 137.849 126.495 134.229C126.391 134.745 126.276 135.255 126.146 135.765L126.167 135.807C126.167 135.807 122.839 155.083 122.51 157.411C122.51 157.411 124.599 169.953 123.969 185.125C122.755 184.807 121.568 184.469 120.417 184.109C124.344 185.344 128.687 186.318 132.979 187.083C130.937 182.281 132.187 179.526 133.214 178.25Z" fill="#C69575"/>
<path d="M190.542 185.453C196.208 184.052 201.448 182.214 205.109 179.823C204.812 177.865 204.49 175.698 204.172 173.386C204.026 172.365 198.557 177.089 190.542 185.453Z" fill="#C69575"/>
<path d="M192.797 86.8179L174.057 92.2606C166.406 95.9168 163.203 101.063 163.203 104.229V127.87C163.203 131.729 164.604 135.459 167.141 138.365L167.469 138.74C171.089 143.151 183.01 142.5 191.026 140.438C192.005 140.188 192.927 139.917 193.771 139.63C199.411 137.703 207.547 127.235 208.443 115.974C208.469 115.615 208.5 115.261 208.526 114.912L209.406 114.302C209.672 109.698 209.932 105.432 210.198 101.495L210.052 103.052C209.484 98.6668 210.99 89.4116 204.818 80.7137L200.974 75.8335L201.026 75.9585C203.156 80.8075 197.943 85.3231 192.797 86.8179Z" fill="#E2C4AF"/>
<path d="M63.4948 250.719C70.4896 258.516 79.1146 264.516 88.3177 264.682C85.4792 260.354 83.2969 256.594 82.4896 254.219C76.5677 252.526 70.8906 250.745 63.4948 250.719Z" fill="#151515"/>
<path d="M62.776 205.604C62.5417 205.505 62.3125 205.401 62.0729 205.307C61.9062 205.24 61.7396 205.167 61.5729 205.099C61.0469 204.891 60.5208 204.698 59.9896 204.505C59.8177 204.443 59.6458 204.375 59.4687 204.313C58.7708 204.068 58.0625 203.828 57.3489 203.609C57.3489 203.609 52.25 204.417 49.0417 208.583C50.0312 208.234 51.026 207.901 52.0312 207.599L62.776 205.604Z" fill="#151515"/>
<path d="M27.8489 229.63C31.0885 219.599 40.6927 214.203 51.1718 214.75C65.651 215.51 75.6146 231.708 65.1406 239.682C64.3333 240.297 63.6093 240.901 62.9687 241.484C66.0833 238.765 70.0781 236.609 74.0208 235.292C72.7291 228.245 71.6718 221.349 71.6718 219.458C71.9166 216.734 72.5729 214.015 73.4427 211.364C72.8541 210.969 72.2552 210.583 71.6458 210.203L71.625 210.187C71.0156 209.812 70.401 209.443 69.7812 209.083L69.6927 209.036C69.1041 208.693 68.5052 208.364 67.901 208.042C67.8385 208.005 67.776 207.974 67.7135 207.943C67.1458 207.64 66.5729 207.349 65.9948 207.062C65.8958 207.015 65.7968 206.963 65.6979 206.917C65.1562 206.656 64.6093 206.401 64.0573 206.156C63.9218 206.094 63.7864 206.026 63.6458 205.969C63.3593 205.844 63.0625 205.724 62.776 205.604L52.0312 207.599C51.026 207.901 50.0312 208.234 49.0416 208.583C38.2812 212.437 28.4948 219.281 27.75 229.885L27.7708 229.901C27.7968 229.807 27.8177 229.724 27.8489 229.63Z" fill="#D6AB8C"/>
<path d="M82.4896 254.219C82.4479 254.099 82.4167 253.989 82.3802 253.89C80.8698 253.453 79.4375 253.026 78.1094 252.646C77.1979 251.156 75.4635 243.13 74.0208 235.292C70.0781 236.609 66.0833 238.765 62.9687 241.484C60.0833 244.109 58.7656 246.38 58.1823 248.052C58.2448 248.917 58.3073 249.896 58.3646 250.979C60.1719 250.797 61.875 250.713 63.4948 250.719C70.8906 250.745 76.5677 252.526 82.4896 254.219Z" fill="#C08A67"/>
<path d="M73.4896 211.396L73.4427 211.365C72.5729 214.016 71.9167 216.735 71.6719 219.458C71.6719 221.349 72.7292 228.245 74.0208 235.292C75.3698 234.833 76.7083 234.485 78.0104 234.24C77.4844 230.974 77.1615 228.276 77.1615 226.938C77.4323 223.948 78.125 220.146 79.0677 216.427C78.9896 216.151 78.875 215.766 78.7292 215.271C77.0625 213.912 75.3125 212.615 73.4896 211.396Z" fill="#D6AB8C"/>
<path d="M74.0208 235.292C72.7292 228.245 71.6719 221.349 71.6719 219.458C71.9167 216.735 72.5729 214.016 73.4427 211.365L73.4896 211.396C75.3125 212.615 77.0625 213.912 78.7292 215.271C78.875 215.766 78.9896 216.151 79.0677 216.427C78.125 220.146 77.4323 223.948 77.1615 226.938C77.1615 228.276 77.4844 230.974 78.0104 234.24C76.7083 234.485 75.3698 234.833 74.0208 235.292Z" fill="#C08B69"/>
<path d="M78.1094 252.646C79.4375 253.026 80.8698 253.453 82.3802 253.891C80.7812 249.021 79.0208 240.568 78.0104 234.24C76.7083 234.485 75.3698 234.833 74.0208 235.292C75.4635 243.13 77.1979 251.156 78.1094 252.646Z" fill="#C08A67"/>
<path d="M82.3802 253.891C80.8698 253.453 79.4375 253.026 78.1094 252.646C77.1979 251.156 75.4635 243.13 74.0208 235.292C75.3698 234.833 76.7083 234.485 78.0104 234.24C79.0208 240.568 80.7812 249.021 82.3802 253.891Z" fill="#AC704E"/>
<path d="M157.885 189.833C157.885 189.833 157.766 189.828 157.552 189.818C155.536 189.724 144.427 189.136 132.979 187.083C128.687 186.318 124.344 185.344 120.417 184.115C120.411 188.104 120.245 192.089 119.896 195.516C119.875 195.755 119.802 196.031 119.693 196.333C119.484 198.198 119.234 199.875 118.932 201.266C133.531 211.193 152.953 229.521 149.995 255.516L157.885 254.516V189.833Z" fill="#151515"/>
<path d="M77.8958 212.427C77.8698 212.344 77.8437 212.255 77.8177 212.172C77.7604 211.969 77.7031 211.765 77.6406 211.552C77.6198 211.479 77.5937 211.406 77.5729 211.328C77.4948 211.057 77.4114 210.776 77.3281 210.489C77.3073 210.411 77.2864 210.338 77.2604 210.26C77.2291 210.161 77.2031 210.062 77.1719 209.963C75.9271 210.443 74.6979 210.917 73.4896 211.396C75.3125 212.614 77.0625 213.911 78.7291 215.271C78.5729 214.734 78.3802 214.078 78.1562 213.312C78.1406 213.255 78.1198 213.198 78.1041 213.135C78.0364 212.911 77.9635 212.672 77.8958 212.427Z" fill="#313131"/>
<path d="M118.932 201.266C118.667 202.479 118.37 203.474 118.031 204.193C113.964 212.844 113.75 220.911 113.531 230.542C113.229 230.474 112.875 230.339 112.484 230.141C113.229 230.839 113.922 231.604 114.573 232.438C115.042 233.042 115.484 233.677 115.917 234.349C116.885 235.854 117.776 237.552 118.667 239.464C118.698 239.531 118.729 239.594 118.76 239.661C119.005 240.193 119.25 240.74 119.495 241.297C119.651 241.656 119.807 242.016 119.964 242.385C120.615 243.917 121.286 245.563 121.995 247.333C122.177 247.786 122.359 248.25 122.547 248.724C123.766 251.771 125.109 255.161 126.708 258.927L149.995 255.516C152.953 229.521 133.531 211.193 118.932 201.266Z" fill="#313131"/>
<path d="M59.9896 204.505C60.5208 204.698 61.0469 204.891 61.5729 205.099C61.7396 205.167 61.9062 205.24 62.0729 205.307C62.3125 205.401 62.5416 205.505 62.776 205.604C63.0625 205.724 63.3594 205.844 63.6458 205.969C63.7864 206.026 63.9219 206.094 64.0573 206.156C64.6094 206.401 65.1562 206.656 65.6979 206.917C65.7969 206.964 65.8958 207.016 65.9948 207.063C66.5729 207.349 67.1458 207.641 67.7135 207.943C67.776 207.974 67.8385 208.005 67.901 208.042C68.5052 208.365 69.1041 208.693 69.6927 209.036L69.7812 209.083C70.401 209.443 71.0156 209.813 71.625 210.188L71.6458 210.203C72.2552 210.583 72.8541 210.969 73.4427 211.365L73.4896 211.396C74.6979 210.917 75.9271 210.443 77.1719 209.964C77.1094 209.75 77.0469 209.531 76.9844 209.313C76.9635 209.234 76.9375 209.156 76.9166 209.073C76.8281 208.766 76.7344 208.453 76.6406 208.13L76.6146 208.036C76.5156 207.693 76.4114 207.344 76.3125 206.99C76.2812 206.885 76.25 206.781 76.2187 206.672C76.1198 206.344 76.026 206.005 75.9271 205.661C75.8958 205.557 75.8646 205.443 75.8333 205.333C75.6094 204.568 75.3802 203.776 75.1458 202.964C75.125 202.885 75.1041 202.813 75.0833 202.734C74.9739 202.354 74.8594 201.964 74.75 201.573C74.7135 201.448 74.6771 201.318 74.6354 201.188C74.5364 200.828 74.4323 200.469 74.3281 200.104C74.3125 200.057 74.2969 200.01 74.2864 199.958C74.2604 199.87 74.2344 199.781 74.2083 199.688C64.7135 201.917 57.3489 203.609 57.3489 203.609C58.0625 203.828 58.7708 204.068 59.4687 204.313C59.6458 204.375 59.8177 204.443 59.9896 204.505Z" fill="#28B0B8"/>
<path d="M43.0573 375.792C43.1146 375.708 43.1667 375.614 43.2083 375.526C43.2969 374.703 43.3958 373.838 43.4948 372.948L43.4844 372.87C44.8958 360.484 47.0937 341.703 49.0885 328.104C49.0521 328.182 49.026 328.239 49.0104 328.265C46.6979 341.245 44.3385 363.114 43.0573 375.792Z" fill="#DDBAA1"/>
<path d="M33.7917 375.041C34.724 357.614 35.8646 340.307 36.5937 316.87C38.1094 267.791 53.7604 253.234 58.1562 247.661C58.1667 247.786 58.1771 247.922 58.1823 248.052C58.7656 246.38 60.0833 244.109 62.9687 241.484C63.6094 240.901 64.3333 240.297 65.1406 239.682C75.6146 231.708 65.651 215.51 51.1719 214.75C40.6927 214.203 31.0885 219.599 27.849 229.63C27.8177 229.719 27.7969 229.807 27.7708 229.901L27.75 229.885C27.724 229.875 16.4219 265.109 19.0781 293.698C21.4427 319.078 22.8594 358.062 22.5156 374.687C24.1198 375.203 27.6302 375.875 33.7917 375.041Z" fill="#DDBAA1"/>
<path d="M58.1823 248.052C58.1771 247.922 58.1667 247.787 58.1562 247.662C53.7604 253.235 38.1094 267.792 36.5937 316.87C35.8646 340.307 34.7239 357.615 33.7917 375.042C34.8437 374.896 35.9739 374.714 37.1927 374.474C39.6094 374.599 40.651 376.052 41.0989 377.313L41.1406 377.224C41.1406 377.224 42.4375 376.745 43.0573 375.792C44.3385 363.115 46.6979 341.245 49.0104 328.266C49.026 328.24 49.0521 328.182 49.0885 328.104C49.8125 326.464 54.6927 314.281 57.5052 299.443C59.0208 292.594 59.6667 285.557 59.4739 278.505C59.4635 278.089 59.4531 277.672 59.4375 277.261C59.1146 268.511 58.75 257.807 58.3646 250.979C58.3073 249.896 58.2448 248.917 58.1823 248.052Z" fill="#D6AB8C"/>
<mask id="mask0_20_293" style="mask-type:luminance" maskUnits="userSpaceOnUse" x="0" y="373" width="42" height="54">
<path d="M0.880188 373.333H41.3333V426.667H0.880188V373.333Z" fill="white"/>
</mask>
<g mask="url(#mask0_20_293)">
<path d="M5.59894 425.422C9.20831 426.339 13.4323 424.891 17.6927 425.198C20.7812 425.417 23.1614 425.901 25.2344 426.094C32.2916 421.932 32.6146 416.943 32.6146 416.943L32.9687 406.922C33.2812 398.099 35.4323 389.323 39.2864 381.151L41.0989 377.313C40.651 376.052 39.6094 374.599 37.1927 374.474C35.9739 374.714 34.8437 374.896 33.7916 375.042C27.6302 375.875 24.1198 375.203 22.5156 374.688C21.7656 374.448 21.4323 374.245 21.4323 374.245C21.4323 374.245 18.5989 371.266 17.7239 377.682C16.8489 384.099 18.1875 388.912 12.5521 398.078C6.91665 407.245 1.77602 411.599 1.26561 415.953C0.963522 418.521 0.874981 420.448 0.880189 421.854C2.1979 423.667 2.97915 424.76 5.59894 425.422Z" fill="#D9D8EC"/>
</g>
<path d="M43.4948 372.948C43.526 373.188 43.6041 374.011 43.3385 375.162C43.3073 375.287 43.2604 375.406 43.2083 375.526C43.1666 375.615 43.1146 375.709 43.0573 375.792C42.4375 376.745 41.1406 377.224 41.1406 377.224L41.0989 377.313L39.2864 381.151C35.4323 389.323 33.2812 398.099 32.9687 406.922L32.6146 416.943C32.6146 416.943 32.2916 421.932 25.2343 426.094C26.2187 426.188 27.1354 426.214 28.026 426.115C32.0312 425.651 34.8125 425.198 39.2916 418.427C39.2187 418.677 39.1406 418.959 39.0573 419.25C41.0833 414.49 40.9062 409.24 41.0937 406.339C40.9843 408.016 40.8385 410.235 40.5052 412.636C40.625 406.766 39.1927 401.156 39.8958 394.943C40.7552 387.401 44.7604 381.344 46.3073 379.245C46.5156 382.219 46.401 384.469 46.3854 384.755C46.4062 384.422 46.6093 380.682 46.0156 376.307C45.4323 372.005 43.7187 372.75 43.5052 372.86L43.4948 372.948Z" fill="#C6C5E3"/>
<mask id="mask1_20_293" style="mask-type:luminance" maskUnits="userSpaceOnUse" x="0" y="418" width="40" height="15">
<path d="M0.880188 418.078H39.401V432.51H0.880188V418.078Z" fill="white"/>
</mask>
<g mask="url(#mask1_20_293)">
<path d="M28.026 426.115C27.1354 426.214 26.2187 426.188 25.2344 426.094C23.1614 425.901 20.7812 425.417 17.6927 425.198C13.4323 424.891 9.20831 426.339 5.59894 425.422C2.97915 424.761 2.1979 423.667 0.880188 421.854L0.885396 421.932C0.901022 424.261 1.10935 426.115 1.10935 426.115C1.10935 426.115 3.66144 432.182 15.3802 432.485C21.2291 432.636 32.6719 432.297 36.3594 426.62C37.4896 424.985 38.4114 421.578 39.0573 419.25C39.1406 418.958 39.2187 418.677 39.2916 418.427C34.8125 425.198 32.0312 425.651 28.026 426.115Z" fill="#3A3C3B"/>
</g>
<path d="M46.3072 379.245C44.7604 381.344 40.7552 387.401 39.8958 394.943C39.1927 401.156 40.625 406.765 40.5052 412.635C40.8385 410.234 40.9843 408.015 41.0937 406.338C41.2031 404.62 41.4479 402.849 41.75 401.167C44.6875 399.87 46.3854 396.745 46.3854 396.745V384.755C46.401 384.469 46.5156 382.219 46.3072 379.245Z" fill="#3A3C3B"/>
<path d="M216.589 257.182C215.786 254.286 215.422 250.39 216.51 245.489C217.302 241.943 218.802 238.151 220.901 234.333C223.516 229.588 227.068 224.812 231.391 220.417L230.927 217.245L234.854 208.515C223.224 204 211.656 199.078 212.073 192.604C212.073 192.604 161.104 214.531 165.771 255.515L215.786 262.849L219.839 263.443C231.849 267.656 243.38 260.635 252.271 250.719C238.656 250.765 230.865 256.776 216.589 257.182Z" fill="#151515"/>
<path d="M264.182 212.261C251.88 212.261 245.891 223.229 245.891 223.229C245.891 223.229 244.896 232.203 240.568 232.537C236.245 232.87 232.922 230.875 232.922 230.875L231.391 220.417C227.068 224.813 223.516 229.589 220.901 234.333L232.833 233.865C238.677 233.5 247.177 236.578 252.797 241.485C252.156 240.901 251.432 240.297 250.625 239.682C240.151 231.708 250.115 215.511 264.594 214.75C275.073 214.203 284.677 219.599 287.917 229.63C287.948 229.719 287.969 229.807 287.995 229.901L288.016 229.886C287.464 222.016 281.927 216.219 274.714 212.177C274.573 212.229 274.495 212.261 274.495 212.261C274.495 212.261 270.5 212.261 264.182 212.261Z" fill="#D6AB8C"/>
<path d="M257.583 248.052C257 246.38 255.682 244.109 252.797 241.484C247.177 236.578 238.677 233.5 232.833 233.865L220.901 234.333C218.802 238.151 217.302 241.943 216.51 245.49C215.422 250.391 215.786 254.287 216.589 257.182C230.865 256.776 238.656 250.766 252.271 250.719C253.891 250.714 255.594 250.797 257.401 250.979C257.458 249.896 257.521 248.917 257.583 248.052Z" fill="#C08A67"/>
<path d="M208.734 186.265L207.057 178.37C206.755 178.63 206.427 178.885 206.089 179.14C205.776 179.375 205.453 179.599 205.109 179.823C201.448 182.213 196.208 184.052 190.542 185.453C189.724 185.651 188.901 185.849 188.068 186.031C179.161 188.01 169.635 189 163.719 189.463C160.141 189.745 157.885 189.833 157.885 189.833V254.515L165.771 255.515C161.104 214.531 212.073 192.604 212.073 192.604L212.208 192.64L208.734 186.265Z" fill="#3A3C3B"/>
<path d="M244.24 200.63L245.172 200.531C235.26 198.219 221.823 195.042 212.208 192.64L212.073 192.604C211.656 199.078 223.224 204 234.854 208.515L236.99 203.776C238.057 201.13 241.385 200.63 244.24 200.63Z" fill="#28B0B8"/>
<path d="M272.271 372.948C272.37 373.838 272.469 374.703 272.557 375.526C272.604 375.614 272.651 375.708 272.708 375.792C271.432 363.114 269.068 341.245 266.755 328.265C266.74 328.239 266.714 328.182 266.682 328.104C268.672 341.703 270.87 360.484 272.26 372.859L272.271 372.948Z" fill="#DDBAA1"/>
<path d="M287.917 229.63C284.677 219.599 275.073 214.203 264.594 214.75C250.115 215.51 240.151 231.708 250.625 239.682C251.432 240.297 252.156 240.901 252.797 241.484C255.682 244.109 257 246.38 257.583 248.052C257.594 247.922 257.599 247.786 257.609 247.661C262.005 253.234 277.656 267.791 279.177 316.87C279.901 340.307 281.042 357.614 281.979 375.041C288.135 375.875 291.646 375.203 293.25 374.687C292.906 358.062 294.328 319.078 296.688 293.698C299.349 265.109 288.042 229.875 288.042 229.875L287.995 229.901C287.969 229.807 287.948 229.719 287.917 229.63Z" fill="#DDBAA1"/>
<path d="M272.708 375.792C273.328 376.745 274.625 377.224 274.625 377.224L274.667 377.313C275.115 376.052 276.156 374.599 278.573 374.474C279.792 374.714 280.922 374.896 281.979 375.042C281.042 357.615 279.901 340.307 279.177 316.87C277.656 267.792 262.005 253.235 257.609 247.662C257.599 247.787 257.594 247.922 257.583 248.052C257.521 248.917 257.458 249.896 257.401 250.979C257.016 257.807 256.651 268.511 256.328 277.261C256.313 277.672 256.302 278.089 256.292 278.505C256.099 285.557 256.75 292.594 258.266 299.443C261.073 314.281 265.953 326.464 266.682 328.104C266.714 328.182 266.74 328.24 266.755 328.266C269.068 341.245 271.432 363.115 272.708 375.792Z" fill="#D6AB8C"/>
<mask id="mask2_20_293" style="mask-type:luminance" maskUnits="userSpaceOnUse" x="274" y="373" width="41" height="54">
<path d="M274.667 373.333H314.88V426.401H274.667V373.333Z" fill="white"/>
</mask>
<g mask="url(#mask2_20_293)">
<path d="M281.979 375.042C280.922 374.896 279.792 374.714 278.573 374.474C276.156 374.599 275.115 376.052 274.667 377.313L276.479 381.151C280.333 389.323 282.49 398.099 282.797 406.922L283.151 416.943C283.151 416.943 283.474 421.932 290.531 426.094C292.604 425.901 294.984 425.417 298.073 425.198C302.333 424.891 306.557 426.339 310.167 425.422C312.786 424.76 313.568 423.667 314.885 421.854C314.891 420.448 314.802 418.521 314.5 415.953C313.99 411.599 308.849 407.245 303.214 398.078C297.578 388.912 298.917 384.099 298.042 377.682C297.172 371.266 294.339 374.245 294.339 374.245C294.339 374.245 294 374.448 293.25 374.688C291.646 375.203 288.135 375.875 281.979 375.042Z" fill="#D9D8EC"/>
</g>
<path d="M287.74 426.114C288.63 426.213 289.547 426.187 290.531 426.094C283.474 421.932 283.151 416.943 283.151 416.943L282.797 406.922C282.49 398.099 280.333 389.323 276.479 381.151L274.667 377.312L274.625 377.224C274.625 377.224 273.328 376.745 272.708 375.792C272.651 375.708 272.604 375.614 272.557 375.526C272.505 375.406 272.458 375.286 272.432 375.161C272.161 374.01 272.24 373.187 272.271 372.948L272.281 372.87C272.052 372.75 270.333 372.005 269.75 376.307C269.156 380.713 269.365 384.474 269.38 384.76C269.365 384.489 269.25 382.234 269.458 379.245C271.005 381.344 275.01 387.401 275.87 394.943C276.573 401.156 275.146 406.766 275.26 412.635C274.927 410.234 274.781 408.016 274.672 406.338C274.859 409.239 274.682 414.489 276.708 419.25C276.625 418.958 276.547 418.677 276.474 418.427C280.958 425.198 283.734 425.651 287.74 426.114Z" fill="#C6C5E3"/>
<mask id="mask3_20_293" style="mask-type:luminance" maskUnits="userSpaceOnUse" x="276" y="418" width="39" height="15">
<path d="M276.255 418.078H314.88V432.51H276.255V418.078Z" fill="white"/>
</mask>
<g mask="url(#mask3_20_293)">
<path d="M314.885 421.854C313.568 423.667 312.786 424.761 310.167 425.422C306.557 426.339 302.333 424.891 298.073 425.198C294.984 425.417 292.604 425.901 290.531 426.094C289.547 426.188 288.63 426.214 287.74 426.115C283.734 425.651 280.958 425.198 276.474 418.427C276.547 418.677 276.625 418.958 276.708 419.25C277.359 421.578 278.276 424.985 279.406 426.62C283.094 432.297 294.536 432.636 300.385 432.485C312.104 432.182 314.656 426.115 314.656 426.115C314.656 426.115 314.87 424.261 314.885 421.932V421.854Z" fill="#3A3C3B"/>
</g>
<path d="M275.87 394.943C275.01 387.401 271.005 381.344 269.458 379.245C269.25 382.234 269.365 384.489 269.38 384.76L269.385 384.786V396.745C269.385 396.745 271.078 399.87 274.016 401.167C274.318 402.849 274.563 404.62 274.672 406.328C274.781 408.015 274.927 410.234 275.26 412.635C275.146 406.765 276.573 401.156 275.87 394.943Z" fill="#3A3C3B"/>
<path d="M122.51 157.411C122.839 155.083 126.167 135.807 126.167 135.807L126.146 135.766C124.437 142.656 121.005 149.521 118.01 155.578C118.01 155.583 119.031 164.031 119.651 169.656C119.724 170.26 119.792 170.896 119.854 171.552C119.964 172.589 120.042 173.427 120.083 173.958C120.312 177.099 120.427 180.604 120.417 184.109C121.568 184.469 122.755 184.807 123.969 185.125C124.599 169.953 122.51 157.411 122.51 157.411Z" fill="#B37B55"/>
<path d="M107.573 290.896C110.359 289.573 113.349 288.844 116.464 288.844H125.13C130.615 288.844 135.698 291.302 139.901 295.495C131.922 278.781 120.521 255.839 112.031 242.677C97.5677 220.245 94.9166 213.74 94.9166 213.734C88.9271 207.026 88.6146 197.307 89.2552 186.708C90.5052 198.219 97.4114 205.755 102.161 209.646C104.573 211.63 108.104 211.38 110.182 209.052C113.646 205.177 118.604 199.302 119.693 196.333C119.802 196.031 119.875 195.755 119.896 195.516C120.245 192.089 120.411 188.104 120.417 184.115C120.427 180.604 120.312 177.099 120.083 173.958C120.042 173.427 119.964 172.589 119.854 171.552C119.792 170.974 119.724 170.339 119.651 169.656C119.031 164.031 118.01 155.583 118.005 155.578C117.995 155.589 112.214 158.594 105.635 162.37C103.005 163.885 100.24 165.526 97.6719 167.146C93.7969 169.594 90.9531 173.349 89.7291 177.661C89.1562 175.333 86.7864 166.464 82.2969 159.365C79.0156 154.177 76.4375 150.161 74.7291 145.359C74.4948 146.521 73.6666 150.917 71.8541 162.984C69.776 176.807 69.9479 184.073 73.625 197.594C73.0052 195.318 72.4948 193.219 72.0677 191.229C74.4635 194.828 77.2291 198.974 79.1094 201.786C80.5729 203.984 80.151 209.818 79.0364 216.313C78.8646 215.719 78.5573 214.682 78.1562 213.313C78.3802 214.078 78.5729 214.734 78.7291 215.271C78.875 215.766 78.9896 216.151 79.0677 216.427C78.125 220.146 77.4323 223.948 77.1614 226.938C77.1614 228.276 77.4844 230.974 78.0104 234.24C79.0208 240.568 80.7812 249.021 82.3802 253.891C82.4166 253.99 82.4479 254.099 82.4791 254.198C83.2969 256.594 85.4791 260.354 88.3177 264.682C91.7396 269.901 96.1198 275.943 100.198 281.344C102.437 284.313 104.583 287.089 106.427 289.432C106.807 289.917 107.187 290.401 107.573 290.896Z" fill="#E2C4AF"/>
<path d="M122.547 248.724C124.63 253.953 127.099 260.188 130.557 267.615C129.115 264.516 127.849 261.625 126.708 258.927C125.109 255.162 123.766 251.771 122.547 248.724Z" fill="#E2C4AF"/>
<path d="M122.547 248.724C122.359 248.25 122.177 247.786 121.995 247.333C121.286 245.563 120.615 243.917 119.964 242.385C119.807 242.016 119.651 241.656 119.495 241.297C119.25 240.74 119.005 240.193 118.76 239.661C118.729 239.594 118.698 239.531 118.667 239.464C117.776 237.552 116.885 235.854 115.917 234.349C115.484 233.677 115.042 233.042 114.573 232.438C113.922 231.604 113.229 230.839 112.479 230.141C108.995 228.406 102.099 221.786 94.9167 213.734C94.9167 213.74 97.5677 220.245 112.031 242.677C120.521 255.839 131.922 278.781 139.901 295.495C140.495 296.089 141.073 296.719 141.635 297.38L143.458 297.688C143.458 297.688 143.615 297.703 143.875 297.755C143.932 297.693 143.984 297.625 144.042 297.563C144.005 297.479 143.974 297.401 143.937 297.313C143.802 296.974 143.641 296.589 143.464 296.156C141.833 292.193 138.474 284.375 132.422 271.573C132.135 270.969 131.844 270.344 131.542 269.719L131.49 269.599C131.172 268.927 130.859 268.266 130.557 267.615C127.099 260.188 124.63 253.953 122.547 248.724Z" fill="#EAD5C6"/>
<path d="M76.9844 209.312C77.0469 209.531 77.1094 209.75 77.1719 209.964C77.2031 210.063 77.2292 210.161 77.2604 210.26C77.1719 209.953 77.0781 209.635 76.9844 209.312Z" fill="#E2C4AF"/>
<path d="M76.2187 206.672C76.125 206.344 76.026 206.005 75.9271 205.662C76.026 206.005 76.1198 206.344 76.2187 206.672Z" fill="#E2C4AF"/>
<path d="M105.635 162.37C112.214 158.594 117.995 155.589 118.005 155.578C117.99 155.589 112.052 158.385 105.635 162.37Z" fill="#D6AB8C"/>
<path d="M119.854 171.552C119.792 170.896 119.724 170.26 119.651 169.656C119.724 170.339 119.792 170.974 119.854 171.552Z" fill="#D6AB8C"/>
<path d="M112.479 230.141C112.875 230.339 113.229 230.474 113.531 230.542C113.75 220.912 113.964 212.844 118.031 204.193C118.37 203.474 118.667 202.479 118.932 201.266C119.234 199.875 119.484 198.198 119.693 196.333C118.604 199.302 113.646 205.177 110.182 209.052C108.104 211.38 104.573 211.63 102.161 209.646C97.4114 205.755 90.5052 198.219 89.2552 186.708C88.6146 197.307 88.9271 207.026 94.9167 213.735C102.099 221.787 108.995 228.406 112.479 230.141Z" fill="#D6AB8C"/>
<path d="M89.7291 177.661C90.9531 173.349 93.7968 169.594 97.6718 167.146C100.24 165.526 103.005 163.885 105.635 162.37C112.052 158.385 117.99 155.588 118.005 155.578C121.005 149.521 124.437 142.656 126.146 135.765C126.276 135.255 126.391 134.745 126.495 134.229C127.839 127.833 127.557 121.463 123.937 115.734C121.911 112.542 119.49 110.068 117 108.146C117.969 109.286 118.828 110.625 119.516 112.203C124.516 123.729 101.557 157.745 89.5833 151.432C81.4114 147.12 81.2291 130.385 81.1823 129.87C80.3906 121.713 84.5937 103.229 102.224 101.713C89.875 102.479 82.3854 107.745 78.0156 114.172C77.9375 114.286 77.8646 114.401 77.7864 114.515C73.0468 121.719 72.1302 130.292 72.651 135.63C73.0156 139.417 73.7239 142.526 74.7291 145.359C76.4375 150.161 79.0156 154.177 82.2968 159.364C86.7864 166.463 89.1562 175.333 89.7291 177.661Z" fill="#D9B297"/>
<path d="M74.2864 199.958C74.2969 200.01 74.3125 200.057 74.3281 200.104C74.4323 200.469 74.5364 200.828 74.6354 201.187C74.6771 201.318 74.7135 201.448 74.75 201.573C74.8594 201.963 74.9739 202.354 75.0833 202.734C75.1041 202.812 75.125 202.885 75.1458 202.963C75.3802 203.776 75.6094 204.568 75.8333 205.333C75.8646 205.443 75.8958 205.557 75.9271 205.661C76.026 206.005 76.125 206.344 76.2187 206.672C76.25 206.781 76.2812 206.885 76.3125 206.989C76.4114 207.344 76.5156 207.693 76.6146 208.036L76.6406 208.13C76.7344 208.453 76.8281 208.765 76.9166 209.073C76.9375 209.156 76.9635 209.234 76.9844 209.312C77.0781 209.635 77.1719 209.953 77.2604 210.26C77.2864 210.338 77.3073 210.411 77.3281 210.489C77.4114 210.776 77.4948 211.057 77.5729 211.328C77.5937 211.406 77.6198 211.479 77.6406 211.552C77.7031 211.765 77.7604 211.969 77.8177 212.172C77.8437 212.255 77.8698 212.344 77.8958 212.427C77.9635 212.672 78.0364 212.911 78.1041 213.135C78.1198 213.198 78.1406 213.255 78.1562 213.312C78.5573 214.682 78.8646 215.719 79.0364 216.312C80.151 209.818 80.5729 203.984 79.1094 201.786C77.2291 198.974 74.4635 194.828 72.0677 191.229C72.4948 193.219 73.0052 195.318 73.625 197.594L73.6562 197.713C73.75 198.042 73.8385 198.375 73.9375 198.713C74.0208 199.031 74.1146 199.359 74.2083 199.687C74.2344 199.781 74.2604 199.87 74.2864 199.958Z" fill="#D6AB8C"/>
<path d="M160.969 166.484V167.234C161.016 166.974 161.01 166.724 160.969 166.484Z" fill="#B37B55"/>
<path d="M135.755 164.026C141.24 163.802 155.932 162.896 155.932 162.896C155.932 162.896 160.281 163.958 160.922 166.281C160.937 166.349 160.953 166.417 160.969 166.484L160.963 165.896L160.922 153.865V153.422C160.922 153.422 160.422 158.411 154.437 159.406C148.911 160.328 134.047 162.656 129.583 159.859C129.213 159.625 128.906 159.359 128.693 159.047C128.693 159.047 128.651 161.833 131.375 163.24C132.396 163.771 133.807 164.104 135.755 164.026Z" fill="#B37B55"/>
<path d="M154.87 179.755C160.427 179.328 160.922 183.338 160.922 183.338V173.37L160.875 173.458C159.813 175.562 157.63 176.859 155.276 176.859H141.464C136.005 176.943 133.333 176.213 132.026 175.463C130.953 174.849 130.802 174.229 130.781 174.036C130.854 176.213 132 177.495 133.214 178.25C134.62 179.12 136.109 179.276 136.109 179.276C136.109 179.276 146.516 180.401 154.87 179.755Z" fill="#B37B55"/>
<path d="M210.052 103.052L210.198 101.495L210.958 93.3752C211.286 91.5002 213.276 91.4897 214.589 92.87C217.125 95.5314 223.667 100.636 223.667 100.636C223.609 100.568 223.563 100.505 223.505 100.443C217.354 93.0158 213.646 86.2814 213.219 85.4897C213.193 85.4377 213.177 85.4116 213.177 85.4116L211.495 84.3231L209.005 82.7241L203.797 79.3647C204.161 79.8127 204.495 80.2606 204.818 80.7137C210.99 89.4116 209.484 98.6668 210.052 103.052Z" fill="#C69575"/>
<mask id="mask4_20_293" style="mask-type:luminance" maskUnits="userSpaceOnUse" x="137" y="0" width="57" height="51">
<path d="M137.333 0.645996H193.333V50.6668H137.333V0.645996Z" fill="white"/>
</mask>
<g mask="url(#mask4_20_293)">
<path d="M139.901 49.3022C139.901 49.3022 140.125 49.62 140.464 50.1616L142.906 42.7345L143.396 31.7189L153.198 34.2606C156.875 35.2189 160.641 35.7293 164.411 35.8075C168.802 35.896 173.203 35.4012 177.49 34.3022L187.229 31.8075L187.714 42.7345L190.151 50.1616C190.495 49.62 190.719 49.3022 190.719 49.3022C190.719 49.3022 191.208 46.4064 193.255 45.4533V24.12C193.255 24.12 191.896 2.6512 165.333 0.802246C138.771 2.6512 137.359 24.12 137.359 24.12V45.4533C139.411 46.4064 139.901 49.3022 139.901 49.3022Z" fill="#2D241F"/>
</g>
<path d="M190.719 51.8752L188.141 62.6252C188.927 63.2866 189.734 63.4793 190.531 63.3335C191.312 63.1929 192.073 62.7241 192.771 62.0522C193.271 61.5679 193.734 60.9845 194.151 60.3335C195.089 58.87 195.781 57.0991 196.031 55.5366C196.724 51.1512 197.875 45.146 194.646 45.146C194.115 45.146 193.661 45.2658 193.255 45.4533C191.208 46.4064 190.719 49.3022 190.719 49.3022C190.719 49.3022 190.495 49.62 190.151 50.1616L190.719 51.8752Z" fill="#C69575"/>
<path d="M164.411 35.8073C160.641 35.7292 156.875 35.2188 153.198 34.2604L143.396 31.7188L142.906 42.7344L140.464 50.1615L139.901 51.875L141.344 63.0885C142.63 73.0625 148.198 81.9792 156.604 87.5104C157.464 88.0781 158.469 88.3802 159.495 88.3802H164.411V35.8073Z" fill="#D6AB8C"/>
<path d="M188.141 62.6248L190.719 51.8748L190.151 50.1613L187.714 42.7342L187.229 31.8071L177.49 34.3019C173.203 35.4009 168.802 35.8957 164.411 35.8071V88.38H171.661C172.526 88.38 173.359 88.0728 174.016 87.5103C179.422 82.9165 183.526 77.0207 185.969 70.4217C186.536 68.8905 187.01 67.3228 187.396 65.7238L188.141 62.6248Z" fill="#E2C4AF"/>
<path d="M188.995 326.943C188.995 334.037 187.594 340.672 185.161 346.354H192.708C195.031 340.672 196.365 334.037 196.365 326.943C196.365 319.849 195.026 313.208 192.708 307.521H185.161C187.594 313.208 188.995 319.849 188.995 326.943Z" fill="#767676"/>
<path d="M170.198 288.844H161.589C171.62 288.88 180.385 296.365 185.161 307.521H192.708C190.891 303.068 188.469 299.203 185.604 296.156C181.281 291.562 175.958 288.844 170.198 288.844Z" fill="#EDEDED"/>
<path d="M101.995 354.484C102.516 354.536 103.047 354.578 103.578 354.578L103.635 354.573H109.922C116.849 354.547 122.901 349.115 126.198 341.021H120.724C122.49 336.896 123.505 332.083 123.505 326.938C123.505 321.792 122.49 316.979 120.724 312.854C117.255 304.755 110.901 299.328 103.625 299.302H103.578C103.047 299.302 102.516 299.339 101.995 299.396C105.786 295.359 110.437 292.974 115.464 292.974C128.182 292.974 138.495 308.177 138.495 326.938C138.495 345.698 128.182 360.906 115.464 360.906C110.437 360.906 105.786 358.521 101.995 354.484ZM99.3854 334.969H99.2187C98.0364 334.932 96.9375 334.411 96.026 333.536C94.4687 332.135 93.4323 329.708 93.4323 326.943C93.4323 324.172 94.4687 321.75 96.026 320.349C96.9479 319.469 98.0417 318.948 99.2239 318.917H99.3333L99.3854 318.911L99.4427 318.917H101.786C102.771 318.943 103.698 319.307 104.5 319.932C104.984 320.307 105.427 320.771 105.812 321.318C106.839 322.766 107.474 324.75 107.474 326.943C107.474 331.328 104.937 334.885 101.792 334.969H99.3854ZM188.995 326.943C188.995 319.849 187.594 313.208 185.161 307.521C180.385 296.365 171.62 288.88 161.589 288.849L161.526 288.844C155.479 288.844 149.885 291.562 145.349 296.156C144.995 296.516 144.651 296.885 144.307 297.266C144.219 297.37 144.125 297.464 144.042 297.563C143.984 297.625 143.932 297.693 143.875 297.755C145.625 298.094 152.411 299.906 154.437 307.99C154.802 309.453 155.182 310.875 155.568 312.229C156.161 314.323 156.76 316.26 157.312 317.964C157.781 317.964 158.245 318.036 158.682 318.161C159.125 318.292 159.547 318.484 159.932 318.729C160.026 318.786 160.104 318.854 160.187 318.917H160.417L160.526 318.906C163.729 318.906 166.323 322.505 166.323 326.943C166.323 331.38 163.729 334.974 160.526 334.974L160.417 334.969H159.573C159.437 335.115 159.297 335.26 159.151 335.401L159.135 335.422C158.943 335.599 158.745 335.771 158.542 335.932L157.755 336.557L154.755 338.927C154.536 339.099 154.312 339.255 154.073 339.396C153.729 339.609 153.365 339.786 152.99 339.932C152.354 340.172 151.687 340.313 151.005 340.349L149.604 340.432C149.068 342.495 148.411 344.474 147.646 346.354H140.099C142.531 340.667 143.932 334.031 143.932 326.938C143.932 319.844 142.531 313.208 140.099 307.521C135.318 296.365 126.557 288.875 116.526 288.844H116.464C113.349 288.844 110.359 289.573 107.573 290.896C105.885 291.693 104.276 292.714 102.755 293.932C100.286 295.906 98.0573 298.391 96.151 301.292C88.8229 305.375 83.651 315.318 83.651 326.938C83.651 338.563 88.8229 348.5 96.151 352.583C101.177 360.234 108.417 365.036 116.464 365.036L116.542 365.031H125.208C132.031 365.005 138.24 361.172 142.885 354.917C143.344 355.505 143.818 356.073 144.307 356.615C149.021 361.88 155.005 365.036 161.526 365.036H170.271C170.745 365.031 171.214 365.01 171.677 364.969C180.635 364.24 188.385 356.953 192.708 346.354H185.161C187.594 340.672 188.995 334.036 188.995 326.943Z" fill="#2F2F2F"/>
<path d="M141.635 297.38C144.021 300.208 146.062 303.646 147.646 307.521C148.651 309.995 149.479 312.651 150.083 315.448C151.229 315.36 152.177 315.307 152.771 315.307C154.536 315.307 155.266 313.719 155.568 312.229C155.182 310.875 154.802 309.453 154.437 307.99C152.411 299.906 145.625 298.094 143.875 297.755C143.615 297.703 143.458 297.688 143.458 297.688L141.635 297.38Z" fill="#E2C4AF"/>
<path d="M152.771 315.307C152.177 315.307 151.229 315.36 150.083 315.448C150.266 316.276 150.427 317.115 150.568 317.964H157.297C156.76 316.261 156.161 314.323 155.568 312.224C155.266 313.719 154.536 315.307 152.771 315.307Z" fill="#D6AB8C"/>
<path d="M161.75 320.792C161.859 321.021 161.958 321.25 162.047 321.49C162.224 321.964 162.365 322.443 162.469 322.938C162.62 323.672 162.682 324.422 162.656 325.177C162.651 325.427 162.63 325.677 162.604 325.932C162.573 326.182 162.536 326.432 162.49 326.677L161.703 330.734C161.552 331.505 161.302 332.245 160.964 332.938C160.672 333.531 160.307 334.083 159.891 334.589C159.786 334.719 159.682 334.844 159.573 334.969H160.417L160.526 334.974C163.729 334.974 166.323 331.38 166.323 326.943C166.323 322.505 163.729 318.906 160.526 318.906L160.417 318.917H160.187C160.844 319.396 161.391 320.026 161.75 320.792Z" fill="#767676"/>
<path d="M159.151 335.401C159.297 335.26 159.437 335.114 159.573 334.969C159.682 334.844 159.786 334.719 159.891 334.588C159.661 334.875 159.417 335.146 159.151 335.401Z" fill="#E2C4AF"/>
<path d="M157.297 317.963H150.568C151.047 320.844 151.302 323.849 151.302 326.937C151.302 327.271 151.297 327.604 151.286 327.932H162.245L161.703 330.734L162.49 326.677C162.536 326.432 162.573 326.182 162.604 325.932C162.63 325.677 162.651 325.427 162.656 325.177C162.682 324.422 162.62 323.672 162.469 322.937C162.365 322.443 162.224 321.963 162.047 321.489C161.958 321.25 161.859 321.021 161.75 320.792C161.391 320.026 160.844 319.396 160.187 318.917C160.104 318.854 160.026 318.786 159.932 318.729C159.547 318.484 159.125 318.292 158.682 318.161C158.245 318.036 157.781 317.963 157.297 317.963Z" fill="#E2C4AF"/>
<path d="M159.891 334.588C160.307 334.083 160.672 333.531 160.964 332.937C161.302 332.245 161.552 331.505 161.703 330.734L162.245 327.932H151.286C151.214 332.328 150.62 336.531 149.604 340.432L151.005 340.349C151.687 340.312 152.354 340.172 152.99 339.932C153.365 339.786 153.729 339.609 154.073 339.396C154.312 339.255 154.536 339.099 154.755 338.927L157.755 336.557L158.542 335.932C158.745 335.771 158.943 335.599 159.135 335.422L159.151 335.401C159.417 335.146 159.661 334.875 159.891 334.588Z" fill="#D6AB8C"/>
<path d="M151.286 327.932C151.297 327.604 151.302 327.271 151.302 326.938C151.302 323.849 151.047 320.844 150.568 317.964C150.427 317.115 150.266 316.276 150.083 315.448C149.479 312.651 148.651 309.995 147.646 307.521H140.099C142.531 313.208 143.932 319.844 143.932 326.938C143.932 334.031 142.531 340.667 140.099 346.354H147.646C148.411 344.474 149.068 342.495 149.604 340.432C150.62 336.531 151.214 332.328 151.286 327.932Z" fill="#767676"/>
<path d="M147.646 307.521C146.062 303.646 144.021 300.208 141.635 297.38C141.073 296.719 140.495 296.089 139.901 295.495C135.698 291.302 130.615 288.844 125.13 288.844H116.526C126.557 288.875 135.318 296.365 140.099 307.521H147.646Z" fill="#EDEDED"/>
<path d="M115.464 360.906C128.182 360.906 138.495 345.698 138.495 326.938C138.495 308.177 128.182 292.974 115.464 292.974C110.437 292.974 105.786 295.36 101.995 299.396C102.516 299.339 103.047 299.302 103.578 299.302H109.865C116.818 299.302 122.891 304.74 126.198 312.854C127.88 316.979 128.849 321.792 128.849 326.938C128.849 332.084 127.88 336.896 126.198 341.021C122.901 349.115 116.849 354.547 109.922 354.573H103.635L103.578 354.578C103.047 354.578 102.516 354.537 101.995 354.485C105.786 358.521 110.437 360.906 115.464 360.906Z" fill="#383838"/>
<path d="M128.849 326.937C128.849 321.792 127.88 316.979 126.198 312.854H120.724C122.49 316.979 123.505 321.792 123.505 326.937C123.505 332.083 122.49 336.896 120.724 341.021H126.198C127.88 336.896 128.849 332.083 128.849 326.937Z" fill="#767676"/>
<path d="M109.865 299.302H103.625C110.901 299.328 117.255 304.755 120.724 312.854H126.198C122.891 304.74 116.818 299.302 109.865 299.302Z" fill="#EDEDED"/>
<path d="M98.9375 320.5H99.0729L99.1198 320.495L99.1614 320.5H98.9844C101.479 320.583 103.5 323.432 103.5 326.943C103.5 330.453 101.479 333.297 98.9635 333.38L99.0729 333.385H99.1614H98.9375C96.4479 333.297 94.4219 330.453 94.4219 326.943C94.4219 323.432 96.4479 320.583 98.9375 320.5ZM101.792 334.969C104.937 334.885 107.474 331.328 107.474 326.943L107.469 327H104.49V326.943C104.49 322.667 102.031 319.198 98.9635 319.094C97.8802 319.13 96.8802 319.589 96.026 320.349C94.4687 321.75 93.4323 324.172 93.4323 326.943C93.4323 329.708 94.4687 332.135 96.026 333.536C96.9375 334.411 98.0364 334.932 99.2187 334.969H101.792Z" fill="#767676"/>
<path d="M98.9323 319.089H99.0989L99.151 319.083L99.2083 319.089H98.9896L98.9635 319.094C102.031 319.198 104.49 322.667 104.49 326.943V327H107.469L107.474 326.943C107.474 324.75 106.839 322.766 105.812 321.318C105.427 320.771 104.984 320.307 104.5 319.932C103.698 319.307 102.771 318.943 101.786 318.917H99.4427L99.3854 318.912L99.3333 318.917H99.2239C98.0417 318.948 96.9479 319.469 96.0417 320.333C96.8802 319.589 97.8802 319.13 98.9635 319.094L98.9323 319.089Z" fill="#EDEDED"/>
<path d="M99.151 319.083L99.0989 319.089H99.2083L99.151 319.083Z" fill="#767676"/>
<path d="M98.9323 319.088L98.9635 319.094L98.9896 319.088H98.9323Z" fill="#767676"/>
<path d="M99.1198 320.495L99.0729 320.5H99.1614L99.1198 320.495Z" fill="#2F2F2F"/>
<path d="M94.4219 326.943C94.4219 330.453 96.4479 333.297 98.9635 333.38C101.479 333.297 103.5 330.453 103.5 326.943C103.5 323.432 101.479 320.583 98.9635 320.5C96.4479 320.583 94.4219 323.432 94.4219 326.943Z" fill="#2F2F2F"/>
<path d="M263.708 153.208C263.724 153.401 263.74 153.599 263.755 153.797C263.766 153.943 263.776 154.083 263.786 154.229C263.812 154.531 263.828 154.833 263.849 155.146C263.859 155.271 263.865 155.401 263.875 155.531C263.896 155.864 263.917 156.203 263.938 156.547C263.943 156.661 263.948 156.771 263.958 156.88C263.979 157.25 263.995 157.635 264.016 158.026C264.021 158.104 264.026 158.193 264.026 158.276C264.047 158.677 264.062 159.083 264.078 159.505L264.083 159.64C264.099 160.083 264.115 160.542 264.125 161.005C264.13 161.088 264.135 161.167 264.135 161.245C264.146 161.708 264.156 162.187 264.167 162.667C264.167 162.76 264.172 162.854 264.172 162.948C264.182 163.437 264.188 163.943 264.193 164.453C264.193 164.547 264.193 164.64 264.193 164.729C264.198 165.26 264.198 165.802 264.198 166.359C264.198 166.427 264.198 166.495 264.198 166.562C264.193 167.156 264.193 167.76 264.182 168.38C264.177 169.062 264.167 169.729 264.156 170.38C264.156 170.474 264.156 170.562 264.156 170.651C264.146 171.276 264.135 171.885 264.125 172.484C264.125 172.578 264.125 172.677 264.125 172.771C264.115 173.359 264.104 173.937 264.094 174.505C264.094 174.604 264.089 174.698 264.089 174.797C264.078 175.359 264.068 175.917 264.057 176.458C264.052 176.526 264.052 176.594 264.052 176.661C264.042 177.208 264.026 177.75 264.016 178.276V178.344C264.005 178.885 263.99 179.406 263.979 179.922C263.974 179.989 263.974 180.052 263.969 180.114C263.958 180.604 263.948 181.078 263.932 181.547C263.932 181.63 263.927 181.708 263.927 181.792C263.911 182.25 263.901 182.698 263.885 183.135C263.885 183.203 263.88 183.271 263.88 183.338C263.865 183.792 263.854 184.234 263.839 184.667C263.823 185.125 263.807 185.547 263.792 185.958L263.786 186.088C263.776 186.479 263.76 186.859 263.745 187.229C263.745 187.297 263.74 187.364 263.74 187.432C263.724 187.792 263.708 188.135 263.693 188.479C263.693 188.542 263.688 188.604 263.688 188.672C263.672 189.005 263.656 189.328 263.646 189.64C263.641 189.708 263.635 189.765 263.635 189.828C263.62 190.135 263.609 190.437 263.594 190.724L263.589 190.802C263.578 191.088 263.563 191.37 263.547 191.64C263.542 191.708 263.542 191.776 263.536 191.838C263.526 192.094 263.51 192.338 263.495 192.578C263.495 192.651 263.49 192.724 263.484 192.792C263.474 193.021 263.458 193.245 263.448 193.458C263.443 193.531 263.443 193.599 263.438 193.667C263.422 193.875 263.411 194.078 263.401 194.276C263.313 194.479 263.172 194.781 262.974 195.13L262.938 195.187C262.88 195.292 262.818 195.401 262.745 195.51L262.688 195.604C262.615 195.713 262.542 195.823 262.458 195.937L262.391 196.031C262.323 196.12 262.255 196.213 262.177 196.312L262.089 196.422C261.995 196.531 261.901 196.646 261.802 196.755L261.677 196.885C261.573 196.995 261.469 197.104 261.354 197.213L261.229 197.328C261.12 197.427 261.01 197.521 260.896 197.614L260.766 197.724C260.641 197.823 260.505 197.917 260.37 198.01C260.323 198.042 260.276 198.078 260.229 198.109C260.073 198.208 259.917 198.307 259.75 198.396C259.703 198.422 259.651 198.448 259.599 198.474C259.422 198.568 259.24 198.661 259.052 198.745L258.948 198.781C258.76 198.859 258.568 198.932 258.37 198.995L258.266 199.031C258.047 199.094 257.818 199.151 257.583 199.203C257.536 199.213 257.484 199.224 257.438 199.234C257.198 199.281 256.953 199.318 256.698 199.344L256.563 199.354C256.286 199.38 256.01 199.396 255.719 199.396C255.719 199.396 265.182 201.292 266.844 194.307C268.505 187.328 267.177 159.073 267.177 159.073C267.177 159.073 263.917 144.078 263.531 131.198C262.01 139.849 262.922 143.979 263.62 152.13C263.63 152.234 263.635 152.338 263.646 152.443C263.667 152.693 263.688 152.948 263.708 153.208Z" fill="#D6AB8C"/>
</svg>
