<svg width="330" height="433" viewBox="0 0 330 433" fill="none" xmlns="http://www.w3.org/2000/svg">
<mask id="mask0_1_981" style="mask-type:luminance" maskUnits="userSpaceOnUse" x="0" y="0" width="330" height="433">
<path d="M0.145874 0.578125H329.146V432.578H0.145874V0.578125Z" fill="white"/>
</mask>
<g mask="url(#mask0_1_981)">
<path d="M328.682 348.328C328.281 346.042 326.948 343.984 325.229 342.411C323.896 341.188 322.286 340.208 321.24 338.719C320.302 337.359 319.901 335.641 320.161 334.005C320.25 333.432 320.411 332.854 320.354 332.286C320.281 331.734 320.01 331.234 319.755 330.755C318.12 327.76 316.479 324.766 314.844 321.755C312.229 316.984 310.854 311.469 310.724 306.026C310.484 296.375 310.026 286.75 309.297 277.13C308.927 272.313 308.49 267.521 307.979 262.714C307.51 258.323 307.552 253.219 305.937 249.073C304.599 245.646 302.724 242.469 300.979 239.234C298.052 233.818 295.589 227.615 293.714 221.755C294.901 221.292 295.687 220.667 296.875 220.193C297.208 220.073 297.557 219.917 297.714 219.604C297.932 219.188 297.703 218.677 297.474 218.255C294.474 212.615 292.839 206.24 292.745 199.839C292.708 196.375 289.615 193.568 288.318 190.339C286.849 186.682 286.958 182.531 285.365 178.922C284.016 175.875 281.432 172.99 282.031 169.714C282.271 168.375 283.031 167.187 283.37 165.87C284.036 163.214 282.672 160.177 280.224 158.917C279.031 158.297 277.672 158.099 276.385 157.687C274.51 157.089 272.776 156.021 271.375 154.609C272.833 150.844 272.187 145.792 272.536 141.776C272.995 136.562 274.318 131.469 275.625 126.396C276.297 123.818 276.974 121.229 277.641 118.651C279.547 111.292 277.161 102.932 276.557 95.3594C276.307 92.375 276.068 89.3854 275.828 86.401C275.167 78.2396 270.719 70.2708 263.417 66.6146C261.802 65.8125 260.073 65.2448 258.458 64.4271C256.714 63.526 255.125 62.3489 253.448 61.3073C247.104 57.3646 239.672 55.5781 233.036 52.1406C232.536 51.8802 232.031 51.5885 231.682 51.151C231.182 50.5 231.109 49.6302 231.073 48.8125C230.901 45.2187 230.922 41.6042 231.13 38.0052C231.161 37.375 231.214 36.75 231.411 36.1458C231.828 34.8802 232.875 33.9427 233.667 32.8542C234.484 31.7031 235.01 30.3437 235.193 28.9479C235.391 27.3073 234.875 25.3125 233.318 24.7708C233.146 21.5469 233.078 18.2969 232.526 15.1146C231.573 9.57812 227.458 4.92187 222.49 2.30728C219.969 0.979157 217.062 1.28645 214.219 1.10937C205.823 0.578117 197.552 7.09374 196.083 15.3906C195.677 17.6719 195.734 19.9844 195.797 22.2865C195.875 25.9479 195.964 29.6146 196.052 33.2812C196.125 35.8698 196.182 38.4948 196.854 41C198.031 45.4792 201.083 49.5052 201.141 54.125C201.141 54.5365 201.12 54.9687 200.922 55.3177C200.672 55.776 200.193 56.0469 199.734 56.2864C192.76 59.9896 185.786 63.6875 178.812 67.3906C177.089 68.3021 175.344 69.2187 173.437 69.651C173.146 67.5 172.687 65.3854 172.068 63.3073C171.802 62.3854 171.474 61.4375 170.771 60.7812C170.073 60.1302 168.896 59.8906 168.167 60.5104C167.562 61.0417 167.469 61.9271 167.401 62.7396C167.38 62.9271 167.359 63.125 167.333 63.3177C163.51 63.375 159.651 65.2552 156.828 67.9687C148.526 75.9531 144.047 86.5417 139.448 96.8594C134.516 107.937 129.641 119.021 125.099 130.271C115.661 153.672 107.26 177.484 99.9479 201.635C95.4114 216.62 91.302 231.714 87.6093 246.917C80.6562 239.323 73.9687 231.51 66.6979 224.208C50.5468 207.979 32.4062 197.083 10.8698 189.88C9.09371 189.292 6.90621 188.573 4.7135 188.224C4.026 192.438 3.35413 196.641 2.51558 200.719C1.72913 204.563 0.953084 208.406 0.182251 212.255C0.473918 212.354 0.760375 212.453 1.06246 212.526C9.32288 214.474 17.0833 218.505 24.6562 222.583C46.427 234.307 64.8437 250.698 82.9114 267.339C80.9843 276.198 79.1979 285.089 77.5625 294C77.052 296.734 76.5625 299.484 76.0833 302.229C74.2187 313 71.177 323.724 68.3854 334.333C63.9427 351.203 58.6562 368.016 49.9739 383.135C42.1041 396.859 31.2031 409.198 17.4948 416.958C20.1562 422.25 23.0416 427.443 25.9739 432.62C71.2187 411.193 81.3906 346.161 90.901 302.792C92.5989 295.036 94.3541 287.286 96.1666 279.536C108.849 290.901 124.182 300.943 140.792 305.818C141.302 312.047 141.911 318.281 142.339 324.625C142.328 323.906 141.391 323.484 140.703 323.714C140.005 323.953 139.547 324.604 139.146 325.224C136.792 328.849 134.828 332.906 131.354 335.479C129.552 336.813 127.443 337.661 125.437 338.656C121.839 340.464 118.536 342.812 115.245 345.151C113.875 346.12 112.479 347.12 111.521 348.484C110.552 349.865 110.083 351.703 110.755 353.24C111.573 355.12 113.745 355.99 115.76 356.349C126.198 358.224 136.182 351.88 146.599 349.917C151.786 348.937 157.177 349.036 162.255 347.599C162.714 347.469 163.193 347.307 163.521 346.969C164 346.5 164.099 345.771 164.141 345.089C164.578 338.396 162.401 331.557 158.182 326.333C157.661 325.693 157.115 325.063 156.776 324.313C156.385 323.474 156.297 322.536 156.24 321.62C155.937 317.323 156.057 313.026 156.448 308.745C157.583 308.844 158.724 308.901 159.859 308.932C199.974 310.083 220.198 275.661 234.943 243.568C235.323 244.385 236.25 245.057 237.12 244.776C236.849 241.932 239.432 239.714 241.755 238.036C242.115 237.786 242.464 237.526 242.812 237.276C244.792 235.849 246.953 234.089 247.052 231.651C247.161 229.073 244.839 226.885 244.88 224.302C244.891 223.37 245.219 222.422 244.927 221.531C244.729 220.922 244.26 220.432 243.974 219.865C242.896 217.797 244.229 215.349 245.526 213.422C248.578 218.766 251.495 224.099 253.302 229.984C254.229 233.01 255.156 236.349 257.75 238.156C259.875 239.63 262.656 239.724 265.229 239.474C267.953 239.214 270.641 238.625 273.224 237.724C273.531 237.615 273.661 237.464 273.849 237.734C277.531 242.948 277.495 249.823 278.922 256.052C279.609 259.078 280.677 262.005 281.734 264.922C284.146 271.547 286.552 278.167 288.958 284.792C293.724 297.896 300.042 310.75 300.49 324.682C300.51 325.333 300.177 326.042 299.901 326.63C298.474 329.641 297.005 332.927 297.698 336.182C298.146 338.339 299.521 340.266 299.729 342.474C299.859 343.844 299.521 345.219 299.5 346.609C299.469 347.99 299.88 349.526 301.057 350.245C301.594 350.583 302.286 350.734 302.672 351.234C303.302 352.052 302.792 353.24 302.932 354.26C303.161 355.958 305.047 356.849 306.703 357.276C311.802 358.594 317.25 358.526 322.307 357.078C323.943 356.609 325.589 355.958 326.807 354.76C328.464 353.13 329.083 350.615 328.682 348.328ZM150.25 210.938C150.76 213.714 149.495 216.74 148.068 219.177C146.641 221.615 144.875 223.891 143.937 226.557C142.411 230.922 143.25 235.766 142.292 240.292C141.87 242.307 141.094 244.245 140.536 246.234C139.307 250.651 139.208 255.302 139.125 259.891C138.979 267.479 140.016 275.911 139.875 283.5C139.854 284.708 139.844 285.911 139.854 287.109C125.182 281.693 112.089 271.339 100.755 260.448C115.193 202.104 133.333 144.172 157.901 89.2292C158.094 88.7969 158.703 87.349 159.557 85.349C159.458 88.349 160.417 91.3854 162.292 93.7292C159.411 100.156 160.328 108.323 158.823 115.208C158.13 118.354 156.875 121.547 157.552 124.698C157.885 126.203 158.63 127.583 159.312 128.958C160.708 131.818 161.823 134.792 162.63 137.859C163.01 139.281 163.328 140.745 164.109 141.984C165.417 144.062 167.781 145.193 170.062 146.109C170.542 146.302 171.031 146.49 171.552 146.531C172.109 146.573 172.656 146.432 173.187 146.25C175.5 145.422 177.359 143.604 178.646 141.505C179.932 139.406 180.698 137.042 181.38 134.672C183.182 128.37 184.422 121.891 184.849 115.349C184.422 115.115 184.411 114.396 184.901 114.385C185.391 114.385 185.766 114.786 186.078 115.167C190.984 120.99 196.125 127.38 196.573 134.984C196.682 136.76 196.521 138.589 197.099 140.276C197.651 141.854 198.786 143.156 199.417 144.703C200.375 147.052 200.115 149.865 201.589 151.932C201.062 153.474 200.214 155.411 199.687 156.948C199.484 157.516 199.266 158.125 198.776 158.495C198.307 158.844 197.682 158.896 197.099 158.927C194.089 159.115 191.083 159.297 188.083 159.484C187.302 159.536 186.484 159.594 185.828 160.016C184.151 161.094 184.552 163.573 184.333 165.557C183.974 168.755 181.578 171.281 179.312 173.568C177.807 175.089 176.292 176.615 174.781 178.135C165.089 187.901 155.13 198.073 150.25 210.938ZM227.141 230.922C227.13 230.943 227.12 230.953 227.109 230.974C225.562 233.5 224.49 236.365 222.672 238.693C214.458 265.214 190.047 290.953 161.068 291.031C160.396 291.031 159.729 291.021 159.062 291.005C159.161 290.484 159.26 289.964 159.349 289.443C159.969 286.036 160.599 282.625 161.766 279.365C162.771 276.568 164.187 273.901 164.958 271.026C166.573 265.052 165.318 258.75 164.687 252.599C164.391 249.609 164.276 246.417 165.766 243.807C167.661 240.5 171.661 238.922 173.807 235.776C180.651 238.625 187.047 241.641 193.891 244.495C195.036 244.969 196.344 245.448 197.469 244.927C198.37 244.505 198.885 243.557 199.375 242.688C203.078 236.167 208.995 231.182 213.172 224.958C214.161 223.479 215.057 221.943 216.089 220.495C217.016 219.208 218.052 218.005 219.078 216.797C220.266 215.411 221.453 214.031 222.651 212.646C224.448 210.547 226.245 208.458 228.047 206.359C229.214 205.021 230.401 203.656 231.911 202.703C233.406 201.755 235.302 201.266 236.99 201.818C237.599 203.745 235.781 205.464 234.495 207.021C232.5 209.448 231.542 212.552 229.875 215.219C228.479 217.469 226.583 219.375 225.203 221.646C223.859 223.859 223.031 226.37 222.224 228.833C221.276 231.74 220.318 234.641 219.37 237.547C219.042 238.542 218.859 239.922 219.807 240.37C220.578 240.729 221.443 240.12 222.01 239.495C222.245 239.234 222.474 238.974 222.672 238.693C222.859 238.094 223.042 237.495 223.208 236.896C223.87 234.547 225.255 232.422 227.141 230.922C227.401 230.516 227.708 230.094 228.167 229.984C228.297 229.953 228.437 229.953 228.568 229.974C228.068 230.255 227.589 230.573 227.141 230.922Z" fill="white"/>
</g>
</svg>
