<svg width="529" height="433" viewBox="0 0 529 433" fill="none" xmlns="http://www.w3.org/2000/svg">
<mask id="mask0_20_294" style="mask-type:luminance" maskUnits="userSpaceOnUse" x="173" y="349" width="232" height="84">
<path d="M173.818 349.333H405V432.38H173.818V349.333Z" fill="white"/>
</mask>
<g mask="url(#mask0_20_294)">
<path d="M174.24 390.875C174.24 413.797 225.854 432.381 289.521 432.381C353.187 432.381 404.802 413.797 404.802 390.875C404.802 367.953 353.187 349.37 289.521 349.37C225.854 349.37 174.24 367.953 174.24 390.875Z" fill="#F6F6F5"/>
</g>
<path d="M326 202.156C305.349 208.62 274.708 217.146 269.5 218.615C266.708 222.656 259.88 235.38 265.375 257.344C268.615 270.287 277.557 276.287 282.792 278.766C299.568 269.016 316.635 254.13 326.594 247.505C353.401 229.662 326.208 259.787 342.062 244.828C355.557 232.099 362.25 198.771 339.979 199.531C338.214 199.594 327.682 201.63 326 202.156Z" fill="#E6BAAE"/>
<path d="M346.656 210.469C330.135 218.411 317.547 237.349 312.589 257.255C326.422 248.776 339.823 239.422 347.958 233.891L346.656 210.469Z" fill="#E6BAAE"/>
<path d="M279.146 280.333C285.552 276.604 291.995 272.13 298.078 267.656C304.286 248.255 306.24 230.87 306.271 228.057C306.354 220.25 301.844 214.615 295.719 211.688C281.661 215.76 269.026 219.286 265.849 220.177C263.057 224.219 256.229 236.943 261.724 258.906C264.958 271.854 273.901 277.854 279.146 280.333Z" fill="#E6BAAE"/>
<path d="M265.375 257.344C259.88 235.38 266.708 222.656 269.5 218.615C269.047 218.74 268.781 218.818 268.781 218.818C268.781 218.818 220.443 224.583 217.724 240.422C216.51 247.511 216.422 255.146 218.724 262.406C225.125 282.589 247.297 291.031 263.781 287.037C269.781 285.583 276.266 282.563 282.792 278.766C277.557 276.287 268.615 270.287 265.375 257.344Z" fill="#494949"/>
<path d="M209.078 296.599C209.078 296.599 218.234 295.193 236.234 288.932C249.146 289.719 263.781 287.036 263.781 287.036L242.495 259.995L185.76 263.515L209.078 296.599Z" fill="#494949"/>
<path d="M303.661 350.854C303.661 350.854 306.531 349.812 309.661 349.292C312.792 348.771 304.182 361.026 304.182 361.026C304.182 361.026 302.099 355.026 303.661 350.854Z" fill="#FF557B"/>
<path d="M359.875 218.932C360.74 210.865 355.859 204.193 349.437 201.724C342.661 199.12 337.115 207.037 334.312 218.932C329.755 237.052 316.052 245.005 311.88 277.334C309.719 294.084 312.922 319.568 304.286 356.432C303.146 364.62 304.766 363.917 314.5 365.136C320.562 365.896 322.495 364.063 323.089 363.073C323.089 363.073 335.214 363.334 332.432 355.453C332.104 354.537 333.495 363.818 333.266 362.849C331.776 356.5 328.573 352.422 332.573 333.406C339.432 300.776 349.766 285.104 355.182 264.297C361.958 238.224 359.547 221.985 359.875 218.932Z" fill="#ECCBC0"/>
<path d="M298.781 367.833L325.562 364.677L327.406 380.339C327.495 381.115 327.771 381.74 328.141 382.245C328.641 383.927 330.089 385.297 332.339 385.031L364.005 381.307C365.391 383.177 364.214 387.344 364.219 388.651C362.901 392.682 345.911 399.016 325.589 390.985C310.687 385.089 312.547 381.099 305.495 381.641C305.495 381.641 298.667 378.802 298.781 367.833Z" fill="#C2C3E1"/>
<path d="M297.245 371.38C297.245 371.38 295.719 370.818 294.964 374.182L294.182 378.193C293.885 380.245 293.969 382.161 296.333 383.114C299.172 384.25 306.182 386.021 310.714 385.917C313.818 385.838 316.677 384.505 319.224 383.958L318.411 378.135L297.245 371.38Z" fill="#C2C3E1"/>
<path d="M327.984 388.484C315.115 383.338 312.266 380.588 302.984 379.073C298.922 378.385 296.932 376.276 296.568 374.317C295.995 371.239 299 360.937 300.125 354.583C300.714 351.26 303.219 350.963 303.661 350.854C303.661 350.854 304.443 358.677 310.224 357.172C315.109 355.932 316.094 353.562 319.224 350.041C321.948 346.979 328.073 344.375 330.458 346.916C333.391 350.041 335.635 362.39 362.026 378.052C364.188 379.333 366.594 385.614 360.88 388.385C355.401 391.047 342.052 394.109 327.984 388.484Z" fill="#FF557B"/>
<path d="M343.214 391.625C339.427 390.766 335.01 388.672 332.589 386.495C324.313 379.052 325.875 374.312 311.922 368.036C298.776 362.125 299.745 357.505 300.063 355.734C300.047 355.844 300.026 355.948 300.005 356.057C298.615 362.281 296.042 371.484 296.568 374.318C296.932 376.276 298.922 378.385 302.984 379.073C312.266 380.589 315.115 383.339 327.984 388.484C333.292 390.609 338.495 391.49 343.214 391.625Z" fill="#EA416C"/>
<path d="M419.682 197.979C419.682 197.979 423.719 192.958 417.948 181.125C411.12 165.136 397.589 152.854 376.12 132.537C368.818 115.328 357.078 109.073 344.818 108.031C337.807 107.432 330.734 108.302 323.953 111.943C336.031 135.292 345.245 141.755 353.896 149.886C353.896 149.886 384.318 191.823 409.25 199.281C411.083 199.807 415.948 201.229 419.682 197.979Z" fill="#ECCBC0"/>
<path d="M358.76 148.985C358.76 148.985 350.792 157.255 351.823 179.708C352.589 196.505 327.385 177.287 327.385 177.287L319.177 147.271L349.328 140.099L358.76 148.985Z" fill="#ECCBC0"/>
<path d="M265.271 95.5731C262.354 59.1616 298.911 54.9897 308.12 61.4481C315.422 66.5731 307.802 68.2137 308.604 71.1929C308.604 71.1929 307.661 73.2866 307.208 73.3283C298.375 74.1564 292.781 77.9324 294.573 89.146C296.578 99.6876 302.359 112.813 306.349 130.214C314.693 166.557 270.167 171.323 270.167 171.323C290.37 152.021 267.448 122.781 265.271 95.5731Z" fill="#5F4338"/>
<path d="M295.125 62.9425C295.333 66.2342 295.755 71.2863 299.542 76.5883C300.635 78.1248 302.531 78.5206 304.417 78.4269C306.182 78.3436 308.182 78.0154 309.87 76.3852C309.87 76.3852 304.219 59.7967 304.151 55.3227C304.151 55.3227 302.583 54.9008 300.047 55.6821C296.937 56.6352 294.922 59.6977 295.125 62.9425Z" fill="#FF557B"/>
<path d="M249.146 135.047C246.156 142.568 220.99 185.755 219.542 188.167C217.88 190.938 200.219 197.563 184.979 211.5C181.589 214.604 178.391 218.12 175.625 222.12C172.078 235.531 186.734 234.745 199.193 239.792C246.635 259.005 305.104 202.401 305.88 201.922C320.854 192.703 334.547 199.115 337.354 193.818C338.818 191.052 340.844 183.859 341.469 173.656C343.823 157.339 344.745 146.63 344.745 138.484L337.323 115.688L249.146 135.047Z" fill="#E6BAAE"/>
<path d="M294.922 111.776C304.052 110.734 303.458 177.787 287.359 194.427C285.021 196.839 273.682 190.865 266.953 181.813C266.49 167.313 264.536 158.203 262.839 158.448C252.109 160.005 247.755 143.359 249.276 139.089C253.823 126.365 253.708 126.12 264.146 121.162C270.99 117.917 270.667 117.776 294.922 111.776Z" fill="#ECCBC0"/>
<path d="M283.057 204.005L266.953 181.813C266.953 181.813 245.495 175.849 245.885 149.651L243.474 146.469C240.193 151.729 236.458 157.458 233.365 162.161C233.625 171.896 244.714 201.271 283.057 204.005Z" fill="#E3446D"/>
<path d="M214.354 266.265C208.688 244.146 215.724 231.333 218.604 227.26C218.141 227.39 217.865 227.463 217.865 227.463C217.865 227.463 196.552 224.765 186.297 209.401C186.297 209.401 154.672 235.281 166.276 271.37C172.818 291.708 195.719 300.198 212.708 296.172C218.896 294.708 225.578 291.667 232.307 287.844C226.901 285.349 217.688 279.307 214.354 266.265Z" fill="#494949"/>
<path d="M271.297 211.719C250.651 218.182 220.005 226.708 214.797 228.177C212.005 232.219 202.979 245.917 210.672 266.906C215.073 278.911 230.365 287.083 235.083 284C249.474 274.599 263.318 262.771 271.891 257.068C298.698 239.224 271.505 269.344 287.359 254.391C300.854 241.661 298.755 209.984 276.484 210.75C274.719 210.807 272.979 211.193 271.297 211.719Z" fill="#ECCBC0"/>
<path d="M236.203 222.125C225.792 225.104 217.318 227.464 214.797 228.177C213.339 230.286 210.182 235.036 208.594 242.083C212.052 242.604 215.536 241.885 216.74 241.255C223.604 237.594 230.25 230.396 236.203 222.125Z" fill="#E6BAAE"/>
<path d="M297.792 236.141L288.333 223.953C277.63 232.156 289.448 225.188 272.229 229.885C249.797 238.75 240.927 263.776 235.901 283.979C251.635 274.333 266.813 263.557 274.318 258.563C288.927 248.833 290.661 244.5 293.099 242.396C293.802 241.792 297.156 236.833 297.792 236.141Z" fill="#E6BAAE"/>
<path d="M227.365 363.37C227.365 363.37 230.234 362.328 233.365 361.807C236.495 361.286 227.885 373.536 227.885 373.536C227.885 373.536 225.802 367.542 227.365 363.37Z" fill="#FF557B"/>
<path d="M300.01 229.099C300.161 215.558 286.484 208.474 274.536 210.927L273.797 216.328C266.5 235.985 255.906 241.797 248.234 264.297C237.526 295.688 243.536 304.969 227.365 367.021C225.635 375.104 227.302 374.516 236.922 376.438C242.911 377.636 244.969 375.953 245.635 375.011C245.635 375.011 257.708 376.151 255.505 368.089C255.25 367.151 255.052 366.183 254.891 365.198C253.865 358.761 254.802 352.151 257.25 346.11C260.359 338.448 262.995 331.141 266.099 324.558C284.167 286.177 286.844 282.959 290.031 274C297.661 252.568 299.979 232.167 300.01 229.099Z" fill="#ECCBC0"/>
<path d="M222.484 380.349L249.266 377.193L251.109 392.854C251.203 393.63 251.474 394.25 251.844 394.761C252.344 396.443 253.792 397.813 256.042 397.547L287.708 393.818C289.094 395.693 287.917 399.86 287.922 401.167C286.609 405.193 269.615 411.531 249.292 403.495C234.396 397.604 236.25 393.615 229.198 394.156C229.198 394.156 222.37 391.313 222.484 380.349Z" fill="#C2C3E1"/>
<path d="M220.948 383.896C220.948 383.896 219.422 383.333 218.667 386.698L217.885 390.703C217.589 392.755 217.672 394.672 220.036 395.625C222.87 396.765 229.885 398.536 234.417 398.427C237.521 398.354 240.38 397.021 242.922 396.474L242.115 390.651L220.948 383.896Z" fill="#C2C3E1"/>
<path d="M251.688 401C238.818 395.854 235.969 393.104 226.688 391.583C222.625 390.901 220.641 388.791 220.271 386.828C219.698 383.755 222.703 373.453 223.828 367.099C224.411 363.776 226.922 363.479 227.365 363.37C227.365 363.37 228.146 371.192 233.927 369.682C238.813 368.448 239.792 366.078 242.922 362.557C245.651 359.495 251.776 356.89 254.156 359.432C257.094 362.557 259.339 374.906 285.729 390.562C287.891 391.844 290.297 398.13 284.583 400.901C279.109 403.562 265.755 406.62 251.688 401Z" fill="#FF557B"/>
<path d="M266.917 404.141C263.125 403.281 258.714 401.188 256.292 399.01C248.016 391.568 249.578 386.828 235.625 380.552C222.479 374.641 223.448 370.021 223.771 368.25C223.75 368.359 223.729 368.464 223.708 368.573C222.318 374.797 219.745 384 220.271 386.828C220.641 388.792 222.625 390.901 226.688 391.583C235.969 393.104 238.818 395.854 251.688 401C256.995 403.12 262.198 404.005 266.917 404.141Z" fill="#EA416C"/>
<mask id="mask1_20_294" style="mask-type:luminance" maskUnits="userSpaceOnUse" x="469" y="54" width="60" height="23">
<path d="M469.823 54.6665H528.505V76.5675H469.823V54.6665Z" fill="white"/>
</mask>
<g mask="url(#mask1_20_294)">
<path d="M524.932 54.8955C524.677 54.8955 524.437 54.9372 524.198 55.0205L470.057 63.734V76.2132L524.932 66.7861C526.917 66.7861 528.526 64.1247 528.526 60.8382C528.526 57.557 526.917 54.8955 524.932 54.8955Z" fill="#666666"/>
</g>
<mask id="mask2_20_294" style="mask-type:luminance" maskUnits="userSpaceOnUse" x="442" y="0" width="83" height="139">
<path d="M442.333 0.645996H525V138.667H442.333V0.645996Z" fill="white"/>
</mask>
<g mask="url(#mask2_20_294)">
<path d="M483.078 0.90625C480.234 0.90625 477.458 1.39063 474.781 2.30729L470.266 3.07292V4.32813C454.094 13.1927 442.427 38.3646 442.427 68.0521C442.427 97.7396 454.094 122.906 470.266 131.776V137.365L483.078 135.193C505.526 135.193 523.729 105.135 523.729 68.0521C523.729 30.9688 505.526 0.90625 483.078 0.90625Z" fill="#E2E2E2"/>
</g>
<path d="M510.917 70.2186C510.917 107.302 492.719 137.364 470.266 137.364C447.813 137.364 429.615 107.302 429.615 70.2186C429.615 33.1353 447.813 3.07275 470.266 3.07275C492.719 3.07275 510.917 33.1353 510.917 70.2186Z" fill="#BEBEBE"/>
<path d="M470.057 64.3281C469.807 64.3281 469.563 64.375 469.328 64.4531L415.188 73.1667V85.6458L470.057 76.2135C472.047 76.2135 473.656 73.5573 473.656 70.2708C473.656 66.9896 472.047 64.3281 470.057 64.3281Z" fill="#666666"/>
<path d="M405.12 99.9063L405.844 90.5469L422.609 94.099C423.432 124.677 433.141 167.573 423.516 192.245C421.245 198.057 411.109 204.464 403.531 194.203C396.469 184.635 396.651 170.479 401.193 150.156C408.292 118.406 405.12 99.9063 405.12 99.9063Z" fill="#ECCBC0"/>
<path d="M398.682 93.1667C397.792 89.7604 397.38 83.7812 397.797 79.0208C398.099 75.651 399.203 71.7917 401.682 71.1406C407.651 69.5677 418.672 69.2083 423.557 68.4167C425.526 68.099 427.813 70.2083 428.906 70.8385C430.188 71.5833 431.083 72.8385 431.182 74.3177L431.964 85.8854C432.281 90.4635 430.776 94.9323 427.766 98.3333L423.724 103.99C423.63 108.187 410.88 107.089 405.844 105.417C405.844 105.417 400.031 98.3385 398.682 93.1667Z" fill="#ECCBC0"/>
<path d="M431.443 78.146C431.443 78.146 430.911 82.0262 428.094 83.0835C425.271 84.1408 404.802 85.995 404.802 85.995C404.802 85.995 404.797 87.0783 404.854 88.3283C409.109 88.9793 413.885 92.37 415.766 96.4272C415.766 96.4272 418.745 90.3283 423.203 87.9585C427.115 85.87 431.963 85.8856 431.963 85.8856L431.443 78.146Z" fill="#E6BAAE"/>
<path d="M205.625 232.427C205.625 232.427 201.438 225.057 204.745 212.318C210.807 191.854 220.135 173.989 231.635 157.276C236.438 141.338 241.047 134.416 242.911 131.885C247.927 125.099 256.13 120.807 263.432 119.239C270.318 117.765 277.193 117.021 284.563 119.239C277.354 144.526 268.188 159.318 261.323 169.005C261.323 169.005 240.74 220.661 217.786 232.916C216.094 233.791 209.927 234.87 205.625 232.427Z" fill="#ECCBC0"/>
<path d="M193.427 127.219C191.984 121.693 188.823 110.349 188.828 108.505C188.828 108.505 208.641 104.734 216.234 103.51C218.203 103.198 220.49 105.302 221.583 105.932C222.865 106.677 223.76 107.932 223.859 109.406L224.641 120.974C224.76 122.74 223.646 127.12 222.234 129.766L215.885 138.578C215.797 142.776 203.557 142.182 198.521 140.51C198.521 140.51 194.771 132.391 193.427 127.219Z" fill="#ECCBC0"/>
<path d="M224.12 113.245C224.12 113.245 223.589 117.12 220.771 118.177C217.948 119.234 195.063 121.26 195.063 121.26C195.063 121.26 194.906 122.213 194.964 123.458C203.474 123.901 206.776 128.349 208.656 132.406C208.656 132.406 211.479 124.651 216.063 122.536C219.521 120.943 224.552 120.135 224.552 120.135L224.12 113.245Z" fill="#E6BAAE"/>
<path d="M448.568 68.1147C448.318 68.1147 448.078 68.1564 447.839 68.2397L143.083 119.776V131.662L415.187 85.646L422.016 84.495L448.568 80.0002C450.557 80.0002 452.167 77.3387 452.167 74.0575C452.167 70.7762 450.557 68.1147 448.568 68.1147Z" fill="#666666"/>
<path d="M215.885 138.578L215.599 135.74L198.255 133.203C198.188 163.792 189.208 193.854 199.859 226.229C201.813 232.161 212.563 238.146 219.885 227.698C226.714 217.964 226.083 208.922 221.042 188.719C213.167 157.151 215.885 138.578 215.885 138.578Z" fill="#ECCBC0"/>
<path d="M225.651 108.406C225.651 108.406 226.188 111.5 226.151 113.302C226.115 115.104 225.557 116.37 224.313 116.995C223.063 117.625 195.307 121.896 195.307 121.896L194.807 110.542L224.714 106.641C224.714 106.641 225.63 107.51 225.651 108.406Z" fill="#ECCBC0"/>
<path d="M225.333 107.526C224.859 105.87 220.573 102.76 218.583 102.937C210.927 103.62 190.755 107.281 190.755 107.281C190.708 107.922 191.484 110.656 191.88 113L225.333 107.526Z" fill="#E6BAAE"/>
<path d="M434.812 72.5729C434.812 72.5729 435.344 75.6719 435.312 77.4688C435.276 79.2708 434.719 80.5365 433.469 81.1667C432.484 81.6615 414.948 84.4323 407.63 85.5729C405.937 85.8385 404.401 84.5729 404.323 82.8646C404.214 80.3542 403.219 77.9687 401.51 76.1198L400.635 75.1823L433.875 70.8125C433.875 70.8125 434.792 71.6823 434.812 72.5729Z" fill="#ECCBC0"/>
<path d="M434.495 71.6926C434.021 70.0364 429.734 66.9322 427.745 67.1093C420.089 67.7916 401.682 71.1406 401.682 71.1406C401.635 71.7812 404.812 71.6614 406.12 76.6145L434.495 71.6926Z" fill="#E6BAAE"/>
<path d="M155.172 56.5259C152.328 56.5259 149.557 57.0103 146.88 57.9321L142.359 58.6925V59.9478C126.187 68.8175 114.521 93.9842 114.521 123.672C114.521 153.359 126.187 178.531 142.359 187.396V192.984L155.172 190.818C177.62 190.818 195.823 160.755 195.823 123.672C195.823 86.5884 177.62 56.5259 155.172 56.5259Z" fill="#E2E2E2"/>
<path d="M183.01 125.839C183.01 162.922 164.812 192.985 142.359 192.985C119.906 192.985 101.708 162.922 101.708 125.839C101.708 88.7554 119.906 58.6929 142.359 58.6929C164.812 58.6929 183.01 88.7554 183.01 125.839Z" fill="#BEBEBE"/>
<path d="M142.151 119.948C141.901 119.948 141.656 119.995 141.422 120.073L87.2812 128.786V141.265L142.151 131.838C144.141 131.838 145.75 129.177 145.75 125.89C145.75 122.609 144.141 119.948 142.151 119.948Z" fill="#666666"/>
<mask id="mask3_20_294" style="mask-type:luminance" maskUnits="userSpaceOnUse" x="83" y="128" width="9" height="14">
<path d="M83.5052 128H91.6666V141.333H83.5052V128Z" fill="white"/>
</mask>
<g mask="url(#mask3_20_294)">
<path d="M91.0573 135.026C91.0573 138.474 89.3646 141.266 87.2812 141.266C85.1927 141.266 83.5052 138.474 83.5052 135.026C83.5052 131.583 85.1927 128.787 87.2812 128.787C89.3646 128.787 91.0573 131.583 91.0573 135.026Z" fill="#242424"/>
</g>
<path d="M343.292 24.1719C343.292 24.1719 361.219 18.1094 371.349 27.8125C391.849 47.4479 361.896 82.6927 361.896 82.6927C361.896 82.6927 332.729 46.7708 343.292 24.1719Z" fill="#5F4338"/>
<path d="M353.281 97.5469L325.922 78.3594C323.589 84.3177 315.969 99.1771 312.661 105.521C311.297 108.141 302.75 110.734 294.922 111.776C309.792 147.234 291.375 169.135 309.536 174.979C335.781 183.417 340.573 158.182 340.573 124.49L345.661 113.016L353.281 97.5469Z" fill="#ECCBC0"/>
<path d="M374.568 61.6668C374.547 61.021 374.51 60.3908 374.469 59.771C373.365 44.8647 362.536 33.0939 348.578 30.4689C338.552 28.5887 331.375 30.8387 327.661 32.5783C317.615 36.6668 310.687 46.7449 310.203 57.9793C309.943 59.7033 320.979 68.2814 324.677 77.9949C325.474 84.9585 326.375 90.1824 327.005 93.4064C327.495 95.9272 329.156 98.0418 331.463 99.1668C343.297 104.922 359.76 107.505 366.297 104.432C367.641 101.719 375.26 82.2658 374.568 61.6668Z" fill="#ECCBC0"/>
<path d="M319.818 92.2814C313.891 87.0991 302.495 74.5054 303.005 54.4533C303.385 39.3439 316.406 9.26057 365.771 24.0835C367.885 24.7189 371.766 64.6408 324.677 72.2085C323.578 72.3856 324.906 73.0418 324.906 73.0418L324.516 78.3908L325.021 79.9272C324.271 83.5002 320.286 90.9637 319.818 92.2814Z" fill="#89604A"/>
<path d="M317.266 62.7918C309.302 67.3438 318.734 84.4532 324.849 84.2813C329.958 84.1355 328.401 77.3178 328.401 77.3178C328.401 77.3178 322.583 59.7553 317.266 62.7918Z" fill="#ECCBC0"/>
<path d="M344.224 116.948L339.932 114.646C339.932 114.646 339.693 115.854 338.911 118.714C339.005 119.328 343.182 128.724 344.224 157.401C344.818 173.672 336.906 180.938 322.964 181.323C313.578 181.589 304.542 173.938 305.49 159.167C306.958 136.302 300.141 112.297 294.141 110.474C290.703 111.271 287.578 112.458 285.276 113.083C293.099 114.125 300.12 139.688 295.531 156.297C290.88 173.104 282.646 180.115 270.198 181.625C269.068 181.761 267.995 181.813 266.953 181.813C267.057 187.672 267.875 190.25 267.875 190.25C272.255 204.86 285.625 208.255 295.542 207.724C301.672 207.391 309.448 204.146 313.964 201.964C315.349 201.297 316.901 201.13 318.401 201.448C321.911 202.193 330.042 202.026 333.266 201.724C343.74 200.75 350.818 196.052 352.568 187.125C358.01 159.396 344.224 116.948 344.224 116.948Z" fill="#FF557B"/>
<path d="M325.922 78.3594C323.844 83.6719 317.563 96.0469 313.885 103.167V176.099C322.964 181.323 331.411 176.964 335.766 170.365C341.031 162.391 342.286 147.354 340.573 124.49L345.661 113.021L353.281 97.5469L325.922 78.3594Z" fill="#ECCBC0"/>
</svg>
