<svg width="270" height="433" viewBox="0 0 270 433" fill="none" xmlns="http://www.w3.org/2000/svg">
<path d="M33.4531 118.38C33.6354 118.526 33.75 118.755 33.6823 119.042C33.5365 119.635 33.4219 120.234 33.3125 120.839C33.3334 120.964 33.3542 121.083 33.3802 121.203C33.4427 121.521 33.3073 121.75 33.099 121.875C33.0104 122.271 32.9063 122.667 32.7917 123.052C32.9167 123.635 33.0677 124.208 33.2396 124.776C33.2761 122.635 33.5261 120.448 34.1198 118.38H33.4531Z" fill="#EE2E31"/>
<path d="M116.354 151.156C116.885 150.505 117.453 149.885 118.068 149.318C117.396 148.521 116.729 147.719 116.068 146.911C115.964 147.687 115.594 148.464 114.87 149.146C114.677 149.333 114.495 149.526 114.312 149.724C115.125 149.979 115.854 150.474 116.354 151.156Z" fill="#EE2E31"/>
<mask id="mask0_1_1005" style="mask-type:luminance" maskUnits="userSpaceOnUse" x="0" y="118" width="270" height="79">
<path d="M0.364563 118.125H269.042V196.057H0.364563V118.125Z" fill="white"/>
</mask>
<g mask="url(#mask0_1_1005)">
<path d="M175.51 190.646C175.266 187.021 174.104 182.286 172.979 178.437C172.318 176.172 171.557 173.937 170.516 171.818C170.151 171.073 169.781 170.26 169.281 169.594C168.979 169.187 167.812 168.365 168.667 168.724C164.021 166.755 166.266 159.177 170.937 161.156C176.224 163.391 178.328 169.427 180.005 174.495C181.745 179.776 183.031 185.359 183.406 190.922C183.745 195.995 175.844 195.677 175.51 190.646ZM236.411 118.38C236.63 119.094 236.865 119.797 237.078 120.5C239.875 124.083 243.698 128.141 243.208 133.005C243.198 133.151 243.172 133.281 243.151 133.417C243.146 134.646 243.115 135.87 242.984 137.083C243.302 140.646 242.849 144.052 239.797 146.255C238.568 147.146 236.385 146.286 237.01 144.526C237.141 144.146 237.271 143.719 237.401 143.276C237.219 143.031 237.068 142.75 236.984 142.411C236.089 138.792 235.208 135.172 234.094 131.615C233.906 131.495 233.729 131.359 233.568 131.203C232.526 130.182 231.786 129.01 231.104 127.797C229.839 126.542 227.786 126.182 226.333 125.151C224.047 123.542 222.979 121.099 223.13 118.38H143.047C144.583 122.12 145.573 126.047 146.552 129.99C146.651 130.125 146.75 130.26 146.828 130.417C148.573 133.766 150.839 136.88 153.698 139.318C160.583 141.589 165.208 147.021 169.255 152.833C171.76 156.432 165.823 160.641 163.021 157.536C161.219 158.87 159.052 159.854 157.031 160.943C156.943 162.115 156.698 163.25 156.276 164.297C154.875 167.771 151.156 170.344 147.443 170.453C145.948 172.536 143.891 173.885 141.219 173.276C141.156 173.328 141.099 173.38 141.036 173.432C139.109 175.125 136.089 174.693 134.849 172.385C134.839 172.547 134.833 172.703 134.818 172.859C134.547 175.734 131.24 177.667 128.844 176.156C128.687 176.536 128.51 176.911 128.312 177.286C127.297 179.214 124.75 179.589 122.979 178.609C121.13 179.911 118.161 179.75 117.083 177.354C116.818 176.76 116.568 176.161 116.323 175.562C115.547 175.401 114.818 175.042 114.271 174.484C114.068 174.271 113.875 174.042 113.687 173.818C113.469 173.891 113.24 173.943 113.01 173.979C112.104 176.38 108.979 176.87 107.042 175.589C104.766 177.109 100.88 175.901 100.755 172.276C100.536 165.891 101.359 157.953 104.151 151.396C104.323 150.448 104.49 149.5 104.656 148.547C104.917 147.021 105.995 146.177 107.26 145.906C107.901 145.042 108.599 144.234 109.359 143.5C101.036 136.458 90.151 129.651 87.5104 118.38H46.8541C47.2552 119.88 47.4062 121.458 47.4114 122.927C47.4166 123.047 47.375 123.146 47.3229 123.234C47.5729 123.755 47.0052 124.484 46.4323 124.078C45.5833 123.474 45.1927 122.354 44.8906 121.406C44.5729 120.432 44.3698 119.411 44.2916 118.38H42.7916C42.7656 118.458 42.7448 118.536 42.7239 118.615C42.6094 120.417 42.375 122.208 42.1562 124.005C42.1406 124.687 42.1198 125.365 42.1198 126.042C42.1198 126.266 42.0156 126.422 41.8802 126.521C41.8541 126.776 41.8281 127.031 41.8073 127.286C41.7396 128.115 40.4479 128.073 40.5156 127.24C40.5156 127.219 40.5208 127.198 40.5208 127.177C40.3385 127.073 40.2031 126.896 40.2031 126.62C40.2031 126.208 40.2187 125.802 40.2291 125.391C40.1302 125.385 40.0312 125.365 39.9375 125.323C39.6458 125.479 39.2135 125.417 39.0312 125.073C38.7448 124.536 38.3854 124.052 38.0937 123.516C37.8802 123.109 38.1979 122.516 38.6927 122.573C38.8854 122.594 39.0625 122.63 39.2344 122.703C39.2291 122.641 39.2291 122.578 39.2239 122.51C39.1146 122.141 38.9896 121.776 38.8437 121.417C38.5469 121.714 38.2291 121.99 37.9062 122.26C37.7344 123.125 37.5677 123.99 37.4062 124.859C37.6458 124.99 37.8125 125.24 37.7291 125.583C37.4739 126.609 37.2239 127.646 36.9375 128.672C36.5989 130.885 36.0937 133.062 35.5521 135.234C35.375 135.943 34.2083 135.75 34.2864 135.026C34.3385 134.51 34.4114 133.995 34.4896 133.484C34.125 133.375 33.8281 132.964 34.0677 132.531C34.2135 132.276 34.3333 132.005 34.4583 131.74C34.4219 131.703 34.3854 131.667 34.3594 131.609C34.0625 130.995 33.8437 130.339 33.6771 129.667C33.4844 129.547 33.3333 129.349 33.3489 129.109C33.3698 128.839 33.3906 128.562 33.4114 128.292C33.2969 127.469 33.25 126.63 33.2344 125.812C33.0312 126.01 32.6979 126.094 32.4479 125.979C32.5104 126.708 31.4062 126.917 31.1875 126.161C30.8698 125.047 30.5312 123.948 30.1927 122.844C29.8385 121.891 29.526 120.927 29.3177 119.932C29.2552 119.641 29.375 119.427 29.5521 119.297C29.5 118.995 29.4583 118.687 29.4166 118.38H29.1041C28.9166 118.682 28.7344 118.984 28.5416 119.286C28.4896 119.516 28.4375 119.745 28.3854 119.979C28.3229 120.255 28.0364 120.422 27.7552 120.422C27.3229 121.021 26.8594 121.604 26.3385 122.13C25.9114 122.568 25.0208 122.073 25.276 121.474C25.7291 120.432 26.2031 119.406 26.6875 118.38H0.364563V195.865H269.042V118.38H236.411Z" fill="#EE2E31"/>
</g>
<path d="M147.938 369.917C148.354 368.635 148.906 367.396 149.604 366.234C149.297 367.557 148.729 368.812 147.938 369.917ZM150.063 365.49C150.068 365.401 149.891 364.849 149.828 364.937C148.865 366.385 148.13 367.958 147.625 369.62C147.609 369.589 147.594 369.568 147.589 369.573C147.177 369.974 147 370.505 147.063 371.078C147.068 371.109 147.146 371.38 147.208 371.516C147.266 371.698 147.385 371.979 147.417 371.927C147.563 371.682 147.635 371.432 147.646 371.161C148.995 369.557 149.844 367.583 150.063 365.49Z" fill="white"/>
<path d="M120.443 51.5625C119.948 48.0208 118.448 44.7708 118.073 41.2239C117.464 42.0104 114.87 45.2031 114.594 46.401C114.505 46.776 118.13 52.5677 118.818 52.5C119.125 52.8437 120.391 52.6406 120.672 52.3125C120.568 52.0937 120.484 51.8489 120.443 51.5625Z" fill="white"/>
<path d="M131.927 145.266C130.729 143.073 129.396 141.172 128.385 139.115C127.635 137.604 127.266 136.156 125.005 137.021C124.552 137.198 123.375 136.214 122.948 135.51C122.583 134.901 122.641 133.885 122.854 133.151C122.922 132.911 124.088 133.031 124.74 132.917C127.906 132.349 128.437 135.271 129.5 136.937C132.057 140.964 134.219 145.255 136.354 149.531C137.338 151.49 137.932 153.651 138.625 155.745C138.734 156.073 138.463 156.526 138.365 156.922C138.062 156.75 137.745 156.604 137.463 156.401C134.734 154.385 134.484 151.089 133.266 148.292C132.854 147.344 132.375 146.422 131.927 145.266Z" fill="white"/>
<path d="M135.849 161.073C133.375 158.161 132.443 154.745 131.417 151.328C131.089 150.24 130.141 149.318 129.412 148.37C128.229 146.833 126.901 145.401 125.854 143.781C125.63 143.438 126.339 142.495 126.62 141.823C127.042 142.135 127.609 142.354 127.859 142.771C128.542 143.891 128.854 145.313 129.724 146.219C132.557 149.161 132.974 153.286 135.089 156.547C135.859 157.734 137.016 158.682 137.729 159.901C138.047 160.458 137.714 161.396 137.677 162.161C137.104 161.833 136.537 161.51 135.849 161.073Z" fill="white"/>
<path d="M138.542 128.786C138.104 127.802 137.776 126.932 137.453 126.062C138.078 126.635 138.984 127.089 139.271 127.797C140.099 129.844 140.708 131.984 141.313 134.109C141.417 134.474 141.078 134.964 140.948 135.401C140.63 134.984 140.167 134.62 140.026 134.151C139.51 132.417 139.104 130.651 138.542 128.786Z" fill="white"/>
<path d="M125.198 131.813C123.88 129.672 122.776 127.542 121.713 125.385C121.625 125.203 121.786 124.891 121.833 124.641C122.036 124.687 122.349 124.677 122.422 124.802C123.661 127.036 125.469 129.031 125.198 131.813Z" fill="white"/>
<path d="M154.5 157.859C154.078 158.859 150.823 160.938 150.401 161.719C150.375 160.885 150.297 160.052 150.333 159.219C150.37 158.302 152.839 152.906 152.932 151.995C153.281 152.813 154.146 156.813 154.5 157.859Z" fill="white"/>
<mask id="mask1_1_1005" style="mask-type:luminance" maskUnits="userSpaceOnUse" x="24" y="0" width="225" height="433">
<path d="M24.4011 0.578125H248.531V432.578H24.4011V0.578125Z" fill="white"/>
</mask>
<g mask="url(#mask1_1_1005)">
<path d="M242.787 135.495C242.646 136.651 242.505 137.807 242.359 138.964C242.245 139.896 242.13 140.828 242.016 141.76C241.922 142.531 241.828 143.297 241.662 144.057C241.568 144.161 241.458 144.26 241.37 144.365C241.224 144.172 240.974 143.99 240.948 143.781C240.885 143.266 240.901 142.734 240.932 142.214C241.229 137.615 241.495 133.01 240.01 128.536C239.818 127.943 239.375 127.432 239.047 126.88C238.927 127.474 238.787 128.068 238.693 128.667C238.646 128.958 238.667 129.266 238.688 129.562C238.979 133.354 239.297 137.135 239.557 140.927C239.583 141.318 239.25 141.724 239.078 142.125C238.703 141.807 238.073 141.542 237.984 141.156C236.766 135.646 233.557 130.714 233.26 124.932C233.229 124.385 232.594 123.875 232.24 123.349C231.995 123.88 231.646 124.396 231.531 124.953C231.391 125.693 231.427 126.464 231.391 127.219C230.755 126.656 230.083 126.135 229.5 125.521C229.016 125.005 228.625 124.396 228.234 123.807C228.162 123.698 228.25 123.323 228.302 123.312C228.901 123.224 229.505 123.182 230.104 123.125C229.719 122.557 229.323 121.99 228.953 121.406C227.943 119.812 226.964 118.193 225.906 116.63C225.807 116.49 225.198 116.693 224.828 116.74C225.078 117.62 225.323 118.5 225.578 119.38C225.656 119.651 225.781 119.911 225.88 120.172C224.135 120.818 224.99 122.328 224.75 123.484C224.729 123.578 224.656 123.667 224.563 123.75C224.333 120.214 223.557 116.724 222.38 113.375C222.339 113.26 222.271 113.042 222.172 112.786C222.188 112.51 222.021 112.177 221.854 112C221.672 111.812 221.438 111.656 221.188 111.526C218.922 109.333 215.281 109.625 212.224 109.187C212.219 109.187 212.219 109.182 212.214 109.182C208.016 107.609 203.776 106.151 199.417 105.151C193.974 103.906 188.359 103.443 182.76 103.068C180.958 102.281 179.151 101.62 177.25 101.286C175.094 100.094 173.141 96.8333 171.854 95.2864C169.974 93.0208 167.99 90.875 165.662 89.0573C161.557 85.8437 156.781 83.7552 151.719 82.7031C151.089 82.1041 150.224 81.6093 149.823 81.7343C147.74 82.375 145.823 83.6041 143.885 84.6823C142.984 85.1875 142.969 85.7968 143.802 86.5729C144.484 87.1979 144.656 87.4375 145.333 86.4739C145.724 85.9271 146.563 85.6823 147.344 85.4218C146.526 86.1198 145.839 87.0052 145.276 87.9843C145.125 88.25 144.969 88.5312 144.818 88.8177C144.37 89.3385 144.005 89.9114 143.656 90.5156C143.349 91.0468 143.042 91.5781 142.734 92.1093C142.724 92.0937 142.714 92.0781 142.714 92.0625C142.552 90.8698 142.438 89.6666 142.313 88.4687C142.198 87.3541 142.385 86.0781 141.912 85.1458C139.703 80.8177 137.292 76.5885 134.995 72.3073C134.583 71.5312 134.354 70.6614 134.047 69.8333C134.958 69.9166 135.875 69.9948 136.792 70.0885C138.391 70.2448 140.13 70.8281 140.479 68.2708C140.667 66.9218 141.896 66.4166 142.974 66.8437C145.537 67.8646 148.208 68.8437 150.448 70.4062C153.927 72.8333 157.13 75.6666 160.359 78.4427C162.099 79.9427 163.63 81.6823 165.271 83.3073C167.865 85.8802 170.219 88.7708 173.125 90.9271C177.276 94.0104 181.891 96.4635 186.203 99.3385C190.885 102.464 195.656 104.844 201.583 104.578C204.391 104.448 207.271 105.484 210.078 106.156C214.787 107.276 219.375 108.964 224.359 108.536C225.76 108.417 227.255 108.656 228.62 109.047C229.438 109.286 230.26 110.005 230.771 110.724C232.547 113.255 234.276 115.823 235.854 118.479C238.266 122.531 241.5 126.115 242.339 131.052C242.484 131.927 242.625 132.818 242.787 133.703C242.797 134.302 242.797 134.896 242.787 135.495ZM238.214 145.516C238.005 145.437 237.609 145.333 237.615 145.297C237.719 144.682 237.87 144.078 238.01 143.474C238.229 144.302 238.219 144.906 238.214 145.516ZM142.255 119.656C143.12 122.062 144 124.464 144.964 126.828C147.406 132.833 150.839 137.984 156.969 141.031C160.646 142.854 164.162 145.115 166.563 148.687C167.313 149.802 167.495 150.604 166.292 151.516C161.109 155.448 155.839 159.276 150.844 163.432C146.443 167.083 141.646 169.812 136.146 171.292C135.188 171.552 134.167 171.724 133.182 171.693C130.375 171.62 127.552 171.578 124.776 171.234C121.552 170.833 118.375 170.099 115.167 169.552C112.229 169.052 109.281 168.62 106.339 168.12C106.156 168.089 105.979 168.047 105.797 168C105.651 167.937 105.505 167.87 105.359 167.807C104.214 167.333 102.953 167.021 101.734 167.276C101.693 167 101.755 166.51 101.859 165.734C101.885 165.562 101.88 165.391 101.875 165.214C102.052 164.167 102.318 163.141 102.729 162.167C102.896 162.734 103.052 163.307 103.219 163.88C103.328 164.255 103.458 164.625 103.578 164.995C103.755 164.682 103.906 164.344 104.125 164.062C104.271 163.88 104.609 163.62 104.724 163.677C105.729 164.146 106.724 164.641 107.677 165.208C109 166 110.255 166.917 111.609 167.646C111.964 167.839 112.578 167.547 113.073 167.479C112.87 167.12 112.599 166.776 112.479 166.391C112.057 164.995 111.573 163.599 111.318 162.172C110.964 160.177 110.037 159.63 107.943 159.99C106.724 160.198 105.37 160.115 104.177 159.781C103.708 159.651 103.266 158.49 103.266 157.797C103.281 155.708 103.49 153.62 103.682 151.536C105.146 151.594 106.599 151.734 107.948 152.37C109.328 153.016 110.505 154.021 111.573 155.094C112.104 155.63 112.609 156.187 113.12 156.745C113.615 157.292 114.141 157.854 114.875 158.068C114.912 158.083 114.958 158.083 114.995 158.094C116.802 159.557 118.667 160.948 120.599 162.24C121.354 162.745 122.099 163.505 123.026 163.047C123.693 162.719 124.193 161.833 124.568 161C124.813 160.646 125 160.271 125.063 159.911C125.078 159.859 125.073 159.802 125.078 159.745C125.229 159.365 125.938 157.776 125.969 156.828C126.224 156.526 126.167 155.187 125.891 153.776C125.901 153 125.787 152.042 125.771 151.979C125.505 150.635 125.089 148.875 124.047 147.891C120.87 144.875 117.604 141.953 114.266 139.115C114.245 139.083 114.224 139.047 114.198 139.016C111.375 134.729 108.427 130.516 105.526 126.276C105.443 126.156 105.281 126.083 105.219 125.953C104.938 125.401 104.682 124.833 104.422 124.271C104.318 124.323 104.115 124.38 104.12 124.427C104.177 125.245 103.99 126.245 104.396 126.844C105.313 128.203 106.557 129.333 107.583 130.63C107.75 130.839 107.599 131.661 107.38 131.776C105.141 132.911 102.781 131.318 102.771 128.719C102.76 126.151 102.807 123.583 102.74 121.021C102.724 120.432 102.333 119.854 102.115 119.276C101.734 119.776 101.156 120.229 101.016 120.797C100.604 122.359 100.412 123.979 100.063 125.568C99.8594 126.51 99.6667 127.5 99.2396 128.359C98.0157 130.781 95.4323 130.891 93.9792 128.63C92.9636 127.036 91.8646 125.484 90.9948 123.812C90.1667 122.229 89.3907 120.609 88.6407 118.984C88.9063 119.172 89.1667 119.349 89.4167 119.526C91.3334 120.854 93.4271 121.849 95.6303 122.604C95.75 122.901 95.8073 123.281 95.7657 123.802C95.6719 124.88 94.2657 126.495 96.0417 127.776C96.7188 127.625 97.8386 127.38 97.9948 126.849C98.9375 123.656 100.807 120.51 98.8594 117.115C98.8803 116.948 98.8907 116.797 98.8855 116.667C105.115 115.38 110.906 112.005 116.26 108.172C116.646 109.562 117.214 110.734 117.885 110.708C125.365 110.354 132.677 111.443 139.719 113.969C140.365 115.958 141.219 117.875 142.255 119.656ZM162.776 276.974C162.318 276.901 136.714 339.615 136.563 339.359C135.766 337.99 159.458 273.922 159.391 272.469C159.172 267.948 157.792 263.729 156.531 259.495C155.51 256.073 153.729 252.885 152.589 249.495C150.797 244.177 149.193 238.792 147.651 233.396C146.385 228.979 145.292 224.516 144.203 220.047C144.042 219.391 144.344 218.625 144.432 217.906C144.828 218.359 145.38 218.75 145.594 219.276C147.12 222.974 148.609 226.687 150.042 230.427C151.302 233.714 152.578 237 153.667 240.344C155.042 244.562 156.208 248.849 157.505 253.094C158.25 255.542 159.109 257.958 159.849 260.406C160.531 262.667 161.125 264.953 161.755 267.234C162.281 270.245 162.589 273.031 162.87 275.823C162.906 276.198 162.807 276.589 162.776 276.974ZM139.271 382.474C139.63 382.677 140 382.865 140.365 383.062C140.016 383.167 139.672 383.312 139.313 383.359C138.948 383.411 138.557 383.432 138.198 383.359C137.307 383.182 135.74 383.062 135.677 382.708C135.505 381.667 135.88 380.51 136.146 379.422C136.203 379.187 136.714 379.062 137.01 378.885C137.109 379.203 137.287 379.526 137.292 379.839C137.292 380.271 137.156 380.703 137.083 381.13C137.964 381.729 138.615 382.104 139.271 382.474ZM145.063 387.521C145.891 387.865 146.417 389.422 146.688 390.521C147.385 393.391 147.813 396.323 148.464 399.203C148.891 401.104 148.474 401.802 146.458 401.74C144.13 401.667 141.787 401.573 139.484 401.26C138.359 401.104 136.844 400.917 137.083 399.062C139.406 398.615 141.505 398.391 143.604 398.172C143.604 398.38 143.672 398.76 143.609 398.781C143.214 398.922 142.781 398.937 142.385 399.073C141.875 399.255 141.391 399.51 140.896 399.729C141.458 399.958 142.016 400.354 142.589 400.38C145.026 400.49 145.88 399.193 145.375 396.917C144.906 394.802 144.729 392.521 143.776 390.646C142.656 388.453 139.958 388.542 137.849 387.823C137.302 387.635 136.885 387.052 136.412 386.646C136.943 386.302 137.547 385.589 138 385.677C140.391 386.141 142.828 386.594 145.063 387.521ZM139.104 403.865C139.651 403.76 140.203 403.599 140.755 403.562C141.563 403.51 142.38 403.495 143.177 403.578C143.484 403.609 143.75 403.948 144.037 404.151C143.729 404.396 143.443 404.802 143.104 404.859C142.458 404.974 141.787 404.896 141.12 404.896C140.151 404.552 139.625 404.208 139.104 403.865ZM150.151 407.661C150.26 408.031 150.162 408.464 150.156 408.865C149.807 408.859 149.453 408.859 149.104 408.839C147.094 408.724 145.083 408.609 143.073 408.479C142.505 408.443 141.917 408.417 141.375 408.255C141.031 408.156 140.755 407.818 140.448 407.583C140.792 407.432 141.125 407.271 141.474 407.141C142.703 406.682 143.932 406.24 145.162 405.792C148.969 403.583 148.974 403.583 150.151 407.661ZM149.599 413.906C147.693 413.922 145.781 414.047 143.891 413.88C143.068 413.812 143.109 413.557 143.734 412.958C144.026 412.677 144.401 412.333 144.458 411.974C144.734 410.276 145.917 410.167 147.24 410.292C147.526 410.323 147.797 410.552 148.078 410.693C147.828 410.875 147.563 411.031 147.339 411.245C146.979 411.583 146.646 411.958 146.302 412.318C146.854 412.349 147.432 412.484 147.958 412.385C148.833 412.208 149.682 411.885 150.542 411.62C151.542 413 151.276 413.891 149.599 413.906ZM152.797 417.12C153.01 417.016 154.198 418.125 154.26 418.74C154.344 419.547 153.755 420.417 153.458 421.26C151.276 421.474 149.318 421.474 147.365 421.427C147.203 421.422 146.891 421.099 146.922 420.979C146.984 420.698 147.135 420.344 147.37 420.203C149.151 419.12 150.927 418.016 152.797 417.12ZM135.432 390.229C135.464 389.615 135.573 389.005 135.651 388.391C136.052 388.833 136.656 389.219 136.823 389.734C137.177 390.865 137.307 392.068 137.537 393.234C138.198 393.833 138.662 394.182 139.068 394.589C139.333 394.854 139.526 395.198 139.745 395.51C139.292 395.63 138.755 395.974 138.396 395.839C136.531 395.151 136.037 393.417 135.531 391.745C135.391 391.271 135.412 390.734 135.432 390.229ZM134.62 361.177C134.469 366.714 134.615 371.839 134.089 376.891C133.5 382.526 131.833 387.943 128.76 392.807C128.505 393.214 127.901 393.396 127.458 393.682C127.302 393.125 126.974 392.552 127.016 392.005C127.438 386.714 128.318 381.51 130.13 376.495C131.005 374.057 131.37 371.729 130.24 369.125C129.63 367.719 130.188 365.828 130.12 364.161C130.026 361.906 129.297 359.526 129.802 357.432C130.693 353.693 132.292 350.115 133.646 346.49C133.75 346.214 134.25 346.078 134.568 345.875C134.734 346.484 135.052 347.089 135.042 347.687C134.938 352.182 134.766 356.677 134.62 361.177ZM129.417 417.365C129.047 416.885 128.781 416.281 128.641 415.693C128.552 415.328 128.771 414.88 128.854 414.469C129.167 414.677 129.583 414.823 129.776 415.115C130.115 415.62 130.318 416.219 130.578 416.776C130.427 417.552 129.745 417.786 129.417 417.365ZM126.057 366.099C125.969 366.323 125.453 366.37 125.135 366.495C125.089 366.135 124.865 365.651 125.021 365.432C126.396 363.479 125.474 361.307 125.776 359.286C126.01 357.682 125.151 356.089 126.412 354.323C127.849 352.328 126.208 350.661 123.177 350.635C122.359 350.266 121.906 349.948 121.656 349.51C121.516 349.266 121.708 348.828 121.75 348.474C122.01 348.526 122.26 348.589 122.516 348.625C124.823 349 127.125 349.474 129.448 349.698C130.615 349.807 131.073 350.255 130.313 351.068C127.292 354.286 127.927 358.365 127.396 362.193C127.214 363.536 126.573 364.823 126.057 366.099ZM122.5 372.292C122.406 372.479 122.125 372.62 122.109 372.797C121.656 377.38 118.828 379.042 114.573 378.969C114.307 378.964 114.042 378.932 113.776 378.906C113.938 378.604 114.026 378.12 114.266 378.021C115.865 377.365 117.521 376.849 119.104 376.161C119.578 375.958 120.287 375.13 120.198 374.969C119.526 373.74 119.693 373.042 121.156 372.839C121.089 372.469 121.057 371.786 120.948 371.776C119.073 371.557 117.099 371.016 115.359 371.437C114.521 371.635 113.99 373.635 113.568 374.896C112.854 377 112.359 379.177 111.734 381.312C111.323 382.703 110.943 384.125 110.359 385.443C110.037 386.177 109.323 386.734 108.787 387.37C108.573 386.557 108.365 385.75 108.151 384.937C110.854 380.995 111.755 376.896 111.287 372.479C111.162 371.271 110.932 370.068 110.859 368.854C110.75 367.089 111.708 367 113.104 367.453C115.813 368.323 118.537 369.156 121.281 369.896C122.693 370.281 123.172 370.953 122.5 372.292ZM119.141 389.198C118.344 388.802 117.995 388.406 117.646 388.005C118.182 387.995 118.724 387.984 119.26 387.974C119.224 388.385 119.182 388.792 119.141 389.198ZM113.474 382.474C113.344 382.276 113.214 382.073 113.083 381.875C113.464 381.776 113.833 381.677 114.208 381.578C114.115 382.026 113.792 382.25 113.474 382.474ZM111.281 386.328C111.74 385.87 112.38 385.599 112.943 385.245C113.287 386.141 113.635 387.031 113.984 387.927C113.464 387.901 112.938 387.88 112.412 387.854C111.068 387.641 110.297 387.312 111.281 386.328ZM114.073 398.302C113.656 398.089 113.224 397.891 112.813 397.667C111.974 397.198 111.141 396.714 110.302 396.24C109.505 397.854 111.401 397.958 111.807 398.901C111.969 399.276 112.198 399.625 112.391 399.984C111.917 399.974 111.354 400.135 110.984 399.937C109.13 398.932 107.823 397.495 107.703 395.255C107.406 393.547 107.203 392.047 107.328 390.578C107.37 390.083 108.401 389.182 108.708 389.286C109.787 389.635 110.74 390.349 111.74 390.922C111.573 391.094 111.391 391.422 111.24 391.406C110.99 391.385 110.708 390.969 110.537 391.021C109.552 391.339 109.151 388.646 108.37 390.339C108 391.135 108.255 393.151 110.297 393.786C111.688 394.224 112.833 395.578 113.958 396.656C114.255 396.937 114.052 397.74 114.073 398.302ZM113.255 419.255C111.854 419.255 110.453 419.115 109.047 419.021C110.49 418.495 111.693 418.156 112.922 417.927C113.245 417.87 113.63 418.172 113.984 418.302C113.74 418.635 113.495 419.255 113.255 419.255ZM106.609 418.536C105.943 417.854 105.63 416.943 105.25 416.089C105.25 416.083 105.245 416.078 105.245 416.073C105.276 416.109 105.307 416.146 105.339 416.182C105.917 417.208 106.594 418.177 107.375 419.068C107.094 418.958 106.828 418.76 106.609 418.536ZM106.87 417.76C107.047 418.057 107.224 418.359 107.406 418.656C106.938 418.141 106.51 417.594 106.12 417.021C106.359 417.271 106.615 417.516 106.87 417.76ZM118.917 364.312C118.708 365.271 118.63 365.969 118.245 366.24C117.88 366.495 117.198 366.318 116.656 366.333C116.651 365.969 116.521 365.531 116.672 365.25C117.01 364.635 117.458 364.062 117.927 363.536C118.167 363.266 118.547 363.12 118.865 362.917C118.88 363.38 118.901 363.844 118.917 364.312ZM112.172 363.052C112.458 361.792 113.063 360.599 113.537 359.38C114.901 355.776 116.354 352.646 117.583 349.432C117.958 348.453 117.703 347.24 117.797 346.141C117.833 345.719 118.031 345.312 118.151 344.901C118.406 345.182 118.714 345.432 118.906 345.75C119.115 346.099 119.391 346.536 119.339 346.891C118.958 349.401 118.469 351.896 118.089 354.406C118.005 354.937 118.26 355.505 118.281 356.062C118.339 357.792 118.526 359.542 118.302 361.234C118.229 361.786 116.708 362.745 116.422 362.568C114.766 361.573 114.682 363.125 114.047 363.797C113.589 364.276 113.099 364.734 112.625 365.203C112.458 364.479 112.026 363.703 112.172 363.052ZM84.9271 83.2135C83.224 80.7187 83.6563 75.0364 85.7553 72.8333C85.823 72.7552 85.9063 72.6927 85.9948 72.6354C86.0886 72.526 86.2084 72.4375 86.3386 72.4062C86.3542 72.4062 86.3646 72.4114 86.3803 72.4062C86.4323 72.375 86.4844 72.3489 86.5365 72.3125C86.5521 72.3437 86.573 72.3698 86.5938 72.401C86.8386 72.4479 87.0313 72.6458 87.1146 72.8958C87.323 73.5416 87.4428 74.2291 87.3803 74.9114C87.3178 75.6198 87.0417 76.276 86.8073 76.9479C86.3803 78.1406 85.974 79.3489 85.7813 80.6093C86.0782 81.9271 87.0157 83.0989 88.1928 83.3854C89.0782 84.0677 89.8334 84.5989 90.5365 85.1302C88.6198 84.5989 86.724 84.0104 84.9271 83.2135ZM82.4375 66.7343C80.073 71.7343 77.7813 76.7604 75.4428 81.7708C74.6146 83.5364 72.6563 83.8958 71.2448 82.5885C69.1198 80.6198 67.3125 80.6562 65.0938 82.7031C64.8542 82.9218 64.5678 83.0833 64.3021 83.2708C64.3855 82.9583 64.4532 82.6458 64.5625 82.3489C64.724 81.8906 64.8073 81.3541 65.1094 81.0156C66.0261 79.9948 66.823 78.25 68.5053 80.2187C68.6928 80.4375 69.2969 80.3021 69.7084 80.3333C69.5469 79.9635 69.4896 79.4323 69.2136 79.2552C68.2188 78.625 67.198 77.8802 66.0886 77.6406C65.4375 77.5 64.5052 78.1198 63.8698 78.6146C63.2657 79.0781 62.9532 79.8958 62.4011 80.4427C59.0678 83.7604 57.1667 88.1614 54.1563 91.6302C50.9167 95.3593 48.1355 99.75 43.2761 101.891C41.8177 102.536 41.099 101.792 40.3855 100.948C40.25 100.786 40.8073 99.8437 41.2188 99.4323C46.9375 93.6718 51.6823 87.2396 54.9948 79.7968C58.2865 75.3125 61.0521 70.7812 64.5313 66.8906C66.6459 64.526 69.1615 61.7708 73.099 62.3125C73.9375 62.4271 75.1615 62.3125 75.5365 62.8073C77.073 64.8385 79.2813 64.1979 81.224 64.526C82.7032 64.776 83.1042 65.3229 82.4375 66.7343ZM74.2605 94.1458C73.9532 93.8333 73.6198 93.5416 73.3542 93.1979C73.1042 92.8698 72.9271 92.4843 72.7136 92.1302C71.4792 90.4479 70.7813 88.9271 71.8334 87.1979C72.0938 86.7708 72.5261 86.4479 72.8855 86.0729C73.1407 86.4635 73.5573 86.8229 73.6355 87.25C73.9792 89.1302 74.25 91.026 74.4896 92.9271C74.5417 93.3177 74.3438 93.7343 74.2605 94.1458ZM63.9375 86.9479C62.9896 88.0781 61.875 89.0625 60.8282 90.1093C59.9792 90.8073 59.3698 91.3021 58.724 91.75C58.3959 91.9791 58.0105 92.1302 57.6511 92.3125C57.7396 91.8802 57.6823 91.1927 57.9375 91.0521C59.25 90.3229 58.8646 87.4531 61.4063 88.2916C61.5261 88.3281 61.8125 88.0312 61.9428 87.8333C62.2865 87.3125 62.5053 86.6718 62.9428 86.25C63.5261 85.6875 64.2709 85.2864 64.948 84.8125C64.6198 85.5312 64.4271 86.3646 63.9375 86.9479ZM46.6875 124.187C46.5105 123.932 46.2292 123.693 46.1667 123.411C45.7188 121.349 45.3438 119.271 44.8855 117.208C44.7709 116.682 44.4636 116.193 44.2448 115.682C43.8646 116.115 43.1771 116.531 43.1615 116.979C43.1459 117.24 43.1355 117.5 43.125 117.766C43.0469 118 42.9844 118.24 42.9271 118.479C42.6875 119.547 42.5157 120.63 42.4167 121.714C42.2969 122.958 42.2813 124.203 42.3438 125.443C41.6563 124.172 40.9427 122.911 40.3594 121.594C39.9167 120.604 39.7865 119.359 39.8855 118.266C40.0677 116.245 40.0157 114.38 38.349 112.937C38.1407 112.76 37.8698 112.667 37.625 112.531C37.5052 112.833 37.2969 113.135 37.2917 113.437C37.2605 115.453 37.4271 117.484 37.2344 119.484C36.9167 122.823 36.3334 126.135 35.9584 129.474C35.8125 130.755 35.9584 132.062 35.9063 133.359C35.9011 133.594 35.5625 133.823 35.375 134.057C35.2605 133.823 35.0625 133.599 35.0469 133.365C34.8802 130.661 34.6719 127.964 34.6042 125.255C34.5261 122.245 34.7084 119.219 34.5313 116.214C34.448 114.792 33.7136 113.422 33.4115 111.995C33.2188 111.089 32.1719 109.906 33.6615 109.318C34.0469 109.167 34.8802 110.109 35.4792 110.589C35.6094 110.693 35.724 110.812 35.8386 110.937C35.7032 110.661 35.5052 110.406 35.3698 110.208C35.0052 109.667 34.5782 109.167 34.2657 108.594C33.4688 107.125 32.849 105.516 32.6823 103.849C32.5782 103.635 32.474 103.422 32.3698 103.208C32.3282 103.12 32.625 102.797 32.823 102.672C35.3646 101.104 38.4427 100.135 40.2552 103.604C40.5834 104.229 41.0313 104.812 41.5209 105.318C46.3855 110.333 46.5417 116.823 47.125 123.172C47.1511 123.495 46.8386 123.849 46.6875 124.187ZM39.5209 125.312C39.6302 124.339 39.7396 123.818 39.8542 123.292C40.0417 123.589 40.4323 123.937 40.375 124.172C40.2657 124.615 41.0521 125.917 39.5209 125.312ZM32.1667 124.589C31.9271 124.276 31.5469 123.99 31.4688 123.635C30.974 121.448 30.5782 119.245 30.0834 117.057C29.9323 116.391 29.7657 115.578 29.3073 115.172C28.1355 114.125 28.0521 112.969 28.5313 111.635C29.0521 109.229 29.2657 107.021 29.7136 104.87C29.823 104.354 30.7136 104.005 31.2396 103.578C31.2761 104.135 31.4167 104.708 31.3177 105.234C31.1407 106.135 30.7761 106.995 30.5834 107.896C30.5521 108.047 30.9532 108.328 31.198 108.484C31.5625 108.724 31.9584 108.906 32.3438 109.115C31.9323 109.505 31.573 109.984 31.099 110.26C30.7084 110.49 30.1823 110.479 29.7136 110.573C30.1875 111.198 30.5365 112.042 31.1615 112.385C32.1146 112.917 32.8334 113.609 32.3021 114.359C31.0052 116.193 32.0677 117.969 32.1875 119.75C32.2709 120.937 32.6563 122.099 32.7552 123.292C32.7865 123.703 32.375 124.156 32.1667 124.589ZM91.3178 63.4583C92.0886 61.2864 94.6719 59.8177 95.8073 57.6979C97.3959 54.7396 98.3855 51.4531 99.6303 48.3073C100.823 45.2916 102.302 42.3489 103.099 39.2343C103.479 37.7239 102.349 35.901 102.307 34.2083C102.266 32.3958 102.542 30.526 103.037 28.7812C103.099 28.5729 103.557 28.4843 104.109 28.4114C104.047 28.5989 103.979 28.7864 103.922 28.9791C103.464 30.5677 103.177 32.4479 103.833 33.9062C104 34.5208 104.339 35.1562 104.667 35.6875C106.177 38.125 105.88 42.6718 104.031 44.7187C103.63 45.1614 103.484 45.8281 103.219 46.3854C103.724 46.3281 104.24 46.1927 104.745 46.2291C105.214 46.2552 105.703 46.401 106.094 46.6406C106.203 46.7135 105.974 47.3073 105.912 47.6614C105.609 49.3281 105.313 51 105.016 52.6666C105.016 56.1302 104.958 59.1458 105.057 62.151C105.078 62.776 105.583 63.4635 106.031 63.9635C107.266 65.3385 107.063 66.6562 106.198 68.1146C105.833 68.7343 105.75 69.5208 105.542 70.2343C106.156 70.0156 106.787 69.8229 107.385 69.5677C110.068 68.4479 112.698 67.3593 114.76 65.0677C115.797 63.9166 117.609 63.3958 119.162 62.8333C119.609 62.6718 120.604 63.2291 120.938 63.7291C122.026 65.3541 122.787 66.9583 122.141 69.1875C121.229 72.3437 120.094 74.6771 116.417 75.4427C111.026 76.5625 105.823 78.651 100.151 78.0156C98.2032 77.7968 96.2292 77.8177 94.2917 77.526C93.7032 77.4427 93.1823 77.2604 92.7136 77.0104C92.2553 75.3802 91.9844 73.6666 91.698 71.9635C91.5886 71.0521 91.3855 70.1354 91.1407 69.1927C91.125 69.1146 91.073 68.9375 91.0053 68.7031C90.8907 66.875 90.7553 65.0416 91.3178 63.4583ZM94.7292 51.2812C94.6667 51.125 94.6094 50.9791 94.5625 50.8646C93.125 47.1614 91.75 43.4323 91.7605 39.5729C92.5469 42.4739 93.7032 45.2968 94.8334 47.9271C94.8698 48.0104 94.9063 48.0989 94.948 48.1823C94.8698 49.2187 94.75 50.25 94.7292 51.2812ZM114.052 35.9583C112.297 37.1718 110.833 38.5312 110.047 40.5833C109.839 40.7812 109.599 40.9323 109.302 40.9843C109.115 41.0156 108.927 41 108.745 40.9583C108.677 40.8385 108.62 40.7187 108.625 40.6041C108.693 39.3333 108.787 38.0625 108.891 36.7968C108.938 36.7604 108.979 36.7187 109.01 36.651C109.031 36.6198 109.057 36.5937 109.078 36.5625C109.115 36.5156 109.141 36.4583 109.172 36.4062C110.563 35.5208 112.839 35.4375 114.26 34.4687C115.745 33.4583 116.927 32.0416 118.089 30.6979C119.563 28.9948 121.328 27.7864 122.344 26.1771C122.406 26.2135 122.458 26.2448 122.505 26.2708L120.938 28.2291C120.292 29.026 119.984 29.9166 119.422 30.5937C118.323 31.9271 117.297 33.4271 116.026 34.5416C116.094 34.5312 116.156 34.5104 116.229 34.5052C120.563 34.1718 125.323 36.2448 127.974 39.6979C128.13 39.901 128.24 40.1093 128.328 40.3229C128.365 40.3177 128.401 40.3125 128.443 40.3073C129.323 40.1614 130.688 40.0677 129.474 38.4896C129.068 37.9583 124.609 35.8906 124.542 35.1666C124.531 35.0625 129.391 36.026 129.635 35.9271C129.646 35.9323 129.656 35.9375 129.667 35.9427C129.745 35.9531 129.823 35.9843 129.901 36.026C130.021 36.0833 130.141 36.1302 130.255 36.1875C130.412 36.2604 130.568 36.3437 130.708 36.4375C130.896 36.5625 131.083 36.7083 131.224 36.8802C131.422 37.125 131.547 37.3958 131.552 37.7187C131.552 38.0521 131.38 38.3333 131.172 38.5781C130.901 39 130.557 39.5364 130.578 39.5729C131.703 41.3177 133.943 44.651 132.193 46.2812C130.109 48.2239 128.458 49.0312 129.979 49.5573C131.406 50.0416 132.583 50.4271 133.964 50.6093C133.255 51.5937 132.625 52.4739 132.313 52.9635C129.917 52.7239 127.62 52.526 125.318 52.5156C124.995 52.5156 124.245 53.75 124.396 54.0052C125.391 55.7291 127.063 56.5729 128.792 57.2031C129.229 58.2083 128.354 63.3333 120.422 59.6458C115.688 57 112.167 53.1823 109.432 48.5677C107.839 45.875 107.875 43.7968 109.74 43.0625C111.833 42.2343 113.615 41.1041 115.021 39.4583C113.682 38.9687 113.391 37.2343 114.052 35.9583ZM123.162 23.6093C123.208 23.4687 123.245 23.3281 123.292 23.1875C123.625 22.1354 123.818 21.0052 124.354 20.0729C124.688 19.5 125.516 18.9531 126.177 18.875C127.125 18.7708 128.125 19.0885 129.099 19.2708C129.599 19.3646 130.083 19.5468 130.578 19.6927C130.229 20.125 129.953 20.6718 129.505 20.9687C127.953 22.0156 126.339 22.9791 124.75 23.9687C124.042 24.3281 123.516 24.5104 123.005 24.6718C123.089 24.3437 123.146 23.9896 123.162 23.6093ZM136.563 23.0937C136.818 23.0052 137.068 21.1302 137.323 21.0521C138.313 21.3646 139.297 21.6771 140.276 22.0156C142.714 25.2552 142.385 25.875 143.115 27.7448C143.146 27.8177 140.401 29.0312 140.557 29.3646C140.672 30.0364 141.948 29.9166 141.891 30.5C141.568 31.2396 141.208 31.9583 140.844 32.6718C140.427 33.4948 139.974 34.2916 139.427 35.026C138.802 35.6146 138.115 36.1614 137.406 36.6771C135.964 37.7239 135.578 38.9323 135.563 40.4114C135.557 40.8646 135.891 41.6041 136.203 41.901C136.26 41.9114 136.323 41.9323 136.38 41.9479C136.88 42.6614 137.38 43.4166 137.662 44.2343C137.729 44.7083 137.729 45.2135 137.557 45.651C137.542 45.6823 137.526 45.7187 137.51 45.7552C137.516 45.7604 137.516 45.7604 137.516 45.7708C137.505 45.7864 137.495 45.8021 137.479 45.8177C137.427 45.9271 137.359 46.0208 137.276 46.1093C137.109 46.3489 136.573 47.0625 135.912 47.9635C135.703 46.7031 135.537 45.0521 135.432 44.4896C134.74 39.3229 134.635 39.7864 133.849 36.651C134.031 34.2812 133.594 34 132.13 32.5052C130.01 30.3333 128.078 28.3437 125.115 29.4948C126.037 27.9635 128.417 25.2396 129.693 24.1041C131.688 22.3385 133.932 22.5104 136.563 23.0937ZM139.24 40.0781C139.219 40.0573 139.198 40.0416 139.182 40.0677C139.151 40.1302 139.12 40.1927 139.083 40.2604C138.531 40.8437 137.797 41.2864 136.906 41.1614C136.24 39.5729 136.344 40.0364 136.24 39.5729C136.234 39.5364 140.01 38.276 140.219 38.1927C140.224 38.4375 139.875 39.3333 139.24 40.0781ZM127.01 71.7396C127.453 70.7239 128.151 69.8177 128.734 68.8646C129.474 69.5677 130.266 70.2187 130.943 70.9791C131.51 71.625 132.031 72.2916 132.521 72.9739C137.766 75.8073 140.026 85.7656 135.333 88.0364C135.193 88.1093 135.052 88.1666 134.901 88.2083C134.734 88.2656 134.552 88.3177 134.365 88.3541C134.349 88.3698 134.333 88.3802 134.318 88.3906C134.245 88.401 134.172 88.4114 134.099 88.4218C134.073 88.4271 134.052 88.4271 134.031 88.4323C127.172 89.4218 122.234 83.4583 115.76 82.3593C112.88 81.8698 110.583 82.7708 108.198 84.1718C107.906 84.3021 107.62 84.4375 107.333 84.5781C106.12 85.1666 104.943 85.8281 103.729 86.4271C102.917 86.8281 102.057 87.2239 101.162 87.3906C100.984 87.3073 100.807 87.2135 100.63 87.125C98.9375 85.5573 97.1563 84.0833 95.5678 82.3854C95.3125 82.1146 95.0834 81.8333 94.8646 81.5468C94.8855 81.5521 94.9115 81.5573 94.9375 81.5573C97.8282 81.8021 100.745 82.0677 103.635 81.9687C105.26 81.9114 106.828 80.9843 108.469 80.7291C111.188 80.2968 114.005 80.3646 116.672 79.7343C121.25 78.6614 125.026 76.3125 127.01 71.7396ZM123.813 71.0885C123.964 70.1927 124.037 69.2812 124.292 68.4166C124.401 68.0416 124.875 67.7708 125.182 67.4479C125.292 67.9531 125.464 68.4531 125.474 68.9583C125.484 69.3541 125.297 69.7552 125.198 70.1562C124.901 70.7135 124.922 71.1354 124.724 71.3646C124.438 71.7031 123.99 71.8958 123.609 72.151C123.677 71.7968 123.755 71.4427 123.813 71.0885ZM174.427 165.464C174.776 165.682 175.245 165.865 175.412 166.198C176.073 167.49 176.63 168.828 177.229 170.151C178.776 174.536 180.125 178.687 181.406 182.865C181.896 184.464 182.224 186.115 182.599 187.745C182.635 187.911 182.458 188.12 182.38 188.312C182.156 188.193 181.813 188.115 181.74 187.932C181.391 187.109 181.135 186.245 180.818 185.401C180.297 183.995 179.787 182.583 179.26 181.177C178.547 178.766 177.745 176.385 176.865 174.036C176.87 174 176.885 173.969 176.885 173.932C176.932 173.375 176.521 172.437 176.089 172.026C175.76 171.203 175.422 170.385 175.068 169.573C174.776 168.74 174.469 167.911 174.146 167.094C174.167 166.703 174.162 166.302 174.109 165.896C174.094 165.76 174.417 165.453 174.427 165.464ZM27.2552 121.021C27.125 120.984 26.9844 120.724 26.974 120.552C26.9375 120.047 26.9584 119.536 26.9584 119.031C27.3959 119.495 27.6146 120.177 27.7969 120.87C27.8021 120.88 27.4167 121.073 27.2552 121.021ZM248.5 139.109C247.464 136.182 246.537 133.167 245.068 130.453C243.896 128.281 242.417 126.286 240.984 124.255C238.182 121.797 236.385 118.328 235.01 114.682C234.271 113.464 233.578 112.208 232.854 110.974C231.693 108.99 230.094 107.479 227.755 107.182C225.37 106.88 222.948 106.865 220.547 106.693C219.833 106.641 219.12 106.542 218.427 106.396C212.583 105.161 206.797 103.437 200.891 102.812C195.938 102.286 191.531 101.26 187.474 98.2343C183.542 95.2968 179.109 93.0208 175.219 90.0416C172.068 87.6354 169.438 84.5625 166.5 81.8698C162.073 77.8125 157.651 73.7343 153.073 69.8541C151.224 68.2864 149.037 67.0521 146.87 65.9271C142.651 63.7291 138.412 65.3229 134.172 66.0729C132.865 66.3021 131.453 66.25 130.12 66.0677C128.609 65.8646 127.151 65.2291 125.635 65.026C122.708 64.6458 122.307 64.2916 121.573 61.1302C121.557 61.0677 121.526 61.0104 121.505 60.9531C122.849 61.2604 125.323 61.6771 125.703 61.7135C129.651 62.0885 130.01 58.6041 130.318 57.7083C130.953 57.7135 133.344 56.3593 131.385 55.1093C131.385 55.1093 131.948 55.0416 132.521 54.9218C132.531 54.8958 132.547 54.875 132.557 54.8437C132.573 54.8021 132.594 54.7656 132.609 54.7239C132.62 54.7083 132.625 54.6927 132.63 54.6823C132.698 54.5312 132.76 54.3906 132.828 54.2448C132.922 54.0312 133.016 53.8229 133.12 53.6198C133.146 53.5677 133.172 53.5104 133.203 53.4583C133.177 53.4271 133.156 53.401 133.13 53.375C133.287 52.9166 133.583 52.5 133.88 52.1146C134.24 51.6458 134.604 51.1718 134.969 50.7031C135.099 50.7135 135.229 50.7239 135.365 50.7291C135.505 50.7343 136.693 50.3854 136.24 49.3802C136.203 49.2968 136.167 49.1823 136.13 49.0468C136.245 48.9062 136.318 48.8177 136.339 48.7968C136.88 48.2396 137.464 47.5937 137.885 47.0521C137.979 46.9375 138.063 46.8229 138.151 46.7031C138.177 46.6614 138.203 46.6198 138.224 46.5781C138.245 46.5364 138.266 46.4896 138.292 46.4479C138.292 46.4479 138.292 46.4479 138.292 46.4427C138.328 46.3021 138.38 46.1718 138.412 46.0312C138.417 46.0104 138.422 45.9791 138.422 45.9635C138.432 45.8906 138.432 45.8177 138.438 45.7448C138.438 45.7396 138.438 45.7291 138.438 45.7239C138.443 45.6875 138.453 45.6562 138.464 45.6198C138.557 45.1771 138.62 44.7291 138.667 44.2864C138.75 43.4739 138.771 42.6614 138.787 41.8489C138.885 41.6614 138.979 41.4791 139.078 41.2916C140.719 38.4218 142.49 35.5677 143.042 32.2239C143.193 31.8333 143.328 31.4323 143.432 31.0312C143.797 29.6198 143.698 28.2135 143.438 26.7968C143.203 25.5 142.938 24.2083 142.677 22.9166C142.76 22.9531 142.849 22.9843 142.932 23.0208C144.162 23.5312 145.609 24.1823 146.422 25.2968C147.641 26.9531 146.927 29.25 146.37 31.1093C145.109 35.276 143.125 39.0312 142.094 43.1041C142.099 43.2083 142.094 43.3177 142.078 43.4271C142 43.8541 141.891 44.2708 141.755 44.6771C141.516 45.9896 141.38 47.3437 141.422 48.7656C141.469 50.2552 141.833 52.4218 142.755 53.6354C143.151 54.151 143.49 54.4687 143.693 54.3385C143.38 52.5156 143.641 50.5052 144.031 48.8125C144.339 47.5156 144.88 46.3021 145.641 45.2239C146.495 43.0573 147.495 40.9323 148.25 38.7396C149.542 34.9843 149.948 31.2656 149.156 27.3593C148.505 24.1458 147.339 20.6146 144.88 18.3177C144.568 18.0208 144.224 17.7552 143.875 17.5C142.667 13.7448 140.344 10.1458 138.125 7.43747C133.625 1.9583 126.521 -0.00523861 119.646 0.723928C117.318 0.973928 114.865 1.48434 112.427 2.22393C111.781 2.35414 111.13 2.50518 110.49 2.68747C106.839 3.69268 103.745 5.43747 101.339 7.71351C100.573 8.29684 99.8542 8.90622 99.1875 9.55205C98.3698 10.3385 97.6719 11.1666 97.0782 12.0208C96.6719 12.5521 96.2813 13.0989 95.9323 13.6927C94.2448 16.5521 93.6407 19.6823 93.7969 22.8177C91.6198 25.4114 90.0573 28.276 89.4896 31.8073C88.8021 33.8802 88.5521 36.0937 88.6928 38.2708C88.9167 41.9375 90.3178 44.9687 91.4636 48.3802C92.4636 51.3646 92.5105 54.5208 94.8542 56.8646C93.2188 60.9531 85.9792 63.7135 81.9271 61.9375C77.5365 60.0156 72.7396 59.1979 68.5573 61.9531C63.1146 65.5364 59.224 70.8021 55.698 76.2291C53.8438 79.0885 52.4375 82.2343 50.5521 85.0677C48.2292 88.5573 45.7761 91.9791 43.0938 95.1979C40.8177 97.9323 38.4792 100.526 34.1042 100.099C31.698 99.8646 29.625 101.318 28.3959 103.401C28.25 107.495 27.3125 111.38 26.224 115.323C25.7396 117.078 25.2969 118.833 24.8959 120.594C24.4896 123.479 24.4532 126.391 25.1823 129.339C25.5157 130.672 25.9688 132 26.5677 133.24C26.7657 133.651 27.5834 133.766 28.1198 134.016C28.1823 133.568 28.3177 133.115 28.2969 132.672C28.1719 130.167 27.8855 127.661 27.9167 125.156C27.9271 124.104 28.5625 123.057 28.9167 122.005C29.3125 123.073 29.9584 124.12 30.0521 125.214C30.3334 128.427 30.3594 131.661 30.5677 134.885C30.6563 136.271 31.1302 137.422 32.9375 137.219C33.3855 137.172 33.8594 137.557 34.3334 137.594C35.2448 137.656 36.4167 137.974 37.0209 137.542C38.1563 136.729 38.3021 135.49 37.9532 133.927C37.599 132.328 38.0313 130.526 38.2969 128.839C38.3646 128.427 39.1459 128.125 39.599 127.776C39.6198 128.255 39.6355 128.729 39.6667 129.203C39.7657 130.766 39.8021 132.339 39.9896 133.891C40.1459 135.187 40.948 135.005 41.8125 134.505C43.4844 133.547 44.6302 130.328 43.7344 128.234C43.6459 128.031 43.5521 127.828 43.4584 127.63C43.4532 127.589 43.4427 127.552 43.4323 127.51C43.1459 126.365 42.8698 125.245 42.7969 124.057C42.7136 122.75 42.8125 121.443 43.073 120.161C43.1355 122.339 43.625 124.406 45.6459 125.995C45.8542 126.161 46.0886 126.292 46.3386 126.411C46.4323 126.411 46.5261 126.422 46.6146 126.448C46.6407 126.453 46.823 126.505 46.9427 126.531C46.974 126.536 47.0052 126.542 47.0365 126.542C47.1042 126.552 47.1667 126.557 47.2344 126.557C47.323 126.562 47.4115 126.562 47.5052 126.557C47.5469 126.552 47.599 126.547 47.6407 126.536C47.6875 126.526 47.7292 126.516 47.7709 126.505C47.7865 126.5 47.8177 126.49 47.849 126.479C47.8907 126.464 47.9271 126.443 47.9688 126.422C48.0469 126.38 48.125 126.333 48.2032 126.286C48.2188 126.276 48.2344 126.26 48.25 126.25C48.3594 126.161 48.4584 126.062 48.5625 125.964C48.6511 125.365 48.724 124.76 48.6615 124.172C48.3855 121.323 47.9167 118.495 47.6355 115.651C47.5782 115.094 47.8646 114.328 48.2657 113.932C49.7136 112.505 51.1615 111.026 52.8177 109.87C58.7969 105.687 64.4167 101.177 68.5365 95.0104C70.2188 92.4948 70.9532 92.6406 72.2553 95.2604C72.3803 95.5052 72.4636 95.7708 72.5782 96.0208C73.5157 98.1718 74.5782 100.281 75.3803 102.479C76.8542 106.51 77.8594 110.74 79.6407 114.62C81.4063 118.464 83.7448 122.073 86.0886 125.62C89.1719 130.281 92.5678 134.734 95.7084 139.359C98.6407 143.667 101.63 148.062 101.375 153.578C101.146 158.63 100.438 163.667 100.104 168.719C99.823 173.057 99.599 177.417 99.6771 181.755C99.7657 186.568 100.151 191.38 100.542 196.182C101.099 202.937 102.542 209.562 105.047 215.833C108.224 223.781 111.776 231.589 115.365 239.359C117.635 244.26 120.224 249.016 122.755 253.786C127.073 261.922 131.578 269.964 134.162 278.88C134.281 279.302 134.37 279.703 134.448 280.099C123.526 286.318 120.672 298.812 119.682 311.198C119.12 315.047 118.849 318.948 118.51 322.828C118.01 328.443 117.922 334.089 117.547 339.714C117.38 342.292 117.042 344.859 116.656 347.411C116.276 349.927 115.458 352.234 113.271 353.875C112.427 354.505 111.839 355.49 111.188 356.354C106.693 362.323 105.62 369.51 104.151 376.526C103.594 379.177 103.484 381.922 103.083 384.615C102.26 390.167 101.203 395.693 100.573 401.266C99.9532 406.766 101.5 411.547 104.854 415.604C105.063 416.078 105.271 416.547 105.479 417.021C105.833 417.818 106.172 418.594 106.807 419.203C106.953 419.339 107.109 419.458 107.276 419.557C106.688 421 108.62 420.958 109.266 421.349C110.229 421.937 111.552 421.911 112.698 422.229C116.266 423.229 120.912 421.76 122.229 418.734C123.162 416.589 123.401 414.12 123.833 411.781C124.219 409.677 124.422 407.542 124.776 405.432C124.833 405.094 125.24 404.812 125.484 404.505C125.688 404.797 126.026 405.062 126.073 405.375C126.276 406.802 126.537 408.24 126.51 409.672C126.469 412.375 126.302 415.083 126.078 417.781C125.885 420.177 126.943 421.693 128.969 422.875C130.344 423.672 131.234 424.766 131.63 426.646C132.464 430.594 135.833 432.625 139.214 432.594C144.563 432.536 149.932 431.984 155.24 431.255C157.26 430.984 159.583 430.224 160.162 427.62C160.245 427.255 160.005 426.818 159.917 426.422C159.667 426.687 159.417 426.953 159.162 427.214C158.646 427.74 158.214 428.427 157.589 428.745C155.49 429.812 152.083 428.802 150.766 426.833C149.63 425.135 148.599 425.12 147.016 426.292C145.344 427.531 143.573 428.917 141.63 429.469C137.193 430.729 135.031 430.562 133.224 425.896C132.662 424.432 131.599 423.146 130.677 421.844C130.328 421.359 129.724 421.057 129.234 420.677C129.396 420.5 129.583 420.151 129.724 420.167C130.557 420.281 131.391 420.443 132.198 420.677C132.365 420.724 132.417 421.156 132.526 421.417C133.495 423.687 135.13 425.182 137.505 425.995C140.635 427.062 143.615 427.719 146.12 424.646C147.833 422.552 150.49 422.635 152.323 424.677C153.781 426.307 155.266 426.339 156.938 425.37C157.802 424.865 158.51 424.109 159.307 423.49C160.359 422.682 160.427 421.802 159.755 420.667C158.193 418.036 156.698 415.359 155.203 412.687C153.234 409.167 151.396 405.698 151.552 401.375C151.63 399.089 150.609 396.74 149.943 394.464C149.438 392.745 148.698 391.094 148.078 389.411C147.839 388.76 147.844 387.875 147.396 387.474C145.495 385.76 146.177 383.964 146.906 382.042C147.547 380.359 147.995 378.604 148.521 376.88C148.63 376.526 148.703 376.156 148.792 375.797C148.38 376.026 147.734 376.167 147.589 376.51C146.646 378.807 145.505 381.094 145.031 383.5C144.682 385.297 144.13 385.318 142.849 384.646C142.359 384.391 141.859 384.13 141.412 383.807C141.198 383.651 140.922 383.266 140.979 383.104C141.667 381.307 142.453 379.552 143.094 377.745C143.177 377.495 142.672 376.802 142.318 376.682C140.526 376.052 140.271 377.396 140.005 378.641C139.87 379.286 139.802 379.948 139.703 380.609C139.5 379.865 139.25 379.135 139.125 378.385C139.037 377.88 139.198 377.339 139.115 376.839C139.068 376.562 138.787 376.224 138.526 376.12C138.167 375.974 137.375 376.036 137.375 375.984C137.344 375.187 137.292 374.349 137.516 373.604C137.599 373.318 138.516 372.953 138.781 373.099C141.516 374.635 144.521 374.167 147.432 374.495C149.318 374.708 149.87 373.88 150.313 372.505C152.266 366.437 154.349 360.406 156.115 354.286C158.5 345.99 160.557 337.599 162.901 329.286C164.266 324.464 165.12 319.583 165.448 314.646C167.198 306.901 166.552 298.943 165.573 291.078C165.859 284.177 166.172 277.281 166.464 270.38C166.474 270.156 166.422 269.922 166.474 269.708C168.578 261.312 170.557 252.885 172.839 244.542C175.599 234.422 178.698 224.396 181.495 214.281C183.495 207.047 185.031 199.687 184.797 192.13C184.693 188.797 184.281 185.391 183.443 182.167C181.979 176.536 180.51 170.833 178.229 165.505C176.24 160.865 173 156.776 170.537 152.318C167.766 147.312 163.922 143.542 158.948 140.729C156.313 139.24 153.651 137.531 151.557 135.38C147.406 131.12 145.318 125.63 143.656 120.016C143.677 119.635 143.662 119.271 143.651 119.156C143.521 118.031 143.214 116.88 142.745 115.812C142.651 115.312 142.552 114.807 142.432 114.307C142.135 113.026 141.375 111.76 141.417 110.505C141.505 107.479 141.74 104.432 142.302 101.469C142.807 98.8125 142.516 95.9531 144.328 93.5625C145.349 92.2239 146.359 91.8541 147.583 92.9896C150.125 95.3541 152.537 97.8698 155.208 100.083C157.542 102.016 159.995 103.937 162.682 105.292C168.667 108.302 174.839 110.932 180.917 113.766C183.115 114.786 185.151 116.464 187.443 116.901C192.432 117.859 197.526 118.474 202.604 118.729C207.156 118.953 211.755 118.625 216.318 118.312C218.615 118.151 219.745 118.583 220.25 121.13C221.203 125.911 222.766 130.562 223.818 135.323C224.167 136.906 224.677 138.12 226.271 138.021C227.891 137.917 228.484 136.427 228.318 135.005C228.115 133.281 227.495 131.615 227.167 129.901C227.078 129.432 227.406 128.885 227.542 128.375C227.958 128.542 228.479 128.599 228.766 128.885C229.583 129.714 230.38 130.578 231.047 131.521C233.672 135.245 235.375 139.255 235.135 143.969C235.005 146.448 236.813 148.99 237.813 148.286C239.422 147.172 241.516 146.479 242.583 144.964C243.38 143.839 243.042 141.896 243.151 140.312C243.156 140.187 243.12 140.062 243.057 139.943C243.073 139.714 243.099 139.484 243.115 139.255C243.193 138.073 243.234 136.891 243.26 135.708C243.682 137.052 244.323 138.318 245.438 139.38C245.917 139.833 246.547 140.13 247.172 140.432C247.234 140.422 247.302 140.406 247.37 140.391C247.49 140.359 247.615 140.333 247.729 140.302C247.76 140.297 247.787 140.286 247.818 140.276C247.854 140.266 247.865 140.26 247.88 140.255C247.891 140.25 247.906 140.245 247.922 140.24C248.021 140.198 248.115 140.141 248.208 140.083C248.417 139.719 248.594 139.365 248.5 139.109Z" fill="white"/>
</g>
<path d="M102.88 51.6563C102.557 56.3177 100.458 60.1823 98.2605 63.9948C98.1094 64.2656 97.6615 64.3698 97.3542 64.5521C97.2136 64.2708 96.9115 63.9583 96.9636 63.7188C97.3647 61.8802 97.6876 60.0052 98.3178 58.2448C99.4219 55.1302 100.677 52.0625 101.995 49.0313C102.188 48.5885 103.083 48.4531 103.656 48.1719C103.594 48.6927 103.563 49.2135 103.458 49.7292C103.333 50.3385 103.151 50.9427 102.88 51.6563Z" fill="white"/>
<path d="M112.974 73.4062C112.396 73.8177 111.964 74.2031 111.453 74.3958C110.776 74.651 110.042 74.7552 109.333 74.9271C109.875 74.0468 110.24 72.9114 111.016 72.3854C111.474 72.0781 112.583 72.75 113.401 72.9791C113.297 73.0833 113.188 73.1927 112.974 73.4062Z" fill="white"/>
<path d="M74.3176 64.3386C73.3124 65.224 72.6041 66.3438 71.8385 67.4323C71.4895 67.9323 71.1041 68.4115 70.7031 68.8594C70.1718 70.0052 69.6458 71.1563 69.1406 72.3125C69.1145 72.3698 69.3489 72.6198 69.3854 72.6042C69.6979 72.4636 70.1093 72.3646 70.2812 72.1094C71.6301 70.0677 72.9479 68.0052 74.2291 65.9271C74.4843 65.5209 74.5781 65.0104 74.6926 64.5313C74.6979 64.5156 74.4895 64.4011 74.3176 64.3386Z" fill="white"/>
</svg>
